Onest-Light.ufo
<glyph name="exclam" format="2">
  <advance width="263"/>
  <unicode hex="0021"/>
  <outline>
    <contour>
      <point x="132" y="93" type="curve" smooth="yes"/>
      <point x="160" y="93"/>
      <point x="181" y="71"/>
      <point x="181" y="43" type="curve" smooth="yes"/>
      <point x="181" y="14"/>
      <point x="161" y="-8"/>
      <point x="132" y="-8" type="curve" smooth="yes"/>
      <point x="101" y="-8"/>
      <point x="82" y="12"/>
      <point x="82" y="43" type="curve" smooth="yes"/>
      <point x="82" y="74"/>
      <point x="101" y="93"/>
    </contour>
    <contour>
      <point x="102" y="195" type="line"/>
      <point x="100" y="707" type="line"/>
      <point x="164" y="707" type="line"/>
      <point x="162" y="195" type="line"/>
    </contour>
  </outline>
</glyph>
<glyph name="quotedbl" format="2">
  <advance width="335"/>
  <unicode hex="0022"/>
  <outline>
    <contour>
      <point x="120" y="486" type="line"/>
      <point x="74" y="486" type="line"/>
      <point x="64" y="707" type="line"/>
      <point x="129" y="707" type="line"/>
    </contour>
    <contour>
      <point x="262" y="486" type="line"/>
      <point x="216" y="486" type="line"/>
      <point x="206" y="707" type="line"/>
      <point x="271" y="707" type="line"/>
    </contour>
  </outline>
</glyph>
<glyph name="numbersign" format="2">
  <advance width="655"/>
  <unicode hex="0023"/>
  <outline>
    <contour>
      <point x="64" y="245" type="line"/>
      <point x="171" y="245" type="line"/>
      <point x="194" y="463" type="line"/>
      <point x="94" y="463" type="line"/>
      <point x="94" y="521" type="line"/>
      <point x="200" y="521" type="line"/>
      <point x="220" y="707" type="line"/>
      <point x="283" y="707" type="line"/>
      <point x="263" y="521" type="line"/>
      <point x="429" y="521" type="line"/>
      <point x="448" y="707" type="line"/>
      <point x="511" y="707" type="line"/>
      <point x="491" y="521" type="line"/>
      <point x="591" y="521" type="line"/>
      <point x="591" y="463" type="line"/>
      <point x="484" y="463" type="line"/>
      <point x="461" y="245" type="line"/>
      <point x="561" y="245" type="line"/>
      <point x="561" y="187" type="line"/>
      <point x="455" y="187" type="line"/>
      <point x="435" y="0" type="line"/>
      <point x="373" y="0" type="line"/>
      <point x="392" y="187" type="line"/>
      <point x="227" y="187" type="line"/>
      <point x="207" y="0" type="line"/>
      <point x="145" y="0" type="line"/>
      <point x="164" y="187" type="line"/>
      <point x="64" y="187" type="line"/>
    </contour>
    <contour>
      <point x="233" y="245" type="line"/>
      <point x="400" y="245" type="line"/>
      <point x="422" y="463" type="line"/>
      <point x="256" y="463" type="line"/>
    </contour>
  </outline>
</glyph>
<glyph name="dollar" format="2">
  <advance width="656"/>
  <unicode hex="0024"/>
  <outline>
    <contour>
      <point x="308" y="848" type="line"/>
      <point x="374" y="848" type="line"/>
      <point x="374" y="712" type="line"/>
      <point x="472" y="701"/>
      <point x="558" y="652"/>
      <point x="571" y="543" type="curve"/>
      <point x="506" y="543" type="line"/>
      <point x="490" y="627"/>
      <point x="413" y="656"/>
      <point x="333" y="656" type="curve" smooth="yes"/>
      <point x="250" y="656"/>
      <point x="156" y="630"/>
      <point x="156" y="530" type="curve" smooth="yes"/>
      <point x="156" y="450"/>
      <point x="217" y="418"/>
      <point x="286" y="399" type="curve" smooth="yes"/>
      <point x="339" y="384"/>
      <point x="389" y="376"/>
      <point x="442" y="361" type="curve" smooth="yes"/>
      <point x="524" y="337"/>
      <point x="591" y="291"/>
      <point x="591" y="198" type="curve" smooth="yes"/>
      <point x="591" y="56"/>
      <point x="492" y="0"/>
      <point x="368" y="-8" type="curve"/>
      <point x="368" y="-142" type="line"/>
      <point x="303" y="-142" type="line"/>
      <point x="303" y="-7" type="line"/>
      <point x="194" y="1"/>
      <point x="96" y="52"/>
      <point x="64" y="168" type="curve"/>
      <point x="134" y="168" type="line"/>
      <point x="169" y="80"/>
      <point x="262" y="51"/>
      <point x="350" y="51" type="curve" smooth="yes"/>
      <point x="433" y="51"/>
      <point x="524" y="86"/>
      <point x="524" y="182" type="curve" smooth="yes"/>
      <point x="524" y="257"/>
      <point x="466" y="291"/>
      <point x="398" y="307" type="curve" smooth="yes"/>
      <point x="345" y="320"/>
      <point x="295" y="331"/>
      <point x="241" y="344" type="curve" smooth="yes"/>
      <point x="150" y="366"/>
      <point x="88" y="423"/>
      <point x="88" y="522" type="curve" smooth="yes"/>
      <point x="88" y="655"/>
      <point x="192" y="709"/>
      <point x="308" y="714" type="curve"/>
    </contour>
  </outline>
</glyph>
<glyph name="percent" format="2">
  <advance width="809"/>
  <unicode hex="0025"/>
  <outline>
    <contour>
      <point x="149" y="0" type="line"/>
      <point x="584" y="707" type="line"/>
      <point x="659" y="707" type="line"/>
      <point x="225" y="0" type="line"/>
    </contour>
    <contour>
      <point x="203" y="415" type="curve" smooth="yes"/>
      <point x="114" y="415"/>
      <point x="64" y="480"/>
      <point x="64" y="565" type="curve" smooth="yes"/>
      <point x="64" y="650"/>
      <point x="112" y="715"/>
      <point x="203" y="715" type="curve" smooth="yes"/>
      <point x="294" y="715"/>
      <point x="339" y="647"/>
      <point x="339" y="565" type="curve" smooth="yes"/>
      <point x="339" y="482"/>
      <point x="292" y="415"/>
    </contour>
    <contour>
      <point x="203" y="658" type="curve" smooth="yes"/>
      <point x="143" y="658"/>
      <point x="121" y="612"/>
      <point x="121" y="565" type="curve" smooth="yes"/>
      <point x="121" y="518"/>
      <point x="143" y="471"/>
      <point x="203" y="471" type="curve" smooth="yes"/>
      <point x="263" y="471"/>
      <point x="280" y="521"/>
      <point x="280" y="565" type="curve" smooth="yes"/>
      <point x="280" y="608"/>
      <point x="263" y="658"/>
    </contour>
    <contour>
      <point x="609" y="-8" type="curve" smooth="yes"/>
      <point x="520" y="-8"/>
      <point x="470" y="57"/>
      <point x="470" y="142" type="curve" smooth="yes"/>
      <point x="470" y="227"/>
      <point x="518" y="292"/>
      <point x="609" y="292" type="curve" smooth="yes"/>
      <point x="700" y="292"/>
      <point x="745" y="224"/>
      <point x="745" y="142" type="curve" smooth="yes"/>
      <point x="745" y="59"/>
      <point x="698" y="-8"/>
    </contour>
    <contour>
      <point x="609" y="235" type="curve" smooth="yes"/>
      <point x="549" y="235"/>
      <point x="527" y="189"/>
      <point x="527" y="142" type="curve" smooth="yes"/>
      <point x="527" y="95"/>
      <point x="549" y="48"/>
      <point x="609" y="48" type="curve" smooth="yes"/>
      <point x="669" y="48"/>
      <point x="686" y="98"/>
      <point x="686" y="142" type="curve" smooth="yes"/>
      <point x="686" y="185"/>
      <point x="669" y="235"/>
    </contour>
  </outline>
</glyph>
<glyph name="ampersand" format="2">
  <advance width="668"/>
  <unicode hex="0026"/>
  <outline>
    <contour>
      <point x="489" y="69" type="line"/>
      <point x="429" y="16"/>
      <point x="362" y="-8"/>
      <point x="282" y="-8" type="curve" smooth="yes"/>
      <point x="166" y="-8"/>
      <point x="72" y="55"/>
      <point x="72" y="178" type="curve" smooth="yes"/>
      <point x="72" y="278"/>
      <point x="149" y="337"/>
      <point x="229" y="380" type="curve"/>
      <point x="182" y="424"/>
      <point x="143" y="479"/>
      <point x="143" y="547" type="curve" smooth="yes"/>
      <point x="143" y="655"/>
      <point x="218" y="715"/>
      <point x="322" y="715" type="curve" smooth="yes"/>
      <point x="414" y="715"/>
      <point x="479" y="657"/>
      <point x="479" y="565" type="curve" smooth="yes"/>
      <point x="479" y="472"/>
      <point x="408" y="416"/>
      <point x="317" y="368" type="curve"/>
      <point x="491" y="163" type="line"/>
      <point x="522" y="204"/>
      <point x="538" y="248"/>
      <point x="546" y="299" type="curve"/>
      <point x="609" y="299" type="line"/>
      <point x="601" y="231"/>
      <point x="571" y="174"/>
      <point x="534" y="118" type="curve"/>
      <point x="639" y="0" type="line"/>
      <point x="552" y="0" type="line"/>
    </contour>
    <contour>
      <point x="282" y="405" type="curve"/>
      <point x="339" y="438"/>
      <point x="419" y="486"/>
      <point x="419" y="561" type="curve" smooth="yes"/>
      <point x="419" y="621"/>
      <point x="372" y="657"/>
      <point x="315" y="656" type="curve" smooth="yes"/>
      <point x="247" y="655"/>
      <point x="206" y="620"/>
      <point x="206" y="552" type="curve" smooth="yes"/>
      <point x="206" y="484"/>
      <point x="242" y="453"/>
    </contour>
    <contour>
      <point x="261" y="337" type="line"/>
      <point x="199" y="305"/>
      <point x="141" y="255"/>
      <point x="141" y="180" type="curve" smooth="yes"/>
      <point x="141" y="94"/>
      <point x="218" y="51"/>
      <point x="296" y="51" type="curve" smooth="yes"/>
      <point x="353" y="51"/>
      <point x="411" y="73"/>
      <point x="451" y="116" type="curve"/>
    </contour>
  </outline>
</glyph>
<glyph name="quotesingle" format="2">
  <advance width="209"/>
  <unicode hex="0027"/>
  <outline>
    <contour>
      <point x="127" y="486" type="line"/>
      <point x="81" y="486" type="line"/>
      <point x="72" y="707" type="line"/>
      <point x="137" y="707" type="line"/>
    </contour>
  </outline>
</glyph>
<glyph name="parenleft" format="2">
  <advance width="293"/>
  <unicode hex="0028"/>
  <outline>
    <contour>
      <point x="318" y="-218" type="curve"/>
      <point x="250" y="-218" type="line"/>
      <point x="135" y="-79"/>
      <point x="70" y="121"/>
      <point x="70" y="302" type="curve" smooth="yes"/>
      <point x="70" y="484"/>
      <point x="131" y="681"/>
      <point x="248" y="821" type="curve"/>
      <point x="316" y="821" type="line"/>
      <point x="201" y="658"/>
      <point x="135" y="504"/>
      <point x="135" y="302" type="curve" smooth="yes"/>
      <point x="135" y="100"/>
      <point x="200" y="-57"/>
    </contour>
  </outline>
</glyph>
<glyph name="parenright" format="2">
  <advance width="293"/>
  <unicode hex="0029"/>
  <outline>
    <contour>
      <point x="-25" y="-218" type="line"/>
      <point x="92" y="-58"/>
      <point x="158" y="101"/>
      <point x="158" y="302" type="curve" smooth="yes"/>
      <point x="158" y="503"/>
      <point x="91" y="659"/>
      <point x="-23" y="821" type="curve"/>
      <point x="45" y="821" type="line"/>
      <point x="162" y="681"/>
      <point x="223" y="484"/>
      <point x="223" y="302" type="curve" smooth="yes"/>
      <point x="223" y="121"/>
      <point x="158" y="-79"/>
      <point x="43" y="-218" type="curve"/>
    </contour>
  </outline>
</glyph>
<glyph name="asterisk" format="2">
  <advance width="423"/>
  <unicode hex="002A"/>
  <outline>
    <contour>
      <point x="236" y="637" type="line"/>
      <point x="331" y="668" type="line"/>
      <point x="349" y="619" type="line"/>
      <point x="252" y="587" type="line"/>
      <point x="312" y="506" type="line"/>
      <point x="271" y="476" type="line"/>
      <point x="211" y="558" type="line"/>
      <point x="151" y="476" type="line"/>
      <point x="110" y="506" type="line"/>
      <point x="170" y="587" type="line"/>
      <point x="74" y="619" type="line"/>
      <point x="89" y="668" type="line"/>
      <point x="186" y="637" type="line"/>
      <point x="186" y="738" type="line"/>
      <point x="236" y="738" type="line"/>
    </contour>
  </outline>
</glyph>
<glyph name="plus" format="2">
  <advance width="518"/>
  <unicode hex="002B"/>
  <outline>
    <contour>
      <point x="290" y="542" type="line"/>
      <point x="290" y="385" type="line"/>
      <point x="439" y="385" type="line"/>
      <point x="439" y="325" type="line"/>
      <point x="290" y="325" type="line"/>
      <point x="290" y="165" type="line"/>
      <point x="225" y="165" type="line"/>
      <point x="225" y="325" type="line"/>
      <point x="79" y="325" type="line"/>
      <point x="79" y="385" type="line"/>
      <point x="225" y="385" type="line"/>
      <point x="225" y="542" type="line"/>
    </contour>
  </outline>
</glyph>
<glyph name="comma" format="2">
  <advance width="252"/>
  <unicode hex="002C"/>
  <outline>
    <contour>
      <point x="125" y="94" type="curve" smooth="yes"/>
      <point x="164" y="93"/>
      <point x="179" y="63"/>
      <point x="179" y="27" type="curve" smooth="yes"/>
      <point x="179" y="-33"/>
      <point x="145" y="-95"/>
      <point x="88" y="-119" type="curve"/>
      <point x="72" y="-93" type="line"/>
      <point x="101" y="-74"/>
      <point x="121" y="-47"/>
      <point x="128" y="-8" type="curve"/>
      <point x="93" y="-11"/>
      <point x="74" y="11"/>
      <point x="74" y="44" type="curve" smooth="yes"/>
      <point x="74" y="73"/>
      <point x="94" y="94"/>
    </contour>
  </outline>
</glyph>
<glyph name="hyphen" format="2">
  <advance width="453"/>
  <unicode hex="002D"/>
  <outline>
    <contour>
      <point x="79" y="311" type="line"/>
      <point x="374" y="311" type="line"/>
      <point x="374" y="251" type="line"/>
      <point x="79" y="251" type="line"/>
    </contour>
  </outline>
</glyph>
<glyph name="period" format="2">
  <advance width="245"/>
  <unicode hex="002E"/>
  <outline>
    <contour>
      <point x="123" y="94" type="curve" smooth="yes"/>
      <point x="154" y="94"/>
      <point x="173" y="73"/>
      <point x="173" y="44" type="curve" smooth="yes"/>
      <point x="173" y="15"/>
      <point x="154" y="-8"/>
      <point x="123" y="-8" type="curve" smooth="yes"/>
      <point x="92" y="-8"/>
      <point x="72" y="15"/>
      <point x="72" y="44" type="curve" smooth="yes"/>
      <point x="72" y="73"/>
      <point x="92" y="94"/>
    </contour>
  </outline>
</glyph>
<glyph name="slash" format="2">
  <advance width="470"/>
  <unicode hex="002F"/>
  <outline>
    <contour>
      <point x="356" y="804" type="line"/>
      <point x="426" y="804" type="line"/>
      <point x="114" y="-173" type="line"/>
      <point x="44" y="-173" type="line"/>
    </contour>
  </outline>
</glyph>
<glyph name="zero" format="2">
  <advance width="668"/>
  <unicode hex="0030"/>
  <outline>
    <contour>
      <point x="607" y="353" type="curve" smooth="yes"/>
      <point x="607" y="173"/>
      <point x="545" y="-8"/>
      <point x="334" y="-8" type="curve" smooth="yes"/>
      <point x="123" y="-8"/>
      <point x="62" y="172"/>
      <point x="62" y="353" type="curve" smooth="yes"/>
      <point x="62" y="532"/>
      <point x="124" y="715"/>
      <point x="334" y="715" type="curve" smooth="yes"/>
      <point x="545" y="715"/>
      <point x="607" y="532"/>
    </contour>
    <contour>
      <point x="129" y="353" type="curve" smooth="yes"/>
      <point x="129" y="213"/>
      <point x="162" y="51"/>
      <point x="334" y="51" type="curve" smooth="yes"/>
      <point x="507" y="51"/>
      <point x="539" y="213"/>
      <point x="539" y="353" type="curve" smooth="yes"/>
      <point x="539" y="491"/>
      <point x="505" y="656"/>
      <point x="334" y="656" type="curve" smooth="yes"/>
      <point x="163" y="656"/>
      <point x="129" y="491"/>
    </contour>
  </outline>
</glyph>
<glyph name="one" format="2">
  <advance width="349"/>
  <unicode hex="0031"/>
  <outline>
    <contour>
      <point x="237" y="0" type="line"/>
      <point x="172" y="0" type="line"/>
      <point x="172" y="585" type="line"/>
      <point x="30" y="585" type="line"/>
      <point x="30" y="624" type="line"/>
      <point x="103" y="627"/>
      <point x="161" y="635"/>
      <point x="193" y="707" type="curve"/>
      <point x="237" y="707" type="line"/>
    </contour>
  </outline>
</glyph>
<glyph name="two" format="2">
  <advance width="567"/>
  <unicode hex="0032"/>
  <outline>
    <contour>
      <point x="438" y="513" type="curve" smooth="yes"/>
      <point x="438" y="607"/>
      <point x="370" y="656"/>
      <point x="281" y="656" type="curve" smooth="yes"/>
      <point x="216" y="656"/>
      <point x="154" y="631"/>
      <point x="129" y="571" type="curve"/>
      <point x="56" y="571" type="line"/>
      <point x="83" y="671"/>
      <point x="189" y="715"/>
      <point x="285" y="715" type="curve" smooth="yes"/>
      <point x="410" y="715"/>
      <point x="504" y="646"/>
      <point x="504" y="515" type="curve" smooth="yes"/>
      <point x="504" y="387"/>
      <point x="421" y="310"/>
      <point x="330" y="233" type="curve" smooth="yes"/>
      <point x="128" y="60" type="line"/>
      <point x="512" y="60" type="line"/>
      <point x="512" y="0" type="line"/>
      <point x="35" y="0" type="line"/>
      <point x="35" y="62" type="line"/>
      <point x="239" y="236" type="line" smooth="yes"/>
      <point x="324" y="308"/>
      <point x="438" y="392"/>
    </contour>
  </outline>
</glyph>
<glyph name="three" format="2">
  <advance width="598"/>
  <unicode hex="0033"/>
  <outline>
    <contour>
      <point x="106" y="141" type="line"/>
      <point x="127" y="72"/>
      <point x="221" y="51"/>
      <point x="285" y="51" type="curve" smooth="yes"/>
      <point x="380" y="51"/>
      <point x="469" y="83"/>
      <point x="469" y="193" type="curve" smooth="yes"/>
      <point x="469" y="310"/>
      <point x="370" y="330"/>
      <point x="274" y="330" type="curve" smooth="yes"/>
      <point x="201" y="330" type="line"/>
      <point x="201" y="390" type="line"/>
      <point x="249" y="390" type="line" smooth="yes"/>
      <point x="300" y="390"/>
      <point x="351" y="399"/>
      <point x="391" y="431" type="curve" smooth="yes"/>
      <point x="420" y="454"/>
      <point x="440" y="489"/>
      <point x="441" y="526" type="curve" smooth="yes"/>
      <point x="444" y="622"/>
      <point x="365" y="656"/>
      <point x="281" y="656" type="curve" smooth="yes"/>
      <point x="215" y="656"/>
      <point x="142" y="636"/>
      <point x="126" y="568" type="curve"/>
      <point x="58" y="568" type="line"/>
      <point x="71" y="677"/>
      <point x="189" y="715"/>
      <point x="285" y="715" type="curve" smooth="yes"/>
      <point x="397" y="715"/>
      <point x="504" y="670"/>
      <point x="504" y="539" type="curve" smooth="yes"/>
      <point x="504" y="463"/>
      <point x="459" y="395"/>
      <point x="386" y="372" type="curve"/>
      <point x="479" y="353"/>
      <point x="536" y="289"/>
      <point x="536" y="193" type="curve" smooth="yes"/>
      <point x="536" y="45"/>
      <point x="413" y="-8"/>
      <point x="284" y="-8" type="curve" smooth="yes"/>
      <point x="180" y="-8"/>
      <point x="60" y="28"/>
      <point x="38" y="141" type="curve"/>
    </contour>
  </outline>
</glyph>
<glyph name="four" format="2">
  <advance width="623"/>
  <unicode hex="0034"/>
  <outline>
    <contour>
      <point x="428" y="146" type="line"/>
      <point x="47" y="146" type="line"/>
      <point x="47" y="198" type="line"/>
      <point x="397" y="707" type="line"/>
      <point x="493" y="707" type="line"/>
      <point x="493" y="206" type="line"/>
      <point x="581" y="206" type="line"/>
      <point x="581" y="146" type="line"/>
      <point x="493" y="146" type="line"/>
      <point x="493" y="0" type="line"/>
      <point x="428" y="0" type="line"/>
    </contour>
    <contour>
      <point x="428" y="647" type="line"/>
      <point x="126" y="206" type="line"/>
      <point x="428" y="206" type="line"/>
    </contour>
  </outline>
</glyph>
<glyph name="five" format="2">
  <advance width="615"/>
  <unicode hex="0035"/>
  <outline>
    <contour>
      <point x="85" y="320" type="line"/>
      <point x="119" y="707" type="line"/>
      <point x="530" y="707" type="line"/>
      <point x="530" y="647" type="line"/>
      <point x="177" y="647" type="line"/>
      <point x="153" y="386" type="line"/>
      <point x="204" y="427"/>
      <point x="266" y="446"/>
      <point x="334" y="446" type="curve" smooth="yes"/>
      <point x="467" y="446"/>
      <point x="556" y="357"/>
      <point x="556" y="224" type="curve" smooth="yes"/>
      <point x="556" y="73"/>
      <point x="445" y="-8"/>
      <point x="304" y="-8" type="curve" smooth="yes"/>
      <point x="200" y="-8"/>
      <point x="96" y="34"/>
      <point x="67" y="143" type="curve"/>
      <point x="136" y="143" type="line"/>
      <point x="162" y="83"/>
      <point x="239" y="51"/>
      <point x="301" y="51" type="curve" smooth="yes"/>
      <point x="410" y="51"/>
      <point x="488" y="104"/>
      <point x="488" y="219" type="curve" smooth="yes"/>
      <point x="488" y="327"/>
      <point x="419" y="386"/>
      <point x="314" y="386" type="curve" smooth="yes"/>
      <point x="258" y="386"/>
      <point x="202" y="360"/>
      <point x="161" y="320" type="curve"/>
    </contour>
  </outline>
</glyph>
<glyph name="six" format="2">
  <advance width="626"/>
  <unicode hex="0036"/>
  <outline>
    <contour>
      <point x="339" y="445" type="curve" smooth="yes"/>
      <point x="474" y="445"/>
      <point x="566" y="354"/>
      <point x="566" y="223" type="curve" smooth="yes"/>
      <point x="566" y="84"/>
      <point x="466" y="-8"/>
      <point x="328" y="-8" type="curve" smooth="yes"/>
      <point x="231" y="-8"/>
      <point x="153" y="34"/>
      <point x="108" y="121" type="curve" smooth="yes"/>
      <point x="73" y="189"/>
      <point x="63" y="279"/>
      <point x="64" y="352" type="curve" smooth="yes"/>
      <point x="65" y="453"/>
      <point x="89" y="572"/>
      <point x="164" y="645" type="curve" smooth="yes"/>
      <point x="209" y="690"/>
      <point x="270" y="715"/>
      <point x="345" y="715" type="curve" smooth="yes"/>
      <point x="438" y="715"/>
      <point x="520" y="667"/>
      <point x="556" y="579" type="curve"/>
      <point x="486" y="579" type="line"/>
      <point x="458" y="630"/>
      <point x="399" y="656"/>
      <point x="343" y="656" type="curve" smooth="yes"/>
      <point x="259" y="656"/>
      <point x="206" y="615"/>
      <point x="174" y="556" type="curve" smooth="yes"/>
      <point x="138" y="489"/>
      <point x="129" y="401"/>
      <point x="129" y="330" type="curve"/>
      <point x="169" y="405"/>
      <point x="254" y="445"/>
    </contour>
    <contour>
      <point x="500" y="214" type="curve" smooth="yes"/>
      <point x="500" y="312"/>
      <point x="434" y="385"/>
      <point x="334" y="385" type="curve" smooth="yes"/>
      <point x="240" y="385"/>
      <point x="152" y="314"/>
      <point x="155" y="218" type="curve" smooth="yes"/>
      <point x="158" y="122"/>
      <point x="236" y="51"/>
      <point x="329" y="51" type="curve" smooth="yes"/>
      <point x="421" y="51"/>
      <point x="500" y="118"/>
    </contour>
  </outline>
</glyph>
<glyph name="seven" format="2">
  <advance width="505"/>
  <unicode hex="0037"/>
  <outline>
    <contour>
      <point x="112" y="0" type="line"/>
      <point x="407" y="647" type="line"/>
      <point x="17" y="647" type="line"/>
      <point x="17" y="707" type="line"/>
      <point x="477" y="707" type="line"/>
      <point x="477" y="646" type="line"/>
      <point x="186" y="0" type="line"/>
    </contour>
  </outline>
</glyph>
<glyph name="eight" format="2">
  <advance width="615"/>
  <unicode hex="0038"/>
  <outline>
    <contour>
      <point x="553" y="192" type="curve" smooth="yes"/>
      <point x="553" y="48"/>
      <point x="435" y="-8"/>
      <point x="307" y="-8" type="curve" smooth="yes"/>
      <point x="178" y="-8"/>
      <point x="62" y="45"/>
      <point x="62" y="192" type="curve" smooth="yes"/>
      <point x="62" y="278"/>
      <point x="121" y="339"/>
      <point x="196" y="363" type="curve"/>
      <point x="124" y="386"/>
      <point x="84" y="452"/>
      <point x="84" y="532" type="curve" smooth="yes"/>
      <point x="84" y="661"/>
      <point x="194" y="715"/>
      <point x="308" y="715" type="curve" smooth="yes"/>
      <point x="421" y="715"/>
      <point x="532" y="661"/>
      <point x="532" y="532" type="curve" smooth="yes"/>
      <point x="532" y="452"/>
      <point x="487" y="389"/>
      <point x="418" y="366" type="curve"/>
      <point x="498" y="343"/>
      <point x="553" y="280"/>
    </contour>
    <contour>
      <point x="308" y="656" type="curve" smooth="yes"/>
      <point x="220" y="656"/>
      <point x="152" y="617"/>
      <point x="152" y="521" type="curve" smooth="yes"/>
      <point x="152" y="428"/>
      <point x="224" y="388"/>
      <point x="308" y="388" type="curve" smooth="yes"/>
      <point x="384" y="388"/>
      <point x="464" y="430"/>
      <point x="464" y="517" type="curve" smooth="yes"/>
      <point x="464" y="616"/>
      <point x="399" y="656"/>
    </contour>
    <contour>
      <point x="308" y="331" type="curve" smooth="yes"/>
      <point x="220" y="331"/>
      <point x="129" y="294"/>
      <point x="129" y="191" type="curve" smooth="yes"/>
      <point x="129" y="86"/>
      <point x="218" y="51"/>
      <point x="308" y="51" type="curve" smooth="yes"/>
      <point x="398" y="51"/>
      <point x="485" y="86"/>
      <point x="485" y="191" type="curve" smooth="yes"/>
      <point x="485" y="294"/>
      <point x="395" y="331"/>
    </contour>
  </outline>
</glyph>
<glyph name="nine" format="2">
  <advance width="622"/>
  <unicode hex="0039"/>
  <outline>
    <contour>
      <point x="283" y="264" type="curve" smooth="yes"/>
      <point x="155" y="265"/>
      <point x="61" y="353"/>
      <point x="61" y="485" type="curve" smooth="yes"/>
      <point x="61" y="626"/>
      <point x="159" y="715"/>
      <point x="298" y="715" type="curve" smooth="yes"/>
      <point x="390" y="715"/>
      <point x="459" y="675"/>
      <point x="506" y="596" type="curve" smooth="yes"/>
      <point x="548" y="526"/>
      <point x="560" y="427"/>
      <point x="560" y="353" type="curve" smooth="yes"/>
      <point x="561" y="272"/>
      <point x="551" y="180"/>
      <point x="510" y="108" type="curve" smooth="yes"/>
      <point x="463" y="24"/>
      <point x="386" y="-8"/>
      <point x="291" y="-8" type="curve" smooth="yes"/>
      <point x="197" y="-8"/>
      <point x="103" y="31"/>
      <point x="73" y="128" type="curve"/>
      <point x="145" y="128" type="line"/>
      <point x="173" y="75"/>
      <point x="232" y="51"/>
      <point x="293" y="51" type="curve" smooth="yes"/>
      <point x="377" y="51"/>
      <point x="435" y="90"/>
      <point x="467" y="167" type="curve" smooth="yes"/>
      <point x="491" y="224"/>
      <point x="497" y="294"/>
      <point x="497" y="355" type="curve" smooth="yes"/>
      <point x="497" y="364"/>
      <point x="496" y="378"/>
      <point x="496" y="387" type="curve"/>
      <point x="485" y="355"/>
      <point x="462" y="327"/>
      <point x="435" y="307" type="curve" smooth="yes"/>
      <point x="392" y="276"/>
      <point x="336" y="264"/>
    </contour>
    <contour>
      <point x="126" y="493" type="curve" smooth="yes"/>
      <point x="126" y="389"/>
      <point x="191" y="325"/>
      <point x="295" y="325" type="curve" smooth="yes"/>
      <point x="386" y="325"/>
      <point x="466" y="388"/>
      <point x="466" y="483" type="curve" smooth="yes"/>
      <point x="466" y="582"/>
      <point x="396" y="656"/>
      <point x="296" y="656" type="curve" smooth="yes"/>
      <point x="203" y="656"/>
      <point x="126" y="588"/>
    </contour>
  </outline>
</glyph>
<glyph name="colon" format="2">
  <advance width="245"/>
  <unicode hex="003A"/>
  <outline>
    <contour>
      <point x="123" y="459" type="curve" smooth="yes"/>
      <point x="154" y="459"/>
      <point x="173" y="437"/>
      <point x="173" y="408" type="curve" smooth="yes"/>
      <point x="173" y="379"/>
      <point x="154" y="356"/>
      <point x="123" y="356" type="curve" smooth="yes"/>
      <point x="92" y="356"/>
      <point x="72" y="379"/>
      <point x="72" y="408" type="curve" smooth="yes"/>
      <point x="72" y="437"/>
      <point x="92" y="459"/>
    </contour>
    <contour>
      <point x="123" y="94" type="curve" smooth="yes"/>
      <point x="154" y="94"/>
      <point x="173" y="73"/>
      <point x="173" y="44" type="curve" smooth="yes"/>
      <point x="173" y="15"/>
      <point x="154" y="-8"/>
      <point x="123" y="-8" type="curve" smooth="yes"/>
      <point x="92" y="-8"/>
      <point x="72" y="15"/>
      <point x="72" y="44" type="curve" smooth="yes"/>
      <point x="72" y="73"/>
      <point x="92" y="94"/>
    </contour>
  </outline>
</glyph>
<glyph name="semicolon" format="2">
  <advance width="252"/>
  <unicode hex="003B"/>
  <outline>
    <contour>
      <point x="127" y="459" type="curve" smooth="yes"/>
      <point x="158" y="459"/>
      <point x="178" y="437"/>
      <point x="178" y="408" type="curve" smooth="yes"/>
      <point x="178" y="379"/>
      <point x="159" y="356"/>
      <point x="127" y="356" type="curve" smooth="yes"/>
      <point x="96" y="356"/>
      <point x="77" y="379"/>
      <point x="77" y="408" type="curve" smooth="yes"/>
      <point x="77" y="437"/>
      <point x="96" y="459"/>
    </contour>
    <contour>
      <point x="126" y="94" type="curve" smooth="yes"/>
      <point x="165" y="93"/>
      <point x="179" y="63"/>
      <point x="179" y="27" type="curve" smooth="yes"/>
      <point x="179" y="-33"/>
      <point x="145" y="-95"/>
      <point x="88" y="-119" type="curve"/>
      <point x="72" y="-93" type="line"/>
      <point x="101" y="-74"/>
      <point x="121" y="-47"/>
      <point x="128" y="-8" type="curve"/>
      <point x="93" y="-11"/>
      <point x="74" y="11"/>
      <point x="74" y="44" type="curve" smooth="yes"/>
      <point x="74" y="73"/>
      <point x="95" y="94"/>
    </contour>
  </outline>
</glyph>
<glyph name="less" format="2">
  <advance width="441"/>
  <unicode hex="003C"/>
  <outline>
    <contour>
      <point x="44" y="367" type="line"/>
      <point x="367" y="590" type="line"/>
      <point x="367" y="519" type="line"/>
      <point x="114" y="353" type="line"/>
      <point x="367" y="182" type="line"/>
      <point x="367" y="111" type="line"/>
      <point x="44" y="333" type="line"/>
    </contour>
  </outline>
</glyph>
<glyph name="equal" format="2">
  <advance width="539"/>
  <unicode hex="003D"/>
  <outline>
    <contour>
      <point x="74" y="251" type="line"/>
      <point x="465" y="251" type="line"/>
      <point x="465" y="191" type="line"/>
      <point x="74" y="191" type="line"/>
    </contour>
    <contour>
      <point x="74" y="507" type="line"/>
      <point x="465" y="507" type="line"/>
      <point x="465" y="447" type="line"/>
      <point x="74" y="447" type="line"/>
    </contour>
  </outline>
</glyph>
<glyph name="greater" format="2">
  <advance width="441"/>
  <unicode hex="003E"/>
  <outline>
    <contour>
      <point x="397" y="333" type="line"/>
      <point x="74" y="111" type="line"/>
      <point x="74" y="182" type="line"/>
      <point x="327" y="350" type="line"/>
      <point x="74" y="519" type="line"/>
      <point x="74" y="590" type="line"/>
      <point x="397" y="367" type="line"/>
    </contour>
  </outline>
</glyph>
<glyph name="question" format="2">
  <advance width="510"/>
  <unicode hex="003F"/>
  <outline>
    <contour>
      <point x="198" y="216" type="line"/>
      <point x="195" y="248"/>
      <point x="204" y="282"/>
      <point x="221" y="309" type="curve" smooth="yes"/>
      <point x="248" y="350"/>
      <point x="290" y="382"/>
      <point x="324" y="418" type="curve" smooth="yes"/>
      <point x="358" y="453"/>
      <point x="385" y="492"/>
      <point x="385" y="539" type="curve" smooth="yes"/>
      <point x="385" y="616"/>
      <point x="323" y="656"/>
      <point x="251" y="656" type="curve" smooth="yes"/>
      <point x="191" y="656"/>
      <point x="129" y="637"/>
      <point x="111" y="574" type="curve"/>
      <point x="42" y="574" type="line"/>
      <point x="61" y="672"/>
      <point x="160" y="715"/>
      <point x="253" y="715" type="curve" smooth="yes"/>
      <point x="361" y="715"/>
      <point x="450" y="659"/>
      <point x="450" y="543" type="curve" smooth="yes"/>
      <point x="450" y="464"/>
      <point x="408" y="417"/>
      <point x="354" y="365" type="curve"/>
      <point x="333" y="346"/>
      <point x="311" y="323"/>
      <point x="292" y="300" type="curve"/>
      <point x="271" y="273"/>
      <point x="266" y="248"/>
      <point x="265" y="216" type="curve"/>
    </contour>
    <contour>
      <point x="231" y="94" type="curve" smooth="yes"/>
      <point x="262" y="94"/>
      <point x="282" y="73"/>
      <point x="282" y="44" type="curve" smooth="yes"/>
      <point x="282" y="15"/>
      <point x="262" y="-8"/>
      <point x="231" y="-8" type="curve" smooth="yes"/>
      <point x="200" y="-8"/>
      <point x="181" y="15"/>
      <point x="181" y="44" type="curve" smooth="yes"/>
      <point x="181" y="73"/>
      <point x="200" y="94"/>
    </contour>
  </outline>
</glyph>
<glyph name="at" format="2">
  <advance width="995"/>
  <unicode hex="0040"/>
  <outline>
    <contour>
      <point x="630" y="131" type="curve"/>
      <point x="593" y="68"/>
      <point x="533" y="39"/>
      <point x="468" y="39" type="curve" smooth="yes"/>
      <point x="352" y="40"/>
      <point x="300" y="128"/>
      <point x="300" y="235" type="curve" smooth="yes"/>
      <point x="300" y="360"/>
      <point x="369" y="479"/>
      <point x="507" y="479" type="curve" smooth="yes"/>
      <point x="558" y="479"/>
      <point x="615" y="458"/>
      <point x="636" y="407" type="curve"/>
      <point x="644" y="462" type="line"/>
      <point x="702" y="462" type="line"/>
      <point x="697" y="417"/>
      <point x="688" y="362"/>
      <point x="684" y="317" type="curve" smooth="yes"/>
      <point x="681" y="276"/>
      <point x="676" y="236"/>
      <point x="676" y="193" type="curve" smooth="yes"/>
      <point x="676" y="141"/>
      <point x="689" y="86"/>
      <point x="752" y="86" type="curve" smooth="yes"/>
      <point x="833" y="86"/>
      <point x="860" y="182"/>
      <point x="860" y="274" type="curve" smooth="yes"/>
      <point x="861" y="482"/>
      <point x="757" y="656"/>
      <point x="528" y="656" type="curve" smooth="yes"/>
      <point x="281" y="656"/>
      <point x="144" y="468"/>
      <point x="144" y="236" type="curve" smooth="yes"/>
      <point x="144" y="22"/>
      <point x="279" y="-117"/>
      <point x="502" y="-125" type="curve" smooth="yes"/>
      <point x="535" y="-126"/>
      <point x="565" y="-124"/>
      <point x="597" y="-117" type="curve"/>
      <point x="603" y="-178" type="line"/>
      <point x="566" y="-185"/>
      <point x="531" y="-186"/>
      <point x="492" y="-185" type="curve" smooth="yes"/>
      <point x="240" y="-182"/>
      <point x="76" y="-17"/>
      <point x="76" y="230" type="curve" smooth="yes"/>
      <point x="76" y="510"/>
      <point x="240" y="715"/>
      <point x="529" y="715" type="curve" smooth="yes"/>
      <point x="778" y="715"/>
      <point x="921" y="535"/>
      <point x="921" y="296" type="curve" smooth="yes"/>
      <point x="921" y="170"/>
      <point x="879" y="34"/>
      <point x="747" y="34" type="curve" smooth="yes"/>
      <point x="684" y="34"/>
      <point x="637" y="67"/>
    </contour>
    <contour>
      <point x="360" y="237" type="curve" smooth="yes"/>
      <point x="360" y="163"/>
      <point x="396" y="91"/>
      <point x="479" y="91" type="curve" smooth="yes"/>
      <point x="567" y="91"/>
      <point x="626" y="189"/>
      <point x="626" y="270" type="curve" smooth="yes"/>
      <point x="626" y="347"/>
      <point x="593" y="423"/>
      <point x="504" y="423" type="curve" smooth="yes"/>
      <point x="404" y="423"/>
      <point x="360" y="325"/>
    </contour>
  </outline>
</glyph>
<glyph name="B" format="2">
  <advance width="657"/>
  <unicode hex="0042"/>
  <outline>
    <contour>
      <point x="91" y="707" type="line"/>
      <point x="335" y="707" type="line" smooth="yes"/>
      <point x="457" y="707"/>
      <point x="565" y="680"/>
      <point x="565" y="533" type="curve" smooth="yes"/>
      <point x="565" y="453"/>
      <point x="525" y="396"/>
      <point x="450" y="372" type="curve"/>
      <point x="546" y="356"/>
      <point x="603" y="293"/>
      <point x="603" y="194" type="curve" smooth="yes"/>
      <point x="603" y="38"/>
      <point x="460" y="0"/>
      <point x="329" y="0" type="curve" smooth="yes"/>
      <point x="91" y="0" type="line"/>
    </contour>
    <contour>
      <point x="156" y="647" type="line"/>
      <point x="156" y="391" type="line"/>
      <point x="314" y="391" type="line" smooth="yes"/>
      <point x="404" y="391"/>
      <point x="503" y="422"/>
      <point x="503" y="529" type="curve" smooth="yes"/>
      <point x="503" y="633"/>
      <point x="421" y="647"/>
      <point x="336" y="647" type="curve" smooth="yes"/>
    </contour>
    <contour>
      <point x="326" y="60" type="line" smooth="yes"/>
      <point x="422" y="60"/>
      <point x="537" y="72"/>
      <point x="537" y="196" type="curve" smooth="yes"/>
      <point x="537" y="304"/>
      <point x="448" y="331"/>
      <point x="356" y="331" type="curve" smooth="yes"/>
      <point x="156" y="331" type="line"/>
      <point x="156" y="60" type="line"/>
    </contour>
  </outline>
</glyph>
<glyph name="D" format="2">
  <advance width="724"/>
  <unicode hex="0044"/>
  <outline>
    <contour>
      <point x="92" y="707" type="line"/>
      <point x="339" y="707" type="line" smooth="yes"/>
      <point x="558" y="707"/>
      <point x="670" y="565"/>
      <point x="670" y="353" type="curve" smooth="yes"/>
      <point x="670" y="145"/>
      <point x="555" y="0"/>
      <point x="339" y="0" type="curve" smooth="yes"/>
      <point x="92" y="0" type="line"/>
    </contour>
    <contour>
      <point x="157" y="648" type="line"/>
      <point x="157" y="59" type="line"/>
      <point x="332" y="59" type="line" smooth="yes"/>
      <point x="512" y="59"/>
      <point x="603" y="180"/>
      <point x="603" y="353" type="curve" smooth="yes"/>
      <point x="603" y="521"/>
      <point x="518" y="648"/>
      <point x="338" y="648" type="curve" smooth="yes"/>
    </contour>
  </outline>
</glyph>
<glyph name="F" format="2">
  <advance width="599"/>
  <unicode hex="0046"/>
  <outline>
    <contour>
      <point x="92" y="0" type="line"/>
      <point x="92" y="707" type="line"/>
      <point x="557" y="707" type="line"/>
      <point x="557" y="647" type="line"/>
      <point x="157" y="647" type="line"/>
      <point x="157" y="358" type="line"/>
      <point x="499" y="358" type="line"/>
      <point x="499" y="298" type="line"/>
      <point x="157" y="298" type="line"/>
      <point x="157" y="0" type="line"/>
    </contour>
  </outline>
</glyph>
<glyph name="G" format="2">
  <advance width="726"/>
  <unicode hex="0047"/>
  <outline>
    <contour>
      <point x="375" y="656" type="curve" smooth="yes"/>
      <point x="192" y="656"/>
      <point x="118" y="509"/>
      <point x="121" y="349" type="curve" smooth="yes"/>
      <point x="124" y="187"/>
      <point x="198" y="51"/>
      <point x="377" y="51" type="curve" smooth="yes"/>
      <point x="524" y="51"/>
      <point x="610" y="145"/>
      <point x="613" y="286" type="curve"/>
      <point x="373" y="286" type="line"/>
      <point x="373" y="346" type="line"/>
      <point x="673" y="346" type="line"/>
      <point x="673" y="296" type="line" smooth="yes"/>
      <point x="673" y="116"/>
      <point x="557" y="-8"/>
      <point x="376" y="-8" type="curve" smooth="yes"/>
      <point x="160" y="-8"/>
      <point x="57" y="141"/>
      <point x="54" y="344" type="curve" smooth="yes"/>
      <point x="51" y="548"/>
      <point x="151" y="715"/>
      <point x="374" y="715" type="curve" smooth="yes"/>
      <point x="499" y="715"/>
      <point x="611" y="664"/>
      <point x="651" y="539" type="curve"/>
      <point x="578" y="539" type="line"/>
      <point x="546" y="621"/>
      <point x="457" y="656"/>
    </contour>
  </outline>
</glyph>
<glyph name="J" format="2">
  <advance width="557"/>
  <unicode hex="004A"/>
  <outline>
    <contour>
      <point x="115" y="179" type="line"/>
      <point x="126" y="91"/>
      <point x="178" y="51"/>
      <point x="265" y="51" type="curve" smooth="yes"/>
      <point x="385" y="51"/>
      <point x="405" y="140"/>
      <point x="405" y="241" type="curve" smooth="yes"/>
      <point x="405" y="707" type="line"/>
      <point x="470" y="707" type="line"/>
      <point x="470" y="239" type="line" smooth="yes"/>
      <point x="470" y="114"/>
      <point x="430" y="-8"/>
      <point x="260" y="-8" type="curve" smooth="yes"/>
      <point x="139" y="-8"/>
      <point x="62" y="47"/>
      <point x="47" y="179" type="curve"/>
    </contour>
  </outline>
</glyph>
<glyph name="L" format="2">
  <advance width="602"/>
  <unicode hex="004C"/>
  <outline>
    <contour>
      <point x="92" y="0" type="line"/>
      <point x="92" y="707" type="line"/>
      <point x="157" y="707" type="line"/>
      <point x="157" y="60" type="line"/>
      <point x="557" y="60" type="line"/>
      <point x="557" y="0" type="line"/>
    </contour>
  </outline>
</glyph>
<glyph name="N" format="2">
  <advance width="748"/>
  <unicode hex="004E"/>
  <outline>
    <contour>
      <point x="92" y="0" type="line"/>
      <point x="92" y="707" type="line"/>
      <point x="193" y="707" type="line"/>
      <point x="591" y="64" type="line"/>
      <point x="591" y="707" type="line"/>
      <point x="656" y="707" type="line"/>
      <point x="656" y="0" type="line"/>
      <point x="557" y="0" type="line"/>
      <point x="157" y="641" type="line"/>
      <point x="157" y="0" type="line"/>
    </contour>
  </outline>
</glyph>
<glyph name="P" format="2">
  <advance width="631"/>
  <unicode hex="0050"/>
  <outline>
    <contour>
      <point x="92" y="707" type="line"/>
      <point x="332" y="707" type="line" smooth="yes"/>
      <point x="485" y="707"/>
      <point x="577" y="635"/>
      <point x="577" y="476" type="curve" smooth="yes"/>
      <point x="577" y="316"/>
      <point x="461" y="241"/>
      <point x="312" y="241" type="curve" smooth="yes"/>
      <point x="157" y="241" type="line"/>
      <point x="157" y="0" type="line"/>
      <point x="92" y="0" type="line"/>
    </contour>
    <contour>
      <point x="310" y="301" type="line" smooth="yes"/>
      <point x="430" y="301"/>
      <point x="510" y="354"/>
      <point x="510" y="480" type="curve" smooth="yes"/>
      <point x="510" y="600"/>
      <point x="440" y="647"/>
      <point x="327" y="647" type="curve" smooth="yes"/>
      <point x="157" y="647" type="line"/>
      <point x="157" y="301" type="line"/>
    </contour>
  </outline>
</glyph>
<glyph name="Q" format="2">
  <advance width="767"/>
  <unicode hex="0051"/>
  <outline>
    <contour>
      <point x="384" y="-8" type="curve" smooth="yes"/>
      <point x="165" y="-8"/>
      <point x="53" y="145"/>
      <point x="53" y="353" type="curve" smooth="yes"/>
      <point x="53" y="561"/>
      <point x="165" y="715"/>
      <point x="384" y="715" type="curve" smooth="yes"/>
      <point x="602" y="715"/>
      <point x="714" y="560"/>
      <point x="714" y="353" type="curve" smooth="yes"/>
      <point x="714" y="228"/>
      <point x="673" y="122"/>
      <point x="592" y="58" type="curve"/>
      <point x="700" y="-92" type="line"/>
      <point x="647" y="-131" type="line"/>
      <point x="536" y="23" type="line"/>
      <point x="491" y="2"/>
      <point x="441" y="-8"/>
    </contour>
    <contour>
      <point x="384" y="656" type="curve" smooth="yes"/>
      <point x="204" y="656"/>
      <point x="119" y="518"/>
      <point x="119" y="353" type="curve" smooth="yes"/>
      <point x="119" y="188"/>
      <point x="206" y="51"/>
      <point x="384" y="51" type="curve" smooth="yes"/>
      <point x="564" y="51"/>
      <point x="647" y="185"/>
      <point x="647" y="353" type="curve" smooth="yes"/>
      <point x="647" y="518"/>
      <point x="563" y="656"/>
    </contour>
  </outline>
</glyph>
<glyph name="T" format="2">
  <advance width="571"/>
  <unicode hex="0054"/>
  <outline>
    <contour>
      <point x="552" y="647" type="line"/>
      <point x="318" y="647" type="line"/>
      <point x="318" y="0" type="line"/>
      <point x="253" y="0" type="line"/>
      <point x="253" y="647" type="line"/>
      <point x="19" y="647" type="line"/>
      <point x="19" y="707" type="line"/>
      <point x="552" y="707" type="line"/>
    </contour>
  </outline>
</glyph>
<glyph name="V" format="2">
  <advance width="663"/>
  <unicode hex="0056"/>
  <outline>
    <contour>
      <point x="333" y="60" type="line"/>
      <point x="571" y="707" type="line"/>
      <point x="644" y="707" type="line"/>
      <point x="378" y="0" type="line"/>
      <point x="286" y="0" type="line"/>
      <point x="19" y="707" type="line"/>
      <point x="93" y="707" type="line"/>
    </contour>
  </outline>
</glyph>
<glyph name="W" format="2">
  <advance width="953"/>
  <unicode hex="0057"/>
  <outline>
    <contour>
      <point x="211" y="0" type="line"/>
      <point x="19" y="707" type="line"/>
      <point x="94" y="707" type="line"/>
      <point x="262" y="60" type="line"/>
      <point x="425" y="707" type="line"/>
      <point x="530" y="707" type="line"/>
      <point x="692" y="60" type="line"/>
      <point x="860" y="707" type="line"/>
      <point x="934" y="707" type="line"/>
      <point x="742" y="0" type="line"/>
      <point x="641" y="0" type="line"/>
      <point x="476" y="648" type="line"/>
      <point x="313" y="0" type="line"/>
    </contour>
  </outline>
</glyph>
<glyph name="X" format="2">
  <advance width="581"/>
  <unicode hex="0058"/>
  <outline>
    <contour>
      <point x="472" y="707" type="line"/>
      <point x="553" y="707" type="line"/>
      <point x="333" y="357" type="line"/>
      <point x="562" y="0" type="line"/>
      <point x="481" y="0" type="line"/>
      <point x="290" y="303" type="line"/>
      <point x="98" y="0" type="line"/>
      <point x="19" y="0" type="line"/>
      <point x="247" y="354" type="line"/>
      <point x="26" y="707" type="line"/>
      <point x="108" y="707" type="line"/>
      <point x="290" y="407" type="line"/>
    </contour>
  </outline>
</glyph>
<glyph name="Y" format="2">
  <advance width="603"/>
  <unicode hex="0059"/>
  <outline>
    <contour>
      <point x="509" y="707" type="line"/>
      <point x="584" y="707" type="line"/>
      <point x="335" y="267" type="line"/>
      <point x="335" y="0" type="line"/>
      <point x="270" y="0" type="line"/>
      <point x="270" y="267" type="line"/>
      <point x="19" y="707" type="line"/>
      <point x="96" y="707" type="line"/>
      <point x="304" y="334" type="line"/>
    </contour>
  </outline>
</glyph>
<glyph name="Z" format="2">
  <advance width="599"/>
  <unicode hex="005A"/>
  <outline>
    <contour>
      <point x="63" y="647" type="line"/>
      <point x="63" y="707" type="line"/>
      <point x="550" y="707" type="line"/>
      <point x="550" y="651" type="line"/>
      <point x="127" y="60" type="line"/>
      <point x="545" y="60" type="line"/>
      <point x="545" y="0" type="line"/>
      <point x="49" y="0" type="line"/>
      <point x="49" y="57" type="line"/>
      <point x="466" y="647" type="line"/>
    </contour>
  </outline>
</glyph>
<glyph name="bracketleft" format="2">
  <advance width="317"/>
  <unicode hex="005B"/>
  <outline>
    <contour>
      <point x="92" y="-191" type="line"/>
      <point x="92" y="793" type="line"/>
      <point x="277" y="793" type="line"/>
      <point x="277" y="737" type="line"/>
      <point x="157" y="737" type="line"/>
      <point x="157" y="-135" type="line"/>
      <point x="277" y="-135" type="line"/>
      <point x="277" y="-191" type="line"/>
    </contour>
  </outline>
</glyph>
<glyph name="backslash" format="2">
  <advance width="470"/>
  <unicode hex="005C"/>
  <outline>
    <contour>
      <point x="114" y="804" type="line"/>
      <point x="426" y="-173" type="line"/>
      <point x="356" y="-173" type="line"/>
      <point x="44" y="804" type="line"/>
    </contour>
  </outline>
</glyph>
<glyph name="bracketright" format="2">
  <advance width="316"/>
  <unicode hex="005D"/>
  <outline>
    <contour>
      <point x="224" y="793" type="line"/>
      <point x="224" y="-191" type="line"/>
      <point x="40" y="-191" type="line"/>
      <point x="40" y="-135" type="line"/>
      <point x="159" y="-135" type="line"/>
      <point x="159" y="737" type="line"/>
      <point x="40" y="737" type="line"/>
      <point x="40" y="793" type="line"/>
    </contour>
  </outline>
</glyph>
<glyph name="asciicircum" format="2">
  <advance width="433"/>
  <unicode hex="005E"/>
  <outline>
    <contour>
      <point x="216" y="663" type="line"/>
      <point x="126" y="528" type="line"/>
      <point x="64" y="528" type="line"/>
      <point x="195" y="715" type="line"/>
      <point x="238" y="715" type="line"/>
      <point x="369" y="528" type="line"/>
      <point x="308" y="528" type="line"/>
    </contour>
  </outline>
</glyph>
<glyph name="underscore" format="2">
  <advance width="463"/>
  <unicode hex="005F"/>
  <outline>
    <contour>
      <point x="2" y="-122" type="line"/>
      <point x="461" y="-122" type="line"/>
      <point x="461" y="-182" type="line"/>
      <point x="2" y="-182" type="line"/>
    </contour>
  </outline>
</glyph>
<glyph name="grave" format="2">
  <advance width="320"/>
  <unicode hex="0060"/>
  <outline>
    <contour>
      <point x="122" y="769" type="line"/>
      <point x="206" y="628" type="line"/>
      <point x="151" y="628" type="line"/>
      <point x="54" y="769" type="line"/>
    </contour>
  </outline>
</glyph>
<glyph name="a" format="2">
  <advance width="563"/>
  <unicode hex="0061"/>
  <outline>
    <contour>
      <point x="430" y="76" type="line"/>
      <point x="379" y="15"/>
      <point x="314" y="-6"/>
      <point x="237" y="-6" type="curve" smooth="yes"/>
      <point x="145" y="-6"/>
      <point x="54" y="41"/>
      <point x="54" y="145" type="curve" smooth="yes"/>
      <point x="54" y="265"/>
      <point x="151" y="301"/>
      <point x="254" y="301" type="curve" smooth="yes"/>
      <point x="427" y="301" type="line"/>
      <point x="427" y="397"/>
      <point x="390" y="477"/>
      <point x="283" y="477" type="curve" smooth="yes"/>
      <point x="232" y="477"/>
      <point x="177" y="463"/>
      <point x="152" y="414" type="curve"/>
      <point x="80" y="414" type="line"/>
      <point x="104" y="502"/>
      <point x="200" y="533"/>
      <point x="285" y="533" type="curve" smooth="yes"/>
      <point x="441" y="533"/>
      <point x="493" y="424"/>
      <point x="493" y="286" type="curve" smooth="yes"/>
      <point x="493" y="0" type="line"/>
      <point x="439" y="0" type="line"/>
    </contour>
    <contour>
      <point x="288" y="248" type="line" smooth="yes"/>
      <point x="219" y="248"/>
      <point x="120" y="244"/>
      <point x="120" y="152" type="curve" smooth="yes"/>
      <point x="120" y="81"/>
      <point x="181" y="49"/>
      <point x="245" y="49" type="curve" smooth="yes"/>
      <point x="350" y="49"/>
      <point x="427" y="103"/>
      <point x="427" y="212" type="curve" smooth="yes"/>
      <point x="427" y="248" type="line"/>
    </contour>
  </outline>
</glyph>
<glyph name="b" format="2">
  <advance width="613"/>
  <unicode hex="0062"/>
  <outline>
    <contour>
      <point x="136" y="0" type="line"/>
      <point x="72" y="0" type="line"/>
      <point x="72" y="707" type="line"/>
      <point x="138" y="707" type="line"/>
      <point x="138" y="441" type="line"/>
      <point x="181" y="506"/>
      <point x="251" y="536"/>
      <point x="331" y="536" type="curve" smooth="yes"/>
      <point x="497" y="536"/>
      <point x="560" y="406"/>
      <point x="560" y="256" type="curve" smooth="yes"/>
      <point x="560" y="165"/>
      <point x="530" y="86"/>
      <point x="470" y="41" type="curve" smooth="yes"/>
      <point x="434" y="13"/>
      <point x="383" y="-5"/>
      <point x="323" y="-5" type="curve" smooth="yes"/>
      <point x="257" y="-5"/>
      <point x="180" y="14"/>
      <point x="137" y="78" type="curve"/>
    </contour>
    <contour>
      <point x="319" y="50" type="curve" smooth="yes"/>
      <point x="443" y="50"/>
      <point x="494" y="149"/>
      <point x="494" y="262" type="curve" smooth="yes"/>
      <point x="494" y="378"/>
      <point x="447" y="477"/>
      <point x="317" y="477" type="curve" smooth="yes"/>
      <point x="260" y="477"/>
      <point x="210" y="448"/>
      <point x="179" y="407" type="curve" smooth="yes"/>
      <point x="148" y="368"/>
      <point x="136" y="317"/>
      <point x="136" y="262" type="curve" smooth="yes"/>
      <point x="136" y="197"/>
      <point x="155" y="126"/>
      <point x="210" y="85" type="curve" smooth="yes"/>
      <point x="241" y="62"/>
      <point x="278" y="50"/>
    </contour>
  </outline>
</glyph>
<glyph name="d" format="2">
  <advance width="613"/>
  <unicode hex="0064"/>
  <outline>
    <contour>
      <point x="475" y="707" type="line"/>
      <point x="541" y="707" type="line"/>
      <point x="541" y="0" type="line"/>
      <point x="475" y="0" type="line"/>
      <point x="475" y="83" type="line"/>
      <point x="431" y="23"/>
      <point x="362" y="-6"/>
      <point x="282" y="-6" type="curve" smooth="yes"/>
      <point x="123" y="-6"/>
      <point x="53" y="118"/>
      <point x="53" y="268" type="curve" smooth="yes"/>
      <point x="53" y="414"/>
      <point x="142" y="533"/>
      <point x="295" y="533" type="curve" smooth="yes"/>
      <point x="365" y="533"/>
      <point x="435" y="510"/>
      <point x="475" y="449" type="curve"/>
    </contour>
    <contour>
      <point x="294" y="477" type="curve" smooth="yes"/>
      <point x="170" y="477"/>
      <point x="119" y="376"/>
      <point x="119" y="265" type="curve" smooth="yes"/>
      <point x="119" y="149"/>
      <point x="166" y="50"/>
      <point x="296" y="50" type="curve" smooth="yes"/>
      <point x="417" y="50"/>
      <point x="477" y="156"/>
      <point x="477" y="265" type="curve" smooth="yes"/>
      <point x="477" y="380"/>
      <point x="416" y="477"/>
    </contour>
  </outline>
</glyph>
<glyph name="f" format="2">
  <advance width="366"/>
  <unicode hex="0066"/>
  <outline>
    <contour>
      <point x="126" y="472" type="line"/>
      <point x="37" y="472" type="line"/>
      <point x="37" y="527" type="line"/>
      <point x="126" y="527" type="line"/>
      <point x="126" y="580" type="line" smooth="yes"/>
      <point x="126" y="629"/>
      <point x="128" y="666"/>
      <point x="145" y="697" type="curve" smooth="yes"/>
      <point x="169" y="740"/>
      <point x="208" y="762"/>
      <point x="288" y="762" type="curve" smooth="yes"/>
      <point x="339" y="762" type="line"/>
      <point x="339" y="707" type="line"/>
      <point x="295" y="707" type="line" smooth="yes"/>
      <point x="264" y="707"/>
      <point x="232" y="706"/>
      <point x="212" y="681" type="curve" smooth="yes"/>
      <point x="192" y="654"/>
      <point x="192" y="622"/>
      <point x="192" y="575" type="curve" smooth="yes"/>
      <point x="192" y="527" type="line"/>
      <point x="339" y="527" type="line"/>
      <point x="339" y="472" type="line"/>
      <point x="192" y="472" type="line"/>
      <point x="192" y="0" type="line"/>
      <point x="127" y="0" type="line"/>
      <point x="126" y="0" type="line"/>
    </contour>
  </outline>
</glyph>
<glyph name="h" format="2">
  <advance width="598"/>
  <unicode hex="0068"/>
  <outline>
    <contour>
      <point x="72" y="0" type="line"/>
      <point x="72" y="707" type="line"/>
      <point x="138" y="707" type="line"/>
      <point x="138" y="439" type="line"/>
      <point x="179" y="508"/>
      <point x="249" y="533"/>
      <point x="326" y="533" type="curve" smooth="yes"/>
      <point x="473" y="533"/>
      <point x="529" y="427"/>
      <point x="529" y="292" type="curve" smooth="yes"/>
      <point x="529" y="0" type="line"/>
      <point x="463" y="0" type="line"/>
      <point x="463" y="268" type="line" smooth="yes"/>
      <point x="463" y="371"/>
      <point x="444" y="477"/>
      <point x="319" y="477" type="curve" smooth="yes"/>
      <point x="198" y="477"/>
      <point x="138" y="375"/>
      <point x="138" y="265" type="curve" smooth="yes"/>
      <point x="138" y="0" type="line"/>
    </contour>
  </outline>
</glyph>
<glyph name="i" format="2">
  <advance width="227"/>
  <unicode hex="0069"/>
  <outline>
    <contour>
      <point x="113" y="717" type="curve" smooth="yes"/>
      <point x="142" y="717"/>
      <point x="163" y="698"/>
      <point x="163" y="669" type="curve" smooth="yes"/>
      <point x="163" y="638"/>
      <point x="142" y="620"/>
      <point x="113" y="620" type="curve" smooth="yes"/>
      <point x="84" y="620"/>
      <point x="64" y="638"/>
      <point x="64" y="669" type="curve" smooth="yes"/>
      <point x="64" y="700"/>
      <point x="84" y="717"/>
    </contour>
    <contour>
      <point x="80" y="527" type="line"/>
      <point x="146" y="527" type="line"/>
      <point x="146" y="0" type="line"/>
      <point x="80" y="0" type="line"/>
    </contour>
  </outline>
</glyph>
<glyph name="j" format="2">
  <advance width="251"/>
  <unicode hex="006A"/>
  <outline>
    <contour>
      <point x="137" y="717" type="curve" smooth="yes"/>
      <point x="168" y="717"/>
      <point x="187" y="698"/>
      <point x="187" y="669" type="curve" smooth="yes"/>
      <point x="187" y="638"/>
      <point x="168" y="620"/>
      <point x="137" y="620" type="curve" smooth="yes"/>
      <point x="108" y="620"/>
      <point x="88" y="638"/>
      <point x="88" y="669" type="curve" smooth="yes"/>
      <point x="88" y="700"/>
      <point x="108" y="717"/>
    </contour>
    <contour>
      <point x="171" y="0" type="line" smooth="yes"/>
      <point x="171" y="-52"/>
      <point x="169" y="-108"/>
      <point x="134" y="-148" type="curve" smooth="yes"/>
      <point x="110" y="-174"/>
      <point x="69" y="-187"/>
      <point x="10" y="-187" type="curve" smooth="yes"/>
      <point x="-26" y="-187" type="line"/>
      <point x="-26" y="-132" type="line"/>
      <point x="-1" y="-132" type="line" smooth="yes"/>
      <point x="26" y="-132"/>
      <point x="61" y="-127"/>
      <point x="80" y="-107" type="curve" smooth="yes"/>
      <point x="100" y="-87"/>
      <point x="105" y="-61"/>
      <point x="105" y="2" type="curve" smooth="yes"/>
      <point x="105" y="527" type="line"/>
      <point x="171" y="527" type="line"/>
    </contour>
  </outline>
</glyph>
<glyph name="k" format="2">
  <advance width="516"/>
  <unicode hex="006B"/>
  <outline>
    <contour>
      <point x="72" y="0" type="line"/>
      <point x="72" y="707" type="line"/>
      <point x="138" y="707" type="line"/>
      <point x="138" y="291" type="line"/>
      <point x="251" y="291" type="line"/>
      <point x="414" y="527" type="line"/>
      <point x="487" y="527" type="line"/>
      <point x="310" y="274" type="line"/>
      <point x="504" y="0" type="line"/>
      <point x="428" y="0" type="line"/>
      <point x="258" y="236" type="line"/>
      <point x="138" y="236" type="line"/>
      <point x="138" y="0" type="line"/>
    </contour>
  </outline>
</glyph>
<glyph name="l" format="2">
  <advance width="210"/>
  <unicode hex="006C"/>
  <outline>
    <contour>
      <point x="72" y="0" type="line"/>
      <point x="72" y="707" type="line"/>
      <point x="138" y="707" type="line"/>
      <point x="138" y="0" type="line"/>
    </contour>
  </outline>
</glyph>
<glyph name="m" format="2">
  <advance width="834"/>
  <unicode hex="006D"/>
  <outline>
    <contour>
      <point x="137" y="457" type="line"/>
      <point x="173" y="510"/>
      <point x="229" y="533"/>
      <point x="293" y="533" type="curve" smooth="yes"/>
      <point x="361" y="532"/>
      <point x="418" y="499"/>
      <point x="435" y="435" type="curve"/>
      <point x="460" y="505"/>
      <point x="529" y="533"/>
      <point x="601" y="533" type="curve" smooth="yes"/>
      <point x="714" y="533"/>
      <point x="767" y="460"/>
      <point x="767" y="348" type="curve" smooth="yes"/>
      <point x="767" y="0" type="line"/>
      <point x="701" y="0" type="line"/>
      <point x="701" y="306" type="line" smooth="yes"/>
      <point x="701" y="382"/>
      <point x="693" y="476"/>
      <point x="593" y="476" type="curve" smooth="yes"/>
      <point x="553" y="476"/>
      <point x="522" y="462"/>
      <point x="500" y="438" type="curve" smooth="yes"/>
      <point x="463" y="400"/>
      <point x="452" y="340"/>
      <point x="452" y="285" type="curve" smooth="yes"/>
      <point x="452" y="0" type="line"/>
      <point x="386" y="0" type="line"/>
      <point x="386" y="305" type="line" smooth="yes"/>
      <point x="386" y="386"/>
      <point x="377" y="477"/>
      <point x="276" y="476" type="curve" smooth="yes"/>
      <point x="225" y="476"/>
      <point x="184" y="445"/>
      <point x="161" y="401" type="curve" smooth="yes"/>
      <point x="141" y="362"/>
      <point x="138" y="318"/>
      <point x="138" y="270" type="curve" smooth="yes"/>
      <point x="138" y="0" type="line"/>
      <point x="72" y="0" type="line"/>
      <point x="72" y="527" type="line"/>
      <point x="135" y="527" type="line"/>
    </contour>
  </outline>
</glyph>
<glyph name="n" format="2">
  <advance width="598"/>
  <unicode hex="006E"/>
  <outline>
    <contour>
      <point x="72" y="0" type="line"/>
      <point x="72" y="527" type="line"/>
      <point x="136" y="527" type="line"/>
      <point x="138" y="437" type="line"/>
      <point x="179" y="506"/>
      <point x="251" y="533"/>
      <point x="328" y="533" type="curve" smooth="yes"/>
      <point x="476" y="533"/>
      <point x="529" y="427"/>
      <point x="529" y="292" type="curve" smooth="yes"/>
      <point x="529" y="0" type="line"/>
      <point x="463" y="0" type="line"/>
      <point x="463" y="268" type="line" smooth="yes"/>
      <point x="463" y="371"/>
      <point x="444" y="477"/>
      <point x="319" y="477" type="curve" smooth="yes"/>
      <point x="199" y="477"/>
      <point x="138" y="374"/>
      <point x="138" y="265" type="curve" smooth="yes"/>
      <point x="138" y="0" type="line"/>
    </contour>
  </outline>
</glyph>
<glyph name="p" format="2">
  <advance width="613"/>
  <unicode hex="0070"/>
  <outline>
    <contour>
      <point x="138" y="-197" type="line"/>
      <point x="72" y="-197" type="line"/>
      <point x="72" y="527" type="line"/>
      <point x="138" y="527" type="line"/>
      <point x="138" y="437" type="line"/>
      <point x="181" y="504"/>
      <point x="253" y="533"/>
      <point x="331" y="533" type="curve" smooth="yes"/>
      <point x="497" y="533"/>
      <point x="560" y="401"/>
      <point x="560" y="251" type="curve" smooth="yes"/>
      <point x="560" y="99"/>
      <point x="477" y="-6"/>
      <point x="323" y="-6" type="curve" smooth="yes"/>
      <point x="261" y="-6"/>
      <point x="181" y="11"/>
      <point x="138" y="76" type="curve"/>
    </contour>
    <contour>
      <point x="319" y="50" type="curve" smooth="yes"/>
      <point x="443" y="50"/>
      <point x="494" y="149"/>
      <point x="494" y="262" type="curve" smooth="yes"/>
      <point x="494" y="378"/>
      <point x="447" y="477"/>
      <point x="317" y="477" type="curve" smooth="yes"/>
      <point x="197" y="477"/>
      <point x="136" y="368"/>
      <point x="136" y="261" type="curve" smooth="yes"/>
      <point x="136" y="142"/>
      <point x="194" y="50"/>
    </contour>
  </outline>
</glyph>
<glyph name="q" format="2">
  <advance width="613"/>
  <unicode hex="0071"/>
  <outline>
    <contour>
      <point x="479" y="527" type="line"/>
      <point x="541" y="527" type="line"/>
      <point x="541" y="-197" type="line"/>
      <point x="475" y="-197" type="line"/>
      <point x="475" y="82" type="line"/>
      <point x="434" y="21"/>
      <point x="354" y="-6"/>
      <point x="282" y="-6" type="curve" smooth="yes"/>
      <point x="117" y="-6"/>
      <point x="49" y="127"/>
      <point x="53" y="277" type="curve" smooth="yes"/>
      <point x="57" y="423"/>
      <point x="143" y="533"/>
      <point x="294" y="533" type="curve" smooth="yes"/>
      <point x="365" y="533"/>
      <point x="433" y="510"/>
      <point x="475" y="449" type="curve"/>
    </contour>
    <contour>
      <point x="295" y="477" type="curve" smooth="yes"/>
      <point x="171" y="477"/>
      <point x="119" y="376"/>
      <point x="119" y="265" type="curve" smooth="yes"/>
      <point x="119" y="149"/>
      <point x="166" y="50"/>
      <point x="296" y="50" type="curve" smooth="yes"/>
      <point x="355" y="50"/>
      <point x="403" y="79"/>
      <point x="434" y="119" type="curve" smooth="yes"/>
      <point x="465" y="159"/>
      <point x="477" y="210"/>
      <point x="477" y="265" type="curve" smooth="yes"/>
      <point x="477" y="382"/>
      <point x="419" y="477"/>
    </contour>
  </outline>
</glyph>
<glyph name="v" format="2">
  <advance width="524"/>
  <unicode hex="0076"/>
  <outline>
    <contour>
      <point x="12" y="527" type="line"/>
      <point x="87" y="527" type="line"/>
      <point x="262" y="55" type="line"/>
      <point x="436" y="527" type="line"/>
      <point x="512" y="527" type="line"/>
      <point x="308" y="0" type="line"/>
      <point x="215" y="0" type="line"/>
    </contour>
  </outline>
</glyph>
<glyph name="w" format="2">
  <advance width="819"/>
  <unicode hex="0077"/>
  <outline>
    <contour>
      <point x="596" y="55" type="line"/>
      <point x="727" y="527" type="line"/>
      <point x="802" y="527" type="line"/>
      <point x="642" y="0" type="line"/>
      <point x="549" y="0" type="line"/>
      <point x="411" y="474" type="line"/>
      <point x="273" y="0" type="line"/>
      <point x="179" y="0" type="line"/>
      <point x="17" y="527" type="line"/>
      <point x="92" y="527" type="line"/>
      <point x="226" y="55" type="line"/>
      <point x="360" y="527" type="line"/>
      <point x="462" y="527" type="line"/>
    </contour>
  </outline>
</glyph>
<glyph name="x" format="2">
  <advance width="508"/>
  <unicode hex="0078"/>
  <outline>
    <contour>
      <point x="251" y="219" type="line"/>
      <point x="97" y="0" type="line"/>
      <point x="19" y="0" type="line"/>
      <point x="209" y="267" type="line"/>
      <point x="28" y="527" type="line"/>
      <point x="111" y="527" type="line"/>
      <point x="255" y="312" type="line"/>
      <point x="396" y="527" type="line"/>
      <point x="476" y="527" type="line"/>
      <point x="297" y="266" type="line"/>
      <point x="489" y="0" type="line"/>
      <point x="407" y="0" type="line"/>
    </contour>
  </outline>
</glyph>
<glyph name="braceleft" format="2">
  <advance width="384"/>
  <unicode hex="007B"/>
  <outline>
    <contour>
      <point x="204" y="-61" type="line" smooth="yes"/>
      <point x="204" y="-96"/>
      <point x="206" y="-112"/>
      <point x="219" y="-125" type="curve"/>
      <point x="232" y="-140"/>
      <point x="255" y="-140"/>
      <point x="291" y="-140" type="curve" smooth="yes"/>
      <point x="320" y="-140" type="line"/>
      <point x="320" y="-191" type="line"/>
      <point x="252" y="-191" type="line" smooth="yes"/>
      <point x="215" y="-191"/>
      <point x="188" y="-184"/>
      <point x="171" y="-169" type="curve" smooth="yes"/>
      <point x="152" y="-152"/>
      <point x="143" y="-126"/>
      <point x="143" y="-91" type="curve" smooth="yes"/>
      <point x="143" y="134" type="line" smooth="yes"/>
      <point x="143" y="208"/>
      <point x="129" y="273"/>
      <point x="42" y="278" type="curve"/>
      <point x="42" y="324" type="line"/>
      <point x="126" y="329"/>
      <point x="143" y="396"/>
      <point x="143" y="469" type="curve" smooth="yes"/>
      <point x="143" y="694" type="line" smooth="yes"/>
      <point x="143" y="729"/>
      <point x="152" y="755"/>
      <point x="170" y="771" type="curve"/>
      <point x="189" y="787"/>
      <point x="216" y="793"/>
      <point x="252" y="793" type="curve" smooth="yes"/>
      <point x="320" y="793" type="line"/>
      <point x="320" y="742" type="line"/>
      <point x="280" y="742" type="line" smooth="yes"/>
      <point x="257" y="742"/>
      <point x="232" y="744"/>
      <point x="217" y="727" type="curve" smooth="yes"/>
      <point x="202" y="710"/>
      <point x="204" y="673"/>
      <point x="204" y="652" type="curve" smooth="yes"/>
      <point x="204" y="440" type="line" smooth="yes"/>
      <point x="204" y="376"/>
      <point x="181" y="330"/>
      <point x="121" y="302" type="curve"/>
      <point x="184" y="273"/>
      <point x="204" y="229"/>
      <point x="204" y="162" type="curve" smooth="yes"/>
    </contour>
  </outline>
</glyph>
<glyph name="bar" format="2">
  <advance width="249"/>
  <unicode hex="007C"/>
  <outline>
    <contour>
      <point x="92" y="-173" type="line"/>
      <point x="92" y="804" type="line"/>
      <point x="157" y="804" type="line"/>
      <point x="157" y="-173" type="line"/>
    </contour>
  </outline>
</glyph>
<glyph name="braceright" format="2">
  <advance width="384"/>
  <unicode hex="007D"/>
  <outline>
    <contour>
      <point x="180" y="663" type="line" smooth="yes"/>
      <point x="180" y="696"/>
      <point x="177" y="714"/>
      <point x="165" y="727" type="curve"/>
      <point x="150" y="742"/>
      <point x="129" y="742"/>
      <point x="92" y="742" type="curve" smooth="yes"/>
      <point x="64" y="742" type="line"/>
      <point x="64" y="793" type="line"/>
      <point x="132" y="793" type="line" smooth="yes"/>
      <point x="169" y="793"/>
      <point x="195" y="786"/>
      <point x="212" y="771" type="curve" smooth="yes"/>
      <point x="231" y="755"/>
      <point x="241" y="729"/>
      <point x="241" y="693" type="curve" smooth="yes"/>
      <point x="241" y="468" type="line" smooth="yes"/>
      <point x="241" y="394"/>
      <point x="254" y="329"/>
      <point x="342" y="324" type="curve"/>
      <point x="342" y="278" type="line"/>
      <point x="258" y="273"/>
      <point x="241" y="206"/>
      <point x="241" y="133" type="curve" smooth="yes"/>
      <point x="241" y="-92" type="line" smooth="yes"/>
      <point x="241" y="-129"/>
      <point x="231" y="-155"/>
      <point x="212" y="-170" type="curve" smooth="yes"/>
      <point x="194" y="-184"/>
      <point x="167" y="-191"/>
      <point x="132" y="-191" type="curve" smooth="yes"/>
      <point x="64" y="-191" type="line"/>
      <point x="64" y="-140" type="line"/>
      <point x="104" y="-140" type="line" smooth="yes"/>
      <point x="127" y="-140"/>
      <point x="154" y="-141"/>
      <point x="167" y="-125" type="curve" smooth="yes"/>
      <point x="182" y="-106"/>
      <point x="180" y="-89"/>
      <point x="180" y="-54" type="curve" smooth="yes"/>
      <point x="180" y="162" type="line" smooth="yes"/>
      <point x="180" y="226"/>
      <point x="203" y="272"/>
      <point x="263" y="300" type="curve"/>
      <point x="200" y="329"/>
      <point x="180" y="373"/>
      <point x="180" y="440" type="curve" smooth="yes"/>
    </contour>
  </outline>
</glyph>
<glyph name="asciitilde" format="2">
  <advance width="639"/>
  <unicode hex="007E"/>
  <outline>
    <contour>
      <point x="223" y="443" type="curve" smooth="yes"/>
      <point x="316" y="443"/>
      <point x="357" y="330"/>
      <point x="420" y="330" type="curve" smooth="yes"/>
      <point x="471" y="330"/>
      <point x="477" y="385"/>
      <point x="480" y="426" type="curve"/>
      <point x="542" y="426" type="line"/>
      <point x="537" y="346"/>
      <point x="508" y="273"/>
      <point x="416" y="273" type="curve" smooth="yes"/>
      <point x="320" y="273"/>
      <point x="282" y="385"/>
      <point x="218" y="385" type="curve" smooth="yes"/>
      <point x="170" y="385"/>
      <point x="160" y="328"/>
      <point x="160" y="288" type="curve"/>
      <point x="97" y="288" type="line"/>
      <point x="100" y="368"/>
      <point x="132" y="443"/>
    </contour>
  </outline>
</glyph>
<glyph name="exclamdown" format="2">
  <advance width="263"/>
  <unicode hex="00A1"/>
  <outline>
    <contour>
      <point x="131" y="432" type="curve" smooth="yes"/>
      <point x="102" y="432"/>
      <point x="82" y="454"/>
      <point x="82" y="482" type="curve" smooth="yes"/>
      <point x="82" y="511"/>
      <point x="100" y="533"/>
      <point x="131" y="533" type="curve" smooth="yes"/>
      <point x="162" y="533"/>
      <point x="181" y="513"/>
      <point x="181" y="482" type="curve" smooth="yes"/>
      <point x="181" y="451"/>
      <point x="162" y="432"/>
    </contour>
    <contour>
      <point x="161" y="330" type="line"/>
      <point x="163" y="-182" type="line"/>
      <point x="99" y="-182" type="line"/>
      <point x="101" y="330" type="line"/>
    </contour>
  </outline>
</glyph>
<glyph name="cent" format="2">
  <advance width="588"/>
  <unicode hex="00A2"/>
  <outline>
    <contour>
      <point x="271" y="528" type="curve"/>
      <point x="271" y="670" type="line"/>
      <point x="336" y="670" type="line"/>
      <point x="336" y="530" type="line"/>
      <point x="424" y="523"/>
      <point x="493" y="478"/>
      <point x="517" y="389" type="curve"/>
      <point x="449" y="389" type="line"/>
      <point x="430" y="448"/>
      <point x="373" y="475"/>
      <point x="312" y="475" type="curve" smooth="yes"/>
      <point x="184" y="475"/>
      <point x="129" y="377"/>
      <point x="129" y="260" type="curve" smooth="yes"/>
      <point x="129" y="145"/>
      <point x="186" y="48"/>
      <point x="315" y="48" type="curve" smooth="yes"/>
      <point x="379" y="48"/>
      <point x="433" y="68"/>
      <point x="456" y="133" type="curve"/>
      <point x="524" y="133" type="line"/>
      <point x="500" y="42"/>
      <point x="421" y="1"/>
      <point x="336" y="-7" type="curve"/>
      <point x="336" y="-165" type="line"/>
      <point x="271" y="-165" type="line"/>
      <point x="271" y="-6" type="line"/>
      <point x="202" y="4"/>
      <point x="151" y="33"/>
      <point x="116" y="81" type="curve" smooth="yes"/>
      <point x="81" y="129"/>
      <point x="64" y="189"/>
      <point x="64" y="260" type="curve" smooth="yes"/>
      <point x="64" y="404"/>
      <point x="135" y="509"/>
    </contour>
  </outline>
</glyph>
<glyph name="sterling" format="2">
  <advance width="584"/>
  <unicode hex="00A3"/>
  <outline>
    <contour>
      <point x="426" y="365" type="line"/>
      <point x="426" y="307" type="line"/>
      <point x="212" y="307" type="line"/>
      <point x="212" y="60" type="line"/>
      <point x="520" y="60" type="line"/>
      <point x="520" y="0" type="line"/>
      <point x="64" y="0" type="line"/>
      <point x="64" y="60" type="line"/>
      <point x="149" y="60" type="line"/>
      <point x="149" y="307" type="line"/>
      <point x="64" y="307" type="line"/>
      <point x="64" y="367" type="line"/>
      <point x="149" y="367" type="line"/>
      <point x="149" y="525" type="line" smooth="yes"/>
      <point x="149" y="650"/>
      <point x="221" y="715"/>
      <point x="344" y="715" type="curve" smooth="yes"/>
      <point x="429" y="715"/>
      <point x="503" y="674"/>
      <point x="516" y="585" type="curve"/>
      <point x="452" y="585" type="line"/>
      <point x="439" y="636"/>
      <point x="392" y="656"/>
      <point x="345" y="656" type="curve" smooth="yes"/>
      <point x="253" y="656"/>
      <point x="212" y="610"/>
      <point x="212" y="518" type="curve" smooth="yes"/>
      <point x="212" y="367" type="line"/>
      <point x="426" y="367" type="line"/>
    </contour>
  </outline>
</glyph>
<glyph name="yen" format="2">
  <advance width="654"/>
  <unicode hex="00A5"/>
  <outline>
    <contour>
      <point x="534" y="707" type="line"/>
      <point x="610" y="707" type="line"/>
      <point x="386" y="312" type="line"/>
      <point x="507" y="312" type="line"/>
      <point x="507" y="253" type="line"/>
      <point x="359" y="253" type="line"/>
      <point x="359" y="157" type="line"/>
      <point x="507" y="157" type="line"/>
      <point x="507" y="98" type="line"/>
      <point x="359" y="98" type="line"/>
      <point x="359" y="0" type="line"/>
      <point x="294" y="0" type="line"/>
      <point x="294" y="98" type="line"/>
      <point x="145" y="98" type="line"/>
      <point x="145" y="157" type="line"/>
      <point x="294" y="157" type="line"/>
      <point x="294" y="253" type="line"/>
      <point x="145" y="253" type="line"/>
      <point x="145" y="312" type="line"/>
      <point x="268" y="312" type="line"/>
      <point x="44" y="707" type="line"/>
      <point x="120" y="707" type="line"/>
      <point x="329" y="330" type="line"/>
    </contour>
  </outline>
</glyph>
<glyph name="section" format="2">
  <advance width="548"/>
  <unicode hex="00A7"/>
  <outline>
    <contour>
      <point x="276" y="661" type="curve"/>
      <point x="243" y="662"/>
      <point x="215" y="658"/>
      <point x="189" y="646" type="curve" smooth="yes"/>
      <point x="163" y="634"/>
      <point x="143" y="612"/>
      <point x="143" y="576" type="curve" smooth="yes"/>
      <point x="143" y="535"/>
      <point x="178" y="511"/>
      <point x="214" y="502" type="curve" smooth="yes"/>
      <point x="265" y="488"/>
      <point x="308" y="478"/>
      <point x="359" y="465" type="curve" smooth="yes"/>
      <point x="427" y="449"/>
      <point x="484" y="421"/>
      <point x="481" y="343" type="curve" smooth="yes"/>
      <point x="480" y="298"/>
      <point x="461" y="263"/>
      <point x="423" y="238" type="curve"/>
      <point x="463" y="221"/>
      <point x="483" y="187"/>
      <point x="483" y="136" type="curve" smooth="yes"/>
      <point x="483" y="24"/>
      <point x="381" y="-8"/>
      <point x="288" y="-8" type="curve" smooth="yes"/>
      <point x="193" y="-8"/>
      <point x="91" y="19"/>
      <point x="64" y="123" type="curve"/>
      <point x="131" y="123" type="line"/>
      <point x="155" y="67"/>
      <point x="227" y="47"/>
      <point x="279" y="47" type="curve" smooth="yes"/>
      <point x="331" y="47"/>
      <point x="420" y="53"/>
      <point x="420" y="130" type="curve" smooth="yes"/>
      <point x="420" y="183"/>
      <point x="372" y="201"/>
      <point x="328" y="209" type="curve" smooth="yes"/>
      <point x="285" y="217"/>
      <point x="244" y="225"/>
      <point x="205" y="233" type="curve" smooth="yes"/>
      <point x="128" y="248"/>
      <point x="74" y="289"/>
      <point x="74" y="366" type="curve" smooth="yes"/>
      <point x="74" y="413"/>
      <point x="98" y="457"/>
      <point x="137" y="481" type="curve"/>
      <point x="102" y="501"/>
      <point x="84" y="532"/>
      <point x="84" y="574" type="curve" smooth="yes"/>
      <point x="84" y="684"/>
      <point x="185" y="715"/>
      <point x="278" y="715" type="curve" smooth="yes"/>
      <point x="361" y="715"/>
      <point x="451" y="682"/>
      <point x="464" y="591" type="curve"/>
      <point x="405" y="591" type="line"/>
      <point x="392" y="644"/>
      <point x="328" y="661"/>
    </contour>
    <contour>
      <point x="185" y="451" type="curve"/>
      <point x="154" y="431"/>
      <point x="136" y="401"/>
      <point x="136" y="370" type="curve" smooth="yes"/>
      <point x="136" y="308"/>
      <point x="206" y="295"/>
      <point x="252" y="284" type="curve" smooth="yes"/>
      <point x="291" y="275"/>
      <point x="329" y="271"/>
      <point x="369" y="264" type="curve"/>
      <point x="392" y="275"/>
      <point x="421" y="300"/>
      <point x="421" y="336" type="curve" smooth="yes"/>
      <point x="421" y="375"/>
      <point x="392" y="398"/>
      <point x="357" y="408" type="curve" smooth="yes"/>
      <point x="294" y="426"/>
      <point x="242" y="432"/>
    </contour>
  </outline>
</glyph>
<glyph name="dieresis" format="2">
  <advance width="563"/>
  <unicode hex="00A8"/>
  <outline>
    <contour>
      <point x="390" y="707" type="curve" smooth="yes"/>
      <point x="421" y="707"/>
      <point x="441" y="685"/>
      <point x="441" y="656" type="curve" smooth="yes"/>
      <point x="441" y="628"/>
      <point x="422" y="605"/>
      <point x="390" y="605" type="curve" smooth="yes"/>
      <point x="359" y="605"/>
      <point x="340" y="628"/>
      <point x="340" y="656" type="curve" smooth="yes"/>
      <point x="340" y="685"/>
      <point x="359" y="707"/>
    </contour>
    <contour>
      <point x="172" y="707" type="curve" smooth="yes"/>
      <point x="203" y="707"/>
      <point x="223" y="685"/>
      <point x="223" y="656" type="curve" smooth="yes"/>
      <point x="223" y="628"/>
      <point x="204" y="605"/>
      <point x="172" y="605" type="curve" smooth="yes"/>
      <point x="141" y="605"/>
      <point x="122" y="628"/>
      <point x="122" y="656" type="curve" smooth="yes"/>
      <point x="122" y="685"/>
      <point x="141" y="707"/>
    </contour>
  </outline>
</glyph>
<glyph name="copyright" format="2">
  <advance width="938"/>
  <unicode hex="00A9"/>
  <outline>
    <contour>
      <point x="469" y="715" type="curve" smooth="yes"/>
      <point x="717" y="715"/>
      <point x="874" y="540"/>
      <point x="874" y="294" type="curve" smooth="yes"/>
      <point x="874" y="49"/>
      <point x="722" y="-125"/>
      <point x="469" y="-125" type="curve" smooth="yes"/>
      <point x="216" y="-125"/>
      <point x="64" y="49"/>
      <point x="64" y="294" type="curve" smooth="yes"/>
      <point x="64" y="540"/>
      <point x="221" y="715"/>
    </contour>
    <contour>
      <point x="469" y="654" type="curve" smooth="yes"/>
      <point x="257" y="654"/>
      <point x="129" y="502"/>
      <point x="129" y="294" type="curve" smooth="yes"/>
      <point x="129" y="88"/>
      <point x="256" y="-65"/>
      <point x="469" y="-65" type="curve" smooth="yes"/>
      <point x="683" y="-65"/>
      <point x="809" y="90"/>
      <point x="809" y="294" type="curve" smooth="yes"/>
      <point x="809" y="499"/>
      <point x="682" y="654"/>
    </contour>
    <contour>
      <point x="481" y="84" type="curve" smooth="yes"/>
      <point x="353" y="84"/>
      <point x="290" y="174"/>
      <point x="290" y="295" type="curve" smooth="yes"/>
      <point x="290" y="412"/>
      <point x="353" y="506"/>
      <point x="483" y="506" type="curve" smooth="yes"/>
      <point x="564" y="506"/>
      <point x="627" y="472"/>
      <point x="646" y="387" type="curve"/>
      <point x="587" y="387" type="line"/>
      <point x="572" y="434"/>
      <point x="533" y="451"/>
      <point x="485" y="451" type="curve" smooth="yes"/>
      <point x="386" y="451"/>
      <point x="351" y="379"/>
      <point x="351" y="295" type="curve" smooth="yes"/>
      <point x="351" y="211"/>
      <point x="390" y="139"/>
      <point x="482" y="139" type="curve" smooth="yes"/>
      <point x="529" y="139"/>
      <point x="573" y="154"/>
      <point x="589" y="202" type="curve"/>
      <point x="651" y="202" type="line"/>
      <point x="628" y="121"/>
      <point x="562" y="84"/>
    </contour>
  </outline>
</glyph>
<glyph name="ordfeminine" format="2">
  <advance width="362"/>
  <unicode hex="00AA"/>
  <outline>
    <contour>
      <point x="259" y="424" type="line"/>
      <point x="253" y="461" type="line"/>
      <point x="231" y="435"/>
      <point x="199" y="421"/>
      <point x="158" y="421" type="curve" smooth="yes"/>
      <point x="104" y="420"/>
      <point x="55" y="447"/>
      <point x="55" y="507" type="curve" smooth="yes"/>
      <point x="55" y="574"/>
      <point x="109" y="593"/>
      <point x="167" y="593" type="curve" smooth="yes"/>
      <point x="250" y="593" type="line"/>
      <point x="247" y="640"/>
      <point x="234" y="670"/>
      <point x="182" y="673" type="curve" smooth="yes"/>
      <point x="157" y="674"/>
      <point x="129" y="668"/>
      <point x="118" y="641" type="curve"/>
      <point x="66" y="641" type="line"/>
      <point x="81" y="697"/>
      <point x="127" y="718"/>
      <point x="182" y="718" type="curve" smooth="yes"/>
      <point x="270" y="718"/>
      <point x="297" y="660"/>
      <point x="297" y="581" type="curve" smooth="yes"/>
      <point x="297" y="424" type="line"/>
    </contour>
    <contour>
      <point x="162" y="465" type="curve" smooth="yes"/>
      <point x="221" y="466"/>
      <point x="250" y="495"/>
      <point x="250" y="554" type="curve"/>
      <point x="190" y="554" type="line" smooth="yes"/>
      <point x="157" y="554"/>
      <point x="103" y="556"/>
      <point x="103" y="511" type="curve" smooth="yes"/>
      <point x="103" y="476"/>
      <point x="135" y="465"/>
    </contour>
  </outline>
</glyph>
<glyph name="guillemotleft" format="2">
  <advance width="466"/>
  <unicode hex="00AB"/>
  <outline>
    <contour>
      <point x="402" y="93" type="line"/>
      <point x="337" y="93" type="line"/>
      <point x="225" y="260" type="line"/>
      <point x="337" y="429" type="line"/>
      <point x="402" y="429" type="line"/>
      <point x="291" y="261" type="line"/>
    </contour>
    <contour>
      <point x="221" y="93" type="line"/>
      <point x="156" y="93" type="line"/>
      <point x="44" y="260" type="line"/>
      <point x="156" y="429" type="line"/>
      <point x="221" y="429" type="line"/>
      <point x="110" y="261" type="line"/>
    </contour>
  </outline>
</glyph>
<glyph name="uni00AD" format="2">
  <advance width="453"/>
  <unicode hex="00AD"/>
  <outline>
    <contour>
      <point x="79" y="311" type="line"/>
      <point x="374" y="311" type="line"/>
      <point x="374" y="251" type="line"/>
      <point x="79" y="251" type="line"/>
    </contour>
  </outline>
</glyph>
<glyph name="registered" format="2">
  <advance width="482"/>
  <unicode hex="00AE"/>
  <outline>
    <contour>
      <point x="242" y="745" type="curve" smooth="yes"/>
      <point x="355" y="745"/>
      <point x="425" y="669"/>
      <point x="425" y="558" type="curve" smooth="yes"/>
      <point x="425" y="446"/>
      <point x="354" y="377"/>
      <point x="242" y="377" type="curve" smooth="yes"/>
      <point x="130" y="377"/>
      <point x="57" y="445"/>
      <point x="57" y="558" type="curve" smooth="yes"/>
      <point x="57" y="670"/>
      <point x="129" y="745"/>
    </contour>
    <contour>
      <point x="242" y="711" type="curve" smooth="yes"/>
      <point x="150" y="711"/>
      <point x="94" y="649"/>
      <point x="94" y="558" type="curve" smooth="yes"/>
      <point x="94" y="467"/>
      <point x="150" y="412"/>
      <point x="242" y="412" type="curve" smooth="yes"/>
      <point x="333" y="412"/>
      <point x="387" y="467"/>
      <point x="387" y="558" type="curve" smooth="yes"/>
      <point x="387" y="649"/>
      <point x="334" y="711"/>
    </contour>
    <contour>
      <point x="288" y="471" type="line"/>
      <point x="243" y="540" type="line"/>
      <point x="206" y="540" type="line"/>
      <point x="206" y="471" type="line"/>
      <point x="175" y="471" type="line"/>
      <point x="175" y="656" type="line"/>
      <point x="254" y="656" type="line" smooth="yes"/>
      <point x="293" y="656"/>
      <point x="319" y="640"/>
      <point x="319" y="599" type="curve" smooth="yes"/>
      <point x="319" y="568"/>
      <point x="302" y="551"/>
      <point x="278" y="543" type="curve"/>
      <point x="326" y="471" type="line"/>
    </contour>
    <contour>
      <point x="206" y="625" type="line"/>
      <point x="206" y="568" type="line"/>
      <point x="251" y="568" type="line" smooth="yes"/>
      <point x="270" y="568"/>
      <point x="287" y="575"/>
      <point x="287" y="598" type="curve" smooth="yes"/>
      <point x="287" y="618"/>
      <point x="272" y="625"/>
      <point x="253" y="625" type="curve" smooth="yes"/>
    </contour>
  </outline>
</glyph>
<glyph name="macron" format="2">
  <advance width="563"/>
  <unicode hex="00AF"/>
  <outline>
    <contour>
      <point x="122" y="707" type="line"/>
      <point x="441" y="707" type="line"/>
      <point x="441" y="652" type="line"/>
      <point x="122" y="652" type="line"/>
    </contour>
  </outline>
</glyph>
<glyph name="degree" format="2">
  <advance width="367"/>
  <unicode hex="00B0"/>
  <outline>
    <contour>
      <point x="184" y="617" type="curve" smooth="yes"/>
      <point x="235" y="617"/>
      <point x="264" y="652"/>
      <point x="264" y="701" type="curve" smooth="yes"/>
      <point x="264" y="750"/>
      <point x="235" y="786"/>
      <point x="184" y="786" type="curve" smooth="yes"/>
      <point x="133" y="786"/>
      <point x="103" y="750"/>
      <point x="103" y="701" type="curve" smooth="yes"/>
      <point x="103" y="650"/>
      <point x="133" y="617"/>
    </contour>
    <contour>
      <point x="184" y="581" type="curve" smooth="yes"/>
      <point x="108" y="581"/>
      <point x="64" y="629"/>
      <point x="64" y="701" type="curve" smooth="yes"/>
      <point x="64" y="772"/>
      <point x="110" y="821"/>
      <point x="185" y="821" type="curve" smooth="yes"/>
      <point x="260" y="821"/>
      <point x="303" y="770"/>
      <point x="303" y="701" type="curve" smooth="yes"/>
      <point x="303" y="630"/>
      <point x="259" y="581"/>
    </contour>
  </outline>
</glyph>
<glyph name="plusminus" format="2">
  <advance width="508"/>
  <unicode hex="00B1"/>
  <outline>
    <contour>
      <point x="285" y="620" type="line"/>
      <point x="285" y="463" type="line"/>
      <point x="434" y="463" type="line"/>
      <point x="434" y="403" type="line"/>
      <point x="285" y="403" type="line"/>
      <point x="285" y="251" type="line"/>
      <point x="220" y="251" type="line"/>
      <point x="220" y="403" type="line"/>
      <point x="74" y="403" type="line"/>
      <point x="74" y="463" type="line"/>
      <point x="220" y="463" type="line"/>
      <point x="220" y="620" type="line"/>
    </contour>
    <contour>
      <point x="434" y="201" type="line"/>
      <point x="434" y="141" type="line"/>
      <point x="74" y="141" type="line"/>
      <point x="74" y="201" type="line"/>
    </contour>
  </outline>
</glyph>
<glyph name="twosuperior" format="2">
  <advance width="357"/>
  <unicode hex="00B2"/>
  <outline>
    <contour>
      <point x="156" y="549" type="line" smooth="yes"/>
      <point x="186" y="574"/>
      <point x="239" y="614"/>
      <point x="240" y="661" type="curve" smooth="yes"/>
      <point x="240" y="700"/>
      <point x="218" y="720"/>
      <point x="179" y="720" type="curve" smooth="yes"/>
      <point x="152" y="720"/>
      <point x="127" y="709"/>
      <point x="120" y="680" type="curve"/>
      <point x="63" y="680" type="line"/>
      <point x="71" y="743"/>
      <point x="124" y="772"/>
      <point x="183" y="772" type="curve" smooth="yes"/>
      <point x="246" y="772"/>
      <point x="297" y="735"/>
      <point x="297" y="668" type="curve" smooth="yes"/>
      <point x="297" y="600"/>
      <point x="247" y="560"/>
      <point x="199" y="520" type="curve" smooth="yes"/>
      <point x="179" y="503"/>
      <point x="157" y="487"/>
      <point x="138" y="470" type="curve"/>
      <point x="297" y="470" type="line"/>
      <point x="297" y="419" type="line"/>
      <point x="60" y="419" type="line"/>
      <point x="60" y="466" type="line"/>
    </contour>
  </outline>
</glyph>
<glyph name="threesuperior" format="2">
  <advance width="378"/>
  <unicode hex="00B3"/>
  <outline>
    <contour>
      <point x="191" y="415" type="curve" smooth="yes"/>
      <point x="130" y="415"/>
      <point x="65" y="441"/>
      <point x="60" y="508" type="curve"/>
      <point x="118" y="508" type="line"/>
      <point x="129" y="476"/>
      <point x="160" y="466"/>
      <point x="191" y="466" type="curve" smooth="yes"/>
      <point x="227" y="466"/>
      <point x="261" y="478"/>
      <point x="261" y="521" type="curve" smooth="yes"/>
      <point x="261" y="563"/>
      <point x="224" y="571"/>
      <point x="189" y="571" type="curve" smooth="yes"/>
      <point x="156" y="571" type="line"/>
      <point x="156" y="620" type="line"/>
      <point x="177" y="620" type="line" smooth="yes"/>
      <point x="210" y="620"/>
      <point x="248" y="631"/>
      <point x="248" y="670" type="curve" smooth="yes"/>
      <point x="248" y="707"/>
      <point x="221" y="720"/>
      <point x="188" y="720" type="curve" smooth="yes"/>
      <point x="160" y="720"/>
      <point x="134" y="710"/>
      <point x="127" y="679" type="curve"/>
      <point x="71" y="679" type="line"/>
      <point x="79" y="744"/>
      <point x="132" y="772"/>
      <point x="193" y="772" type="curve" smooth="yes"/>
      <point x="249" y="772"/>
      <point x="304" y="743"/>
      <point x="304" y="680" type="curve" smooth="yes"/>
      <point x="304" y="645"/>
      <point x="288" y="620"/>
      <point x="257" y="605" type="curve"/>
      <point x="298" y="594"/>
      <point x="318" y="565"/>
      <point x="318" y="522" type="curve" smooth="yes"/>
      <point x="318" y="446"/>
      <point x="259" y="415"/>
    </contour>
  </outline>
</glyph>
<glyph name="acute" format="2">
  <advance width="322"/>
  <unicode hex="00B4"/>
  <outline>
    <contour>
      <point x="200" y="769" type="line"/>
      <point x="268" y="769" type="line"/>
      <point x="169" y="628" type="line"/>
      <point x="114" y="628" type="line"/>
    </contour>
  </outline>
</glyph>
<glyph name="paragraph" format="2">
  <advance width="562"/>
  <unicode hex="00B6"/>
  <outline>
    <contour>
      <point x="450" y="647" type="line"/>
      <point x="450" y="0" type="line"/>
      <point x="385" y="0" type="line"/>
      <point x="385" y="647" type="line"/>
      <point x="291" y="647" type="line"/>
      <point x="291" y="0" type="line"/>
      <point x="226" y="0" type="line"/>
      <point x="226" y="400" type="line"/>
      <point x="182" y="400" type="line" smooth="yes"/>
      <point x="111" y="400"/>
      <point x="30" y="437"/>
      <point x="30" y="555" type="curve" smooth="yes"/>
      <point x="30" y="658"/>
      <point x="107" y="707"/>
      <point x="187" y="707" type="curve" smooth="yes"/>
      <point x="532" y="707" type="line"/>
      <point x="532" y="647" type="line"/>
    </contour>
  </outline>
</glyph>
<glyph name="periodcentered" format="2">
  <advance width="243"/>
  <unicode hex="00B7"/>
  <outline>
    <contour>
      <point x="122" y="402" type="curve" smooth="yes"/>
      <point x="151" y="402"/>
      <point x="171" y="385"/>
      <point x="171" y="354" type="curve" smooth="yes"/>
      <point x="171" y="323"/>
      <point x="152" y="305"/>
      <point x="121" y="305" type="curve" smooth="yes"/>
      <point x="90" y="305"/>
      <point x="72" y="323"/>
      <point x="72" y="354" type="curve" smooth="yes"/>
      <point x="72" y="383"/>
      <point x="91" y="402"/>
    </contour>
  </outline>
</glyph>
<glyph name="cedilla" format="2">
  <advance width="593"/>
  <unicode hex="00B8"/>
  <outline>
    <contour>
      <point x="278" y="-80" type="line"/>
      <point x="308" y="-75"/>
      <point x="334" y="-77"/>
      <point x="355" y="-89" type="curve" smooth="yes"/>
      <point x="376" y="-101"/>
      <point x="387" y="-125"/>
      <point x="387" y="-157" type="curve" smooth="yes"/>
      <point x="387" y="-248"/>
      <point x="296" y="-273"/>
      <point x="222" y="-262" type="curve"/>
      <point x="222" y="-222" type="line"/>
      <point x="245" y="-225"/>
      <point x="273" y="-223"/>
      <point x="296" y="-215" type="curve" smooth="yes"/>
      <point x="319" y="-207"/>
      <point x="337" y="-192"/>
      <point x="336" y="-159" type="curve" smooth="yes"/>
      <point x="336" y="-130"/>
      <point x="316" y="-117"/>
      <point x="285" y="-117" type="curve" smooth="yes"/>
      <point x="268" y="-117"/>
      <point x="241" y="-120"/>
      <point x="225" y="-124" type="curve"/>
      <point x="254" y="7" type="line"/>
      <point x="298" y="7" type="line"/>
    </contour>
  </outline>
</glyph>
<glyph name="ordmasculine" format="2">
  <advance width="383"/>
  <unicode hex="00BA"/>
  <outline>
    <contour>
      <point x="318" y="569" type="curve" smooth="yes"/>
      <point x="318" y="486"/>
      <point x="279" y="421"/>
      <point x="191" y="421" type="curve" smooth="yes"/>
      <point x="100" y="421"/>
      <point x="65" y="488"/>
      <point x="65" y="569" type="curve" smooth="yes"/>
      <point x="65" y="650"/>
      <point x="100" y="718"/>
      <point x="191" y="718" type="curve" smooth="yes"/>
      <point x="279" y="718"/>
      <point x="318" y="650"/>
    </contour>
    <contour>
      <point x="116" y="569" type="curve" smooth="yes"/>
      <point x="116" y="518"/>
      <point x="132" y="466"/>
      <point x="191" y="466" type="curve" smooth="yes"/>
      <point x="250" y="466"/>
      <point x="266" y="518"/>
      <point x="266" y="569" type="curve" smooth="yes"/>
      <point x="266" y="620"/>
      <point x="250" y="672"/>
      <point x="191" y="672" type="curve" smooth="yes"/>
      <point x="132" y="672"/>
      <point x="116" y="620"/>
    </contour>
  </outline>
</glyph>
<glyph name="guillemotright" format="2">
  <advance width="466"/>
  <unicode hex="00BB"/>
  <outline>
    <contour>
      <point x="64" y="429" type="line"/>
      <point x="129" y="429" type="line"/>
      <point x="241" y="262" type="line"/>
      <point x="129" y="93" type="line"/>
      <point x="64" y="93" type="line"/>
      <point x="175" y="261" type="line"/>
    </contour>
    <contour>
      <point x="245" y="429" type="line"/>
      <point x="310" y="429" type="line"/>
      <point x="422" y="262" type="line"/>
      <point x="310" y="93" type="line"/>
      <point x="245" y="93" type="line"/>
      <point x="356" y="261" type="line"/>
    </contour>
  </outline>
</glyph>
<glyph name="questiondown" format="2">
  <advance width="510"/>
  <unicode hex="00BF"/>
  <outline>
    <contour>
      <point x="279" y="431" type="curve" smooth="yes"/>
      <point x="248" y="431"/>
      <point x="228" y="450"/>
      <point x="228" y="481" type="curve" smooth="yes"/>
      <point x="228" y="512"/>
      <point x="248" y="533"/>
      <point x="279" y="533" type="curve" smooth="yes"/>
      <point x="310" y="533"/>
      <point x="329" y="512"/>
      <point x="329" y="481" type="curve" smooth="yes"/>
      <point x="329" y="450"/>
      <point x="310" y="431"/>
    </contour>
    <contour>
      <point x="312" y="309" type="line"/>
      <point x="315" y="277"/>
      <point x="306" y="243"/>
      <point x="289" y="216" type="curve" smooth="yes"/>
      <point x="261" y="173"/>
      <point x="221" y="142"/>
      <point x="186" y="107" type="curve" smooth="yes"/>
      <point x="154" y="74"/>
      <point x="125" y="34"/>
      <point x="125" y="-14" type="curve" smooth="yes"/>
      <point x="125" y="-91"/>
      <point x="187" y="-131"/>
      <point x="259" y="-131" type="curve" smooth="yes"/>
      <point x="317" y="-131"/>
      <point x="381" y="-112"/>
      <point x="399" y="-49" type="curve"/>
      <point x="467" y="-49" type="line"/>
      <point x="448" y="-148"/>
      <point x="350" y="-190"/>
      <point x="259" y="-190" type="curve" smooth="yes"/>
      <point x="151" y="-190"/>
      <point x="60" y="-134"/>
      <point x="60" y="-18" type="curve" smooth="yes"/>
      <point x="60" y="59"/>
      <point x="102" y="108"/>
      <point x="156" y="160" type="curve"/>
      <point x="178" y="180"/>
      <point x="199" y="202"/>
      <point x="218" y="225" type="curve"/>
      <point x="239" y="252"/>
      <point x="242" y="276"/>
      <point x="245" y="309" type="curve"/>
    </contour>
  </outline>
</glyph>
<glyph name="Agrave" format="2">
  <advance width="648"/>
  <unicode hex="00C0"/>
  <outline>
    <contour>
      <point x="146" y="157" type="line"/>
      <point x="88" y="0" type="line"/>
      <point x="15" y="0" type="line"/>
      <point x="279" y="707" type="line"/>
      <point x="370" y="707" type="line"/>
      <point x="633" y="0" type="line"/>
      <point x="560" y="0" type="line"/>
      <point x="502" y="157" type="line"/>
    </contour>
    <contour>
      <point x="168" y="217" type="line"/>
      <point x="481" y="217" type="line"/>
      <point x="324" y="646" type="line"/>
    </contour>
    <contour>
      <point x="277" y="927" type="line"/>
      <point x="361" y="786" type="line"/>
      <point x="306" y="786" type="line"/>
      <point x="209" y="927" type="line"/>
    </contour>
  </outline>
</glyph>
<glyph name="Aacute" format="2">
  <advance width="648"/>
  <unicode hex="00C1"/>
  <outline>
    <contour>
      <point x="146" y="157" type="line"/>
      <point x="88" y="0" type="line"/>
      <point x="15" y="0" type="line"/>
      <point x="279" y="707" type="line"/>
      <point x="370" y="707" type="line"/>
      <point x="633" y="0" type="line"/>
      <point x="560" y="0" type="line"/>
      <point x="502" y="157" type="line"/>
    </contour>
    <contour>
      <point x="168" y="217" type="line"/>
      <point x="481" y="217" type="line"/>
      <point x="324" y="646" type="line"/>
    </contour>
    <contour>
      <point x="375" y="927" type="line"/>
      <point x="443" y="927" type="line"/>
      <point x="344" y="786" type="line"/>
      <point x="289" y="786" type="line"/>
    </contour>
  </outline>
</glyph>
<glyph name="Acircumflex" format="2">
  <advance width="648"/>
  <unicode hex="00C2"/>
  <outline>
    <contour>
      <point x="146" y="157" type="line"/>
      <point x="88" y="0" type="line"/>
      <point x="15" y="0" type="line"/>
      <point x="279" y="707" type="line"/>
      <point x="370" y="707" type="line"/>
      <point x="633" y="0" type="line"/>
      <point x="560" y="0" type="line"/>
      <point x="502" y="157" type="line"/>
    </contour>
    <contour>
      <point x="168" y="217" type="line"/>
      <point x="481" y="217" type="line"/>
      <point x="324" y="646" type="line"/>
    </contour>
    <contour>
      <point x="325" y="879" type="line"/>
      <point x="247" y="786" type="line"/>
      <point x="182" y="786" type="line"/>
      <point x="305" y="927" type="line"/>
      <point x="346" y="927" type="line"/>
      <point x="469" y="786" type="line"/>
      <point x="405" y="786" type="line"/>
    </contour>
  </outline>
</glyph>
<glyph name="Atilde" format="2">
  <advance width="648"/>
  <unicode hex="00C3"/>
  <outline>
    <contour>
      <point x="146" y="157" type="line"/>
      <point x="88" y="0" type="line"/>
      <point x="15" y="0" type="line"/>
      <point x="279" y="707" type="line"/>
      <point x="370" y="707" type="line"/>
      <point x="633" y="0" type="line"/>
      <point x="560" y="0" type="line"/>
      <point x="502" y="157" type="line"/>
    </contour>
    <contour>
      <point x="168" y="217" type="line"/>
      <point x="481" y="217" type="line"/>
      <point x="324" y="646" type="line"/>
    </contour>
    <contour>
      <point x="492" y="927" type="line"/>
      <point x="492" y="863"/>
      <point x="468" y="806"/>
      <point x="394" y="806" type="curve" smooth="yes"/>
      <point x="328" y="806"/>
      <point x="299" y="881"/>
      <point x="261" y="881" type="curve" smooth="yes"/>
      <point x="225" y="881"/>
      <point x="221" y="836"/>
      <point x="221" y="809" type="curve"/>
      <point x="165" y="809" type="line"/>
      <point x="162" y="876"/>
      <point x="188" y="930"/>
      <point x="262" y="930" type="curve" smooth="yes"/>
      <point x="327" y="930"/>
      <point x="355" y="854"/>
      <point x="395" y="854" type="curve" smooth="yes"/>
      <point x="432" y="854"/>
      <point x="435" y="899"/>
      <point x="435" y="927" type="curve"/>
    </contour>
  </outline>
</glyph>
<glyph name="Adieresis" format="2">
  <advance width="648"/>
  <unicode hex="00C4"/>
  <outline>
    <contour>
      <point x="209" y="900" type="curve" smooth="yes"/>
      <point x="236" y="900"/>
      <point x="256" y="882"/>
      <point x="256" y="854" type="curve" smooth="yes"/>
      <point x="256" y="823"/>
      <point x="240" y="805"/>
      <point x="209" y="805" type="curve" smooth="yes"/>
      <point x="178" y="805"/>
      <point x="161" y="823"/>
      <point x="161" y="854" type="curve" smooth="yes"/>
      <point x="161" y="882"/>
      <point x="182" y="900"/>
    </contour>
    <contour>
      <point x="448" y="900" type="curve" smooth="yes"/>
      <point x="475" y="900"/>
      <point x="495" y="882"/>
      <point x="495" y="854" type="curve" smooth="yes"/>
      <point x="495" y="823"/>
      <point x="479" y="805"/>
      <point x="448" y="805" type="curve" smooth="yes"/>
      <point x="417" y="805"/>
      <point x="401" y="823"/>
      <point x="401" y="854" type="curve" smooth="yes"/>
      <point x="401" y="882"/>
      <point x="421" y="900"/>
    </contour>
    <contour>
      <point x="146" y="157" type="line"/>
      <point x="88" y="0" type="line"/>
      <point x="15" y="0" type="line"/>
      <point x="279" y="707" type="line"/>
      <point x="370" y="707" type="line"/>
      <point x="633" y="0" type="line"/>
      <point x="560" y="0" type="line"/>
      <point x="502" y="157" type="line"/>
    </contour>
    <contour>
      <point x="168" y="217" type="line"/>
      <point x="481" y="217" type="line"/>
      <point x="324" y="646" type="line"/>
    </contour>
  </outline>
</glyph>
<glyph name="Aring" format="2">
  <advance width="648"/>
  <unicode hex="00C5"/>
  <outline>
    <contour>
      <point x="146" y="157" type="line"/>
      <point x="88" y="0" type="line"/>
      <point x="15" y="0" type="line"/>
      <point x="279" y="707" type="line"/>
      <point x="370" y="707" type="line"/>
      <point x="633" y="0" type="line"/>
      <point x="560" y="0" type="line"/>
      <point x="502" y="157" type="line"/>
    </contour>
    <contour>
      <point x="168" y="217" type="line"/>
      <point x="481" y="217" type="line"/>
      <point x="324" y="646" type="line"/>
    </contour>
    <contour>
      <point x="323" y="804" type="curve" smooth="yes"/>
      <point x="355" y="804"/>
      <point x="373" y="824"/>
      <point x="373" y="855" type="curve" smooth="yes"/>
      <point x="373" y="886"/>
      <point x="355" y="907"/>
      <point x="323" y="907" type="curve" smooth="yes"/>
      <point x="292" y="907"/>
      <point x="274" y="886"/>
      <point x="274" y="855" type="curve" smooth="yes"/>
      <point x="274" y="824"/>
      <point x="292" y="804"/>
    </contour>
    <contour>
      <point x="324" y="949" type="curve" smooth="yes"/>
      <point x="381" y="949"/>
      <point x="418" y="910"/>
      <point x="418" y="854" type="curve" smooth="yes"/>
      <point x="418" y="798"/>
      <point x="379" y="764"/>
      <point x="323" y="764" type="curve" smooth="yes"/>
      <point x="267" y="764"/>
      <point x="230" y="798"/>
      <point x="230" y="854" type="curve" smooth="yes"/>
      <point x="230" y="910"/>
      <point x="268" y="949"/>
    </contour>
  </outline>
</glyph>
<glyph name="AE" format="2">
  <advance width="913"/>
  <unicode hex="00C6"/>
  <outline>
    <contour>
      <point x="433" y="157" type="line"/>
      <point x="173" y="157" type="line"/>
      <point x="92" y="0" type="line"/>
      <point x="15" y="0" type="line"/>
      <point x="388" y="707" type="line"/>
      <point x="860" y="707" type="line"/>
      <point x="860" y="647" type="line"/>
      <point x="498" y="647" type="line"/>
      <point x="498" y="381" type="line"/>
      <point x="820" y="381" type="line"/>
      <point x="820" y="321" type="line"/>
      <point x="498" y="321" type="line"/>
      <point x="498" y="60" type="line"/>
      <point x="860" y="60" type="line"/>
      <point x="860" y="0" type="line"/>
      <point x="433" y="0" type="line"/>
    </contour>
    <contour>
      <point x="204" y="217" type="line"/>
      <point x="433" y="217" type="line"/>
      <point x="433" y="647" type="line"/>
      <point x="427" y="647" type="line"/>
    </contour>
  </outline>
</glyph>
<glyph name="Ccedilla" format="2">
  <advance width="711"/>
  <unicode hex="00C7"/>
  <outline>
    <contour>
      <point x="377" y="656" type="curve" smooth="yes"/>
      <point x="197" y="656"/>
      <point x="120" y="518"/>
      <point x="120" y="355" type="curve" smooth="yes"/>
      <point x="120" y="191"/>
      <point x="199" y="51"/>
      <point x="380" y="51" type="curve" smooth="yes"/>
      <point x="463" y="51"/>
      <point x="553" y="85"/>
      <point x="585" y="168" type="curve"/>
      <point x="658" y="168" type="line"/>
      <point x="618" y="49"/>
      <point x="509" y="-4"/>
      <point x="391" y="-7" type="curve"/>
      <point x="376" y="-80" type="line"/>
      <point x="436" y="-68"/>
      <point x="485" y="-92"/>
      <point x="485" y="-157" type="curve" smooth="yes"/>
      <point x="485" y="-248"/>
      <point x="394" y="-273"/>
      <point x="320" y="-262" type="curve"/>
      <point x="320" y="-222" type="line"/>
      <point x="365" y="-227"/>
      <point x="434" y="-219"/>
      <point x="434" y="-161" type="curve" smooth="yes"/>
      <point x="434" y="-129"/>
      <point x="411" y="-117"/>
      <point x="383" y="-117" type="curve" smooth="yes"/>
      <point x="362" y="-117"/>
      <point x="339" y="-120"/>
      <point x="323" y="-124" type="curve"/>
      <point x="347" y="-7" type="line"/>
      <point x="146" y="6"/>
      <point x="53" y="155"/>
      <point x="53" y="353" type="curve" smooth="yes"/>
      <point x="53" y="559"/>
      <point x="159" y="715"/>
      <point x="378" y="715" type="curve" smooth="yes"/>
      <point x="502" y="715"/>
      <point x="608" y="664"/>
      <point x="645" y="539" type="curve"/>
      <point x="579" y="539" type="line"/>
      <point x="547" y="622"/>
      <point x="460" y="656"/>
    </contour>
  </outline>
</glyph>
<glyph name="Egrave" format="2">
  <advance width="610"/>
  <unicode hex="00C8"/>
  <outline>
    <contour>
      <point x="92" y="707" type="line"/>
      <point x="557" y="707" type="line"/>
      <point x="557" y="647" type="line"/>
      <point x="157" y="647" type="line"/>
      <point x="157" y="381" type="line"/>
      <point x="517" y="381" type="line"/>
      <point x="517" y="321" type="line"/>
      <point x="157" y="321" type="line"/>
      <point x="157" y="60" type="line"/>
      <point x="557" y="60" type="line"/>
      <point x="557" y="0" type="line"/>
      <point x="92" y="0" type="line"/>
    </contour>
    <contour>
      <point x="296" y="927" type="line"/>
      <point x="380" y="786" type="line"/>
      <point x="325" y="786" type="line"/>
      <point x="228" y="927" type="line"/>
    </contour>
  </outline>
</glyph>
<glyph name="Eacute" format="2">
  <advance width="610"/>
  <unicode hex="00C9"/>
  <outline>
    <contour>
      <point x="92" y="707" type="line"/>
      <point x="557" y="707" type="line"/>
      <point x="557" y="647" type="line"/>
      <point x="157" y="647" type="line"/>
      <point x="157" y="381" type="line"/>
      <point x="517" y="381" type="line"/>
      <point x="517" y="321" type="line"/>
      <point x="157" y="321" type="line"/>
      <point x="157" y="60" type="line"/>
      <point x="557" y="60" type="line"/>
      <point x="557" y="0" type="line"/>
      <point x="92" y="0" type="line"/>
    </contour>
    <contour>
      <point x="354" y="927" type="line"/>
      <point x="422" y="927" type="line"/>
      <point x="323" y="786" type="line"/>
      <point x="268" y="786" type="line"/>
    </contour>
  </outline>
</glyph>
<glyph name="Ecircumflex" format="2">
  <advance width="610"/>
  <unicode hex="00CA"/>
  <outline>
    <contour>
      <point x="329" y="895" type="line"/>
      <point x="250" y="798" type="line"/>
      <point x="186" y="798" type="line"/>
      <point x="309" y="944" type="line"/>
      <point x="350" y="944" type="line"/>
      <point x="473" y="798" type="line"/>
      <point x="411" y="798" type="line"/>
    </contour>
    <contour>
      <point x="92" y="707" type="line"/>
      <point x="557" y="707" type="line"/>
      <point x="557" y="647" type="line"/>
      <point x="157" y="647" type="line"/>
      <point x="157" y="381" type="line"/>
      <point x="517" y="381" type="line"/>
      <point x="517" y="321" type="line"/>
      <point x="157" y="321" type="line"/>
      <point x="157" y="60" type="line"/>
      <point x="557" y="60" type="line"/>
      <point x="557" y="0" type="line"/>
      <point x="92" y="0" type="line"/>
    </contour>
  </outline>
</glyph>
<glyph name="Edieresis" format="2">
  <advance width="610"/>
  <unicode hex="00CB"/>
  <outline>
    <contour>
      <point x="92" y="707" type="line"/>
      <point x="557" y="707" type="line"/>
      <point x="557" y="647" type="line"/>
      <point x="157" y="647" type="line"/>
      <point x="157" y="381" type="line"/>
      <point x="517" y="381" type="line"/>
      <point x="517" y="321" type="line"/>
      <point x="157" y="321" type="line"/>
      <point x="157" y="60" type="line"/>
      <point x="557" y="60" type="line"/>
      <point x="557" y="0" type="line"/>
      <point x="92" y="0" type="line"/>
    </contour>
    <contour>
      <point x="218" y="900" type="curve" smooth="yes"/>
      <point x="245" y="900"/>
      <point x="268" y="880"/>
      <point x="268" y="852" type="curve" smooth="yes"/>
      <point x="268" y="824"/>
      <point x="245" y="804"/>
      <point x="218" y="804" type="curve" smooth="yes"/>
      <point x="191" y="804"/>
      <point x="169" y="825"/>
      <point x="169" y="852" type="curve" smooth="yes"/>
      <point x="169" y="879"/>
      <point x="191" y="900"/>
    </contour>
    <contour>
      <point x="444" y="900" type="curve" smooth="yes"/>
      <point x="471" y="900"/>
      <point x="494" y="880"/>
      <point x="494" y="852" type="curve" smooth="yes"/>
      <point x="494" y="824"/>
      <point x="471" y="804"/>
      <point x="444" y="804" type="curve" smooth="yes"/>
      <point x="417" y="804"/>
      <point x="396" y="825"/>
      <point x="396" y="852" type="curve" smooth="yes"/>
      <point x="396" y="879"/>
      <point x="417" y="900"/>
    </contour>
  </outline>
</glyph>
<glyph name="Igrave" format="2">
  <advance width="249"/>
  <unicode hex="00CC"/>
  <outline>
    <contour>
      <point x="157" y="0" type="line"/>
      <point x="92" y="0" type="line"/>
      <point x="92" y="707" type="line"/>
      <point x="157" y="707" type="line"/>
    </contour>
    <contour>
      <point x="78" y="949" type="line"/>
      <point x="162" y="808" type="line"/>
      <point x="107" y="808" type="line"/>
      <point x="10" y="949" type="line"/>
    </contour>
  </outline>
</glyph>
<glyph name="Iacute" format="2">
  <advance width="249"/>
  <unicode hex="00CD"/>
  <outline>
    <contour>
      <point x="157" y="0" type="line"/>
      <point x="92" y="0" type="line"/>
      <point x="92" y="707" type="line"/>
      <point x="157" y="707" type="line"/>
    </contour>
    <contour>
      <point x="175" y="949" type="line"/>
      <point x="243" y="949" type="line"/>
      <point x="144" y="808" type="line"/>
      <point x="89" y="808" type="line"/>
    </contour>
  </outline>
</glyph>
<glyph name="Icircumflex" format="2">
  <advance width="159"/>
  <unicode hex="00CE"/>
  <outline>
    <contour>
      <point x="79" y="897" type="line"/>
      <point x="0" y="800" type="line"/>
      <point x="-64" y="800" type="line"/>
      <point x="59" y="946" type="line"/>
      <point x="100" y="946" type="line"/>
      <point x="223" y="800" type="line"/>
      <point x="161" y="800" type="line"/>
    </contour>
    <contour>
      <point x="111" y="0" type="line"/>
      <point x="46" y="0" type="line"/>
      <point x="46" y="707" type="line"/>
      <point x="111" y="707" type="line"/>
    </contour>
  </outline>
</glyph>
<glyph name="Idieresis" format="2">
  <advance width="249"/>
  <unicode hex="00CF"/>
  <outline>
    <contour>
      <point x="157" y="0" type="line"/>
      <point x="92" y="0" type="line"/>
      <point x="92" y="707" type="line"/>
      <point x="157" y="707" type="line"/>
    </contour>
    <contour>
      <point x="31" y="900" type="curve" smooth="yes"/>
      <point x="58" y="900"/>
      <point x="81" y="880"/>
      <point x="81" y="852" type="curve" smooth="yes"/>
      <point x="81" y="824"/>
      <point x="58" y="804"/>
      <point x="31" y="804" type="curve" smooth="yes"/>
      <point x="4" y="804"/>
      <point x="-18" y="825"/>
      <point x="-18" y="852" type="curve" smooth="yes"/>
      <point x="-18" y="879"/>
      <point x="4" y="900"/>
    </contour>
    <contour>
      <point x="217" y="900" type="curve" smooth="yes"/>
      <point x="244" y="900"/>
      <point x="267" y="880"/>
      <point x="267" y="852" type="curve" smooth="yes"/>
      <point x="267" y="824"/>
      <point x="244" y="804"/>
      <point x="217" y="804" type="curve" smooth="yes"/>
      <point x="190" y="804"/>
      <point x="169" y="825"/>
      <point x="169" y="852" type="curve" smooth="yes"/>
      <point x="169" y="879"/>
      <point x="190" y="900"/>
    </contour>
  </outline>
</glyph>
<glyph name="Eth" format="2">
  <advance width="724"/>
  <unicode hex="00D0"/>
  <outline>
    <contour>
      <point x="157" y="381" type="line"/>
      <point x="326" y="381" type="line"/>
      <point x="326" y="321" type="line"/>
      <point x="157" y="321" type="line"/>
      <point x="157" y="59" type="line"/>
      <point x="332" y="59" type="line" smooth="yes"/>
      <point x="409" y="59"/>
      <point x="483" y="81"/>
      <point x="535" y="141" type="curve" smooth="yes"/>
      <point x="586" y="200"/>
      <point x="603" y="277"/>
      <point x="603" y="353" type="curve" smooth="yes"/>
      <point x="603" y="428"/>
      <point x="587" y="504"/>
      <point x="538" y="563" type="curve" smooth="yes"/>
      <point x="487" y="624"/>
      <point x="415" y="648"/>
      <point x="338" y="648" type="curve" smooth="yes"/>
      <point x="157" y="648" type="line"/>
    </contour>
    <contour>
      <point x="92" y="707" type="line"/>
      <point x="339" y="707" type="line" smooth="yes"/>
      <point x="434" y="707"/>
      <point x="523" y="681"/>
      <point x="587" y="609" type="curve" smooth="yes"/>
      <point x="650" y="540"/>
      <point x="670" y="445"/>
      <point x="670" y="353" type="curve" smooth="yes"/>
      <point x="670" y="261"/>
      <point x="649" y="169"/>
      <point x="586" y="98" type="curve" smooth="yes"/>
      <point x="522" y="26"/>
      <point x="432" y="0"/>
      <point x="339" y="0" type="curve" smooth="yes"/>
      <point x="92" y="0" type="line"/>
      <point x="92" y="321" type="line"/>
      <point x="7" y="321" type="line"/>
      <point x="7" y="381" type="line"/>
      <point x="92" y="381" type="line"/>
    </contour>
  </outline>
</glyph>
<glyph name="Ntilde" format="2">
  <advance width="748"/>
  <unicode hex="00D1"/>
  <outline>
    <contour>
      <point x="92" y="0" type="line"/>
      <point x="92" y="707" type="line"/>
      <point x="193" y="707" type="line"/>
      <point x="591" y="64" type="line"/>
      <point x="591" y="707" type="line"/>
      <point x="656" y="707" type="line"/>
      <point x="656" y="0" type="line"/>
      <point x="557" y="0" type="line"/>
      <point x="157" y="641" type="line"/>
      <point x="157" y="0" type="line"/>
    </contour>
    <contour>
      <point x="543" y="927" type="line"/>
      <point x="543" y="863"/>
      <point x="519" y="806"/>
      <point x="445" y="806" type="curve" smooth="yes"/>
      <point x="379" y="806"/>
      <point x="350" y="881"/>
      <point x="312" y="881" type="curve" smooth="yes"/>
      <point x="276" y="881"/>
      <point x="272" y="836"/>
      <point x="272" y="809" type="curve"/>
      <point x="216" y="809" type="line"/>
      <point x="213" y="876"/>
      <point x="239" y="930"/>
      <point x="313" y="930" type="curve" smooth="yes"/>
      <point x="378" y="930"/>
      <point x="406" y="854"/>
      <point x="446" y="854" type="curve" smooth="yes"/>
      <point x="483" y="854"/>
      <point x="486" y="899"/>
      <point x="486" y="927" type="curve"/>
    </contour>
  </outline>
</glyph>
<glyph name="Oacute" format="2">
  <advance width="767"/>
  <unicode hex="00D3"/>
  <outline>
    <contour>
      <point x="384" y="-8" type="curve" smooth="yes"/>
      <point x="165" y="-8"/>
      <point x="53" y="145"/>
      <point x="53" y="353" type="curve" smooth="yes"/>
      <point x="53" y="561"/>
      <point x="165" y="715"/>
      <point x="384" y="715" type="curve" smooth="yes"/>
      <point x="602" y="715"/>
      <point x="714" y="560"/>
      <point x="714" y="353" type="curve" smooth="yes"/>
      <point x="714" y="146"/>
      <point x="602" y="-8"/>
    </contour>
    <contour>
      <point x="384" y="656" type="curve" smooth="yes"/>
      <point x="204" y="656"/>
      <point x="119" y="518"/>
      <point x="119" y="353" type="curve" smooth="yes"/>
      <point x="119" y="188"/>
      <point x="206" y="51"/>
      <point x="384" y="51" type="curve" smooth="yes"/>
      <point x="564" y="51"/>
      <point x="647" y="185"/>
      <point x="647" y="353" type="curve" smooth="yes"/>
      <point x="647" y="518"/>
      <point x="563" y="656"/>
    </contour>
    <contour>
      <point x="425" y="927" type="line"/>
      <point x="493" y="927" type="line"/>
      <point x="394" y="786" type="line"/>
      <point x="339" y="786" type="line"/>
    </contour>
  </outline>
</glyph>
<glyph name="Ocircumflex" format="2">
  <advance width="767"/>
  <unicode hex="00D4"/>
  <outline>
    <contour>
      <point x="384" y="-8" type="curve" smooth="yes"/>
      <point x="165" y="-8"/>
      <point x="53" y="145"/>
      <point x="53" y="353" type="curve" smooth="yes"/>
      <point x="53" y="561"/>
      <point x="165" y="715"/>
      <point x="384" y="715" type="curve" smooth="yes"/>
      <point x="602" y="715"/>
      <point x="714" y="560"/>
      <point x="714" y="353" type="curve" smooth="yes"/>
      <point x="714" y="146"/>
      <point x="602" y="-8"/>
    </contour>
    <contour>
      <point x="384" y="656" type="curve" smooth="yes"/>
      <point x="204" y="656"/>
      <point x="119" y="518"/>
      <point x="119" y="353" type="curve" smooth="yes"/>
      <point x="119" y="188"/>
      <point x="206" y="51"/>
      <point x="384" y="51" type="curve" smooth="yes"/>
      <point x="564" y="51"/>
      <point x="647" y="185"/>
      <point x="647" y="353" type="curve" smooth="yes"/>
      <point x="647" y="518"/>
      <point x="563" y="656"/>
    </contour>
    <contour>
      <point x="383" y="879" type="line"/>
      <point x="305" y="786" type="line"/>
      <point x="240" y="786" type="line"/>
      <point x="363" y="927" type="line"/>
      <point x="404" y="927" type="line"/>
      <point x="527" y="786" type="line"/>
      <point x="463" y="786" type="line"/>
    </contour>
  </outline>
</glyph>
<glyph name="Otilde" format="2">
  <advance width="767"/>
  <unicode hex="00D5"/>
  <outline>
    <contour>
      <point x="384" y="-8" type="curve" smooth="yes"/>
      <point x="165" y="-8"/>
      <point x="53" y="145"/>
      <point x="53" y="353" type="curve" smooth="yes"/>
      <point x="53" y="561"/>
      <point x="165" y="715"/>
      <point x="384" y="715" type="curve" smooth="yes"/>
      <point x="602" y="715"/>
      <point x="714" y="560"/>
      <point x="714" y="353" type="curve" smooth="yes"/>
      <point x="714" y="146"/>
      <point x="602" y="-8"/>
    </contour>
    <contour>
      <point x="384" y="656" type="curve" smooth="yes"/>
      <point x="204" y="656"/>
      <point x="119" y="518"/>
      <point x="119" y="353" type="curve" smooth="yes"/>
      <point x="119" y="188"/>
      <point x="206" y="51"/>
      <point x="384" y="51" type="curve" smooth="yes"/>
      <point x="564" y="51"/>
      <point x="647" y="185"/>
      <point x="647" y="353" type="curve" smooth="yes"/>
      <point x="647" y="518"/>
      <point x="563" y="656"/>
    </contour>
    <contour>
      <point x="547" y="927" type="line"/>
      <point x="547" y="863"/>
      <point x="523" y="806"/>
      <point x="449" y="806" type="curve" smooth="yes"/>
      <point x="383" y="806"/>
      <point x="354" y="881"/>
      <point x="316" y="881" type="curve" smooth="yes"/>
      <point x="280" y="881"/>
      <point x="276" y="836"/>
      <point x="276" y="809" type="curve"/>
      <point x="220" y="809" type="line"/>
      <point x="217" y="876"/>
      <point x="243" y="930"/>
      <point x="317" y="930" type="curve" smooth="yes"/>
      <point x="382" y="930"/>
      <point x="410" y="854"/>
      <point x="450" y="854" type="curve" smooth="yes"/>
      <point x="487" y="854"/>
      <point x="490" y="899"/>
      <point x="490" y="927" type="curve"/>
    </contour>
  </outline>
</glyph>
<glyph name="Odieresis" format="2">
  <advance width="767"/>
  <unicode hex="00D6"/>
  <outline>
    <contour>
      <point x="267" y="900" type="curve" smooth="yes"/>
      <point x="294" y="900"/>
      <point x="314" y="882"/>
      <point x="314" y="854" type="curve" smooth="yes"/>
      <point x="314" y="823"/>
      <point x="298" y="805"/>
      <point x="267" y="805" type="curve" smooth="yes"/>
      <point x="236" y="805"/>
      <point x="219" y="823"/>
      <point x="219" y="854" type="curve" smooth="yes"/>
      <point x="219" y="882"/>
      <point x="240" y="900"/>
    </contour>
    <contour>
      <point x="506" y="900" type="curve" smooth="yes"/>
      <point x="533" y="900"/>
      <point x="553" y="882"/>
      <point x="553" y="854" type="curve" smooth="yes"/>
      <point x="553" y="823"/>
      <point x="537" y="805"/>
      <point x="506" y="805" type="curve" smooth="yes"/>
      <point x="475" y="805"/>
      <point x="459" y="823"/>
      <point x="459" y="854" type="curve" smooth="yes"/>
      <point x="459" y="882"/>
      <point x="479" y="900"/>
    </contour>
    <contour>
      <point x="384" y="-8" type="curve" smooth="yes"/>
      <point x="165" y="-8"/>
      <point x="53" y="145"/>
      <point x="53" y="353" type="curve" smooth="yes"/>
      <point x="53" y="561"/>
      <point x="165" y="715"/>
      <point x="384" y="715" type="curve" smooth="yes"/>
      <point x="602" y="715"/>
      <point x="714" y="560"/>
      <point x="714" y="353" type="curve" smooth="yes"/>
      <point x="714" y="146"/>
      <point x="602" y="-8"/>
    </contour>
    <contour>
      <point x="384" y="656" type="curve" smooth="yes"/>
      <point x="204" y="656"/>
      <point x="119" y="518"/>
      <point x="119" y="353" type="curve" smooth="yes"/>
      <point x="119" y="188"/>
      <point x="206" y="51"/>
      <point x="384" y="51" type="curve" smooth="yes"/>
      <point x="564" y="51"/>
      <point x="647" y="185"/>
      <point x="647" y="353" type="curve" smooth="yes"/>
      <point x="647" y="518"/>
      <point x="563" y="656"/>
    </contour>
  </outline>
</glyph>
<glyph name="multiply" format="2">
  <advance width="459"/>
  <unicode hex="00D7"/>
  <outline>
    <contour>
      <point x="230" y="316" type="line"/>
      <point x="88" y="174" type="line"/>
      <point x="50" y="212" type="line"/>
      <point x="193" y="353" type="line"/>
      <point x="50" y="495" type="line"/>
      <point x="88" y="533" type="line"/>
      <point x="230" y="390" type="line"/>
      <point x="371" y="533" type="line"/>
      <point x="409" y="495" type="line"/>
      <point x="267" y="353" type="line"/>
      <point x="409" y="212" type="line"/>
      <point x="371" y="174" type="line"/>
    </contour>
  </outline>
</glyph>
<glyph name="Oslash" format="2">
  <advance width="767"/>
  <unicode hex="00D8"/>
  <outline>
    <contour>
      <point x="238" y="92" type="curve"/>
      <point x="470" y="644" type="line"/>
      <point x="444" y="652"/>
      <point x="415" y="656"/>
      <point x="384" y="656" type="curve" smooth="yes"/>
      <point x="204" y="656"/>
      <point x="119" y="518"/>
      <point x="119" y="353" type="curve" smooth="yes"/>
      <point x="119" y="254"/>
      <point x="151" y="148"/>
    </contour>
    <contour>
      <point x="529" y="616" type="curve"/>
      <point x="297" y="63" type="line"/>
      <point x="323" y="55"/>
      <point x="352" y="51"/>
      <point x="384" y="51" type="curve" smooth="yes"/>
      <point x="564" y="51"/>
      <point x="647" y="185"/>
      <point x="647" y="353" type="curve" smooth="yes"/>
      <point x="647" y="452"/>
      <point x="614" y="557"/>
    </contour>
    <contour>
      <point x="384" y="-8" type="curve" smooth="yes"/>
      <point x="343" y="-8"/>
      <point x="306" y="-3"/>
      <point x="273" y="7" type="curve"/>
      <point x="225" y="-110" type="line"/>
      <point x="154" y="-110" type="line"/>
      <point x="213" y="32" type="line"/>
      <point x="95" y="96"/>
      <point x="53" y="226"/>
      <point x="53" y="353" type="curve" smooth="yes"/>
      <point x="53" y="560"/>
      <point x="165" y="715"/>
      <point x="384" y="715" type="curve" smooth="yes"/>
      <point x="423" y="715"/>
      <point x="460" y="710"/>
      <point x="493" y="700" type="curve"/>
      <point x="542" y="816" type="line"/>
      <point x="613" y="816" type="line"/>
      <point x="553" y="674" type="line"/>
      <point x="670" y="610"/>
      <point x="714" y="480"/>
      <point x="714" y="353" type="curve" smooth="yes"/>
      <point x="714" y="146"/>
      <point x="601" y="-8"/>
    </contour>
  </outline>
</glyph>
<glyph name="Ugrave" format="2">
  <advance width="722"/>
  <unicode hex="00D9"/>
  <outline>
    <contour>
      <point x="635" y="707" type="line"/>
      <point x="635" y="301" type="line" smooth="yes"/>
      <point x="635" y="121"/>
      <point x="554" y="-8"/>
      <point x="361" y="-8" type="curve" smooth="yes"/>
      <point x="168" y="-8"/>
      <point x="87" y="121"/>
      <point x="87" y="301" type="curve" smooth="yes"/>
      <point x="87" y="707" type="line"/>
      <point x="152" y="707" type="line"/>
      <point x="152" y="305" type="line" smooth="yes"/>
      <point x="152" y="163"/>
      <point x="207" y="51"/>
      <point x="362" y="51" type="curve" smooth="yes"/>
      <point x="518" y="51"/>
      <point x="570" y="165"/>
      <point x="570" y="305" type="curve" smooth="yes"/>
      <point x="570" y="707" type="line"/>
    </contour>
    <contour>
      <point x="321" y="927" type="line"/>
      <point x="405" y="786" type="line"/>
      <point x="350" y="786" type="line"/>
      <point x="253" y="927" type="line"/>
    </contour>
  </outline>
</glyph>
<glyph name="Ucircumflex" format="2">
  <advance width="722"/>
  <unicode hex="00DB"/>
  <outline>
    <contour>
      <point x="635" y="707" type="line"/>
      <point x="635" y="301" type="line" smooth="yes"/>
      <point x="635" y="121"/>
      <point x="554" y="-8"/>
      <point x="361" y="-8" type="curve" smooth="yes"/>
      <point x="168" y="-8"/>
      <point x="87" y="121"/>
      <point x="87" y="301" type="curve" smooth="yes"/>
      <point x="87" y="707" type="line"/>
      <point x="152" y="707" type="line"/>
      <point x="152" y="305" type="line" smooth="yes"/>
      <point x="152" y="163"/>
      <point x="207" y="51"/>
      <point x="362" y="51" type="curve" smooth="yes"/>
      <point x="518" y="51"/>
      <point x="570" y="165"/>
      <point x="570" y="305" type="curve" smooth="yes"/>
      <point x="570" y="707" type="line"/>
    </contour>
    <contour>
      <point x="360" y="879" type="line"/>
      <point x="282" y="786" type="line"/>
      <point x="217" y="786" type="line"/>
      <point x="340" y="927" type="line"/>
      <point x="381" y="927" type="line"/>
      <point x="504" y="786" type="line"/>
      <point x="440" y="786" type="line"/>
    </contour>
  </outline>
</glyph>
<glyph name="Yacute" format="2">
  <advance width="603"/>
  <unicode hex="00DD"/>
  <outline>
    <contour>
      <point x="509" y="707" type="line"/>
      <point x="584" y="707" type="line"/>
      <point x="335" y="267" type="line"/>
      <point x="335" y="0" type="line"/>
      <point x="270" y="0" type="line"/>
      <point x="270" y="267" type="line"/>
      <point x="19" y="707" type="line"/>
      <point x="96" y="707" type="line"/>
      <point x="304" y="334" type="line"/>
    </contour>
    <contour>
      <point x="350" y="927" type="line"/>
      <point x="418" y="927" type="line"/>
      <point x="319" y="786" type="line"/>
      <point x="264" y="786" type="line"/>
    </contour>
  </outline>
</glyph>
<glyph name="Thorn" format="2">
  <advance width="626"/>
  <unicode hex="00DE"/>
  <outline>
    <contour>
      <point x="305" y="177" type="line" smooth="yes"/>
      <point x="424" y="177"/>
      <point x="505" y="225"/>
      <point x="505" y="352" type="curve" smooth="yes"/>
      <point x="505" y="472"/>
      <point x="437" y="515"/>
      <point x="322" y="515" type="curve" smooth="yes"/>
      <point x="157" y="515" type="line"/>
      <point x="157" y="177" type="line"/>
    </contour>
    <contour>
      <point x="157" y="575" type="line"/>
      <point x="327" y="575" type="line" smooth="yes"/>
      <point x="480" y="575"/>
      <point x="572" y="507"/>
      <point x="572" y="348" type="curve" smooth="yes"/>
      <point x="572" y="188"/>
      <point x="456" y="117"/>
      <point x="307" y="117" type="curve" smooth="yes"/>
      <point x="157" y="117" type="line"/>
      <point x="157" y="0" type="line"/>
      <point x="92" y="0" type="line"/>
      <point x="92" y="707" type="line"/>
      <point x="157" y="707" type="line"/>
    </contour>
  </outline>
</glyph>
<glyph name="germandbls" format="2">
  <advance width="598"/>
  <unicode hex="00DF"/>
  <outline>
    <contour>
      <point x="72" y="0" type="line"/>
      <point x="72" y="549" type="line" smooth="yes"/>
      <point x="72" y="672"/>
      <point x="137" y="738"/>
      <point x="261" y="738" type="curve" smooth="yes"/>
      <point x="346" y="738"/>
      <point x="431" y="690"/>
      <point x="431" y="597" type="curve" smooth="yes"/>
      <point x="431" y="546"/>
      <point x="404" y="510"/>
      <point x="374" y="470" type="curve" smooth="yes"/>
      <point x="353" y="443"/>
      <point x="315" y="402"/>
      <point x="315" y="364" type="curve" smooth="yes"/>
      <point x="315" y="315"/>
      <point x="363" y="302"/>
      <point x="403" y="290" type="curve" smooth="yes"/>
      <point x="423" y="284"/>
      <point x="441" y="278"/>
      <point x="453" y="274" type="curve"/>
      <point x="516" y="251"/>
      <point x="554" y="215"/>
      <point x="554" y="147" type="curve" smooth="yes"/>
      <point x="554" y="40"/>
      <point x="480" y="-6"/>
      <point x="381" y="-6" type="curve" smooth="yes"/>
      <point x="293" y="-6"/>
      <point x="228" y="38"/>
      <point x="212" y="127" type="curve"/>
      <point x="280" y="127" type="line"/>
      <point x="293" y="75"/>
      <point x="333" y="50"/>
      <point x="385" y="50" type="curve" smooth="yes"/>
      <point x="442" y="49"/>
      <point x="487" y="75"/>
      <point x="487" y="138" type="curve" smooth="yes"/>
      <point x="487" y="186"/>
      <point x="459" y="209"/>
      <point x="419" y="224" type="curve" smooth="yes"/>
      <point x="388" y="235"/>
      <point x="357" y="242"/>
      <point x="326" y="255" type="curve" smooth="yes"/>
      <point x="279" y="274"/>
      <point x="251" y="305"/>
      <point x="251" y="364" type="curve" smooth="yes"/>
      <point x="251" y="411"/>
      <point x="284" y="447"/>
      <point x="313" y="486" type="curve" smooth="yes"/>
      <point x="338" y="518"/>
      <point x="361" y="550"/>
      <point x="361" y="594" type="curve" smooth="yes"/>
      <point x="361" y="651"/>
      <point x="309" y="681"/>
      <point x="254" y="681" type="curve" smooth="yes"/>
      <point x="179" y="681"/>
      <point x="138" y="629"/>
      <point x="138" y="560" type="curve" smooth="yes"/>
      <point x="138" y="0" type="line"/>
    </contour>
  </outline>
</glyph>
<glyph name="acircumflex" format="2">
  <advance width="563"/>
  <unicode hex="00E2"/>
  <outline>
    <contour>
      <point x="288" y="720" type="line"/>
      <point x="210" y="623" type="line"/>
      <point x="145" y="623" type="line"/>
      <point x="268" y="769" type="line"/>
      <point x="309" y="769" type="line"/>
      <point x="432" y="623" type="line"/>
      <point x="370" y="623" type="line"/>
    </contour>
    <contour>
      <point x="430" y="76" type="line"/>
      <point x="379" y="13"/>
      <point x="314" y="-6"/>
      <point x="237" y="-6" type="curve" smooth="yes"/>
      <point x="144" y="-6"/>
      <point x="54" y="42"/>
      <point x="54" y="145" type="curve" smooth="yes"/>
      <point x="54" y="265"/>
      <point x="151" y="301"/>
      <point x="254" y="301" type="curve" smooth="yes"/>
      <point x="427" y="301" type="line"/>
      <point x="427" y="397"/>
      <point x="390" y="477"/>
      <point x="283" y="477" type="curve" smooth="yes"/>
      <point x="232" y="477"/>
      <point x="177" y="463"/>
      <point x="152" y="414" type="curve"/>
      <point x="82" y="414" type="line"/>
      <point x="106" y="501"/>
      <point x="199" y="533"/>
      <point x="285" y="533" type="curve" smooth="yes"/>
      <point x="441" y="533"/>
      <point x="493" y="425"/>
      <point x="493" y="286" type="curve" smooth="yes"/>
      <point x="493" y="0" type="line"/>
      <point x="439" y="0" type="line"/>
    </contour>
    <contour>
      <point x="288" y="248" type="line" smooth="yes"/>
      <point x="219" y="248"/>
      <point x="120" y="244"/>
      <point x="120" y="152" type="curve" smooth="yes"/>
      <point x="120" y="81"/>
      <point x="181" y="49"/>
      <point x="245" y="49" type="curve" smooth="yes"/>
      <point x="350" y="49"/>
      <point x="427" y="103"/>
      <point x="427" y="212" type="curve" smooth="yes"/>
      <point x="427" y="248" type="line"/>
    </contour>
  </outline>
</glyph>
<glyph name="adieresis" format="2">
  <advance width="563"/>
  <unicode hex="00E4"/>
  <outline>
    <contour>
      <point x="171" y="719" type="curve" smooth="yes"/>
      <point x="198" y="719"/>
      <point x="221" y="699"/>
      <point x="221" y="671" type="curve" smooth="yes"/>
      <point x="221" y="643"/>
      <point x="198" y="623"/>
      <point x="171" y="623" type="curve" smooth="yes"/>
      <point x="144" y="623"/>
      <point x="122" y="644"/>
      <point x="122" y="671" type="curve" smooth="yes"/>
      <point x="122" y="698"/>
      <point x="144" y="719"/>
    </contour>
    <contour>
      <point x="401" y="719" type="curve" smooth="yes"/>
      <point x="428" y="719"/>
      <point x="451" y="699"/>
      <point x="451" y="671" type="curve" smooth="yes"/>
      <point x="451" y="643"/>
      <point x="428" y="623"/>
      <point x="401" y="623" type="curve" smooth="yes"/>
      <point x="374" y="623"/>
      <point x="353" y="644"/>
      <point x="353" y="671" type="curve" smooth="yes"/>
      <point x="353" y="698"/>
      <point x="374" y="719"/>
    </contour>
    <contour>
      <point x="430" y="76" type="line"/>
      <point x="379" y="13"/>
      <point x="314" y="-6"/>
      <point x="237" y="-6" type="curve" smooth="yes"/>
      <point x="144" y="-6"/>
      <point x="54" y="42"/>
      <point x="54" y="145" type="curve" smooth="yes"/>
      <point x="54" y="265"/>
      <point x="151" y="301"/>
      <point x="254" y="301" type="curve" smooth="yes"/>
      <point x="427" y="301" type="line"/>
      <point x="427" y="397"/>
      <point x="390" y="477"/>
      <point x="283" y="477" type="curve" smooth="yes"/>
      <point x="232" y="477"/>
      <point x="177" y="463"/>
      <point x="152" y="414" type="curve"/>
      <point x="80" y="414" type="line"/>
      <point x="104" y="501"/>
      <point x="199" y="533"/>
      <point x="285" y="533" type="curve" smooth="yes"/>
      <point x="441" y="533"/>
      <point x="493" y="425"/>
      <point x="493" y="286" type="curve" smooth="yes"/>
      <point x="493" y="0" type="line"/>
      <point x="439" y="0" type="line"/>
    </contour>
    <contour>
      <point x="288" y="248" type="line" smooth="yes"/>
      <point x="219" y="248"/>
      <point x="120" y="244"/>
      <point x="120" y="152" type="curve" smooth="yes"/>
      <point x="120" y="81"/>
      <point x="181" y="49"/>
      <point x="245" y="49" type="curve" smooth="yes"/>
      <point x="350" y="49"/>
      <point x="427" y="103"/>
      <point x="427" y="212" type="curve" smooth="yes"/>
      <point x="427" y="248" type="line"/>
    </contour>
  </outline>
</glyph>
<glyph name="aring" format="2">
  <advance width="563"/>
  <unicode hex="00E5"/>
  <outline>
    <contour>
      <point x="430" y="76" type="line"/>
      <point x="379" y="15"/>
      <point x="314" y="-6"/>
      <point x="237" y="-6" type="curve" smooth="yes"/>
      <point x="145" y="-6"/>
      <point x="54" y="41"/>
      <point x="54" y="145" type="curve" smooth="yes"/>
      <point x="54" y="265"/>
      <point x="151" y="301"/>
      <point x="254" y="301" type="curve" smooth="yes"/>
      <point x="427" y="301" type="line"/>
      <point x="427" y="397"/>
      <point x="390" y="477"/>
      <point x="283" y="477" type="curve" smooth="yes"/>
      <point x="232" y="477"/>
      <point x="177" y="463"/>
      <point x="152" y="414" type="curve"/>
      <point x="80" y="414" type="line"/>
      <point x="104" y="502"/>
      <point x="200" y="533"/>
      <point x="285" y="533" type="curve" smooth="yes"/>
      <point x="441" y="533"/>
      <point x="493" y="424"/>
      <point x="493" y="286" type="curve" smooth="yes"/>
      <point x="493" y="0" type="line"/>
      <point x="439" y="0" type="line"/>
    </contour>
    <contour>
      <point x="288" y="248" type="line" smooth="yes"/>
      <point x="219" y="248"/>
      <point x="120" y="244"/>
      <point x="120" y="152" type="curve" smooth="yes"/>
      <point x="120" y="81"/>
      <point x="181" y="49"/>
      <point x="245" y="49" type="curve" smooth="yes"/>
      <point x="350" y="49"/>
      <point x="427" y="103"/>
      <point x="427" y="212" type="curve" smooth="yes"/>
      <point x="427" y="248" type="line"/>
    </contour>
    <contour>
      <point x="285" y="630" type="curve" smooth="yes"/>
      <point x="317" y="630"/>
      <point x="335" y="650"/>
      <point x="335" y="681" type="curve" smooth="yes"/>
      <point x="335" y="712"/>
      <point x="317" y="733"/>
      <point x="285" y="733" type="curve" smooth="yes"/>
      <point x="254" y="733"/>
      <point x="236" y="712"/>
      <point x="236" y="681" type="curve" smooth="yes"/>
      <point x="236" y="650"/>
      <point x="254" y="630"/>
    </contour>
    <contour>
      <point x="286" y="775" type="curve" smooth="yes"/>
      <point x="343" y="775"/>
      <point x="380" y="736"/>
      <point x="380" y="680" type="curve" smooth="yes"/>
      <point x="380" y="624"/>
      <point x="341" y="590"/>
      <point x="285" y="590" type="curve" smooth="yes"/>
      <point x="229" y="590"/>
      <point x="192" y="624"/>
      <point x="192" y="680" type="curve" smooth="yes"/>
      <point x="192" y="736"/>
      <point x="230" y="775"/>
    </contour>
  </outline>
</glyph>
<glyph name="ae" format="2">
  <advance width="952"/>
  <unicode hex="00E6"/>
  <outline>
    <contour>
      <point x="251" y="-6" type="curve" smooth="yes"/>
      <point x="154" y="-6"/>
      <point x="54" y="37"/>
      <point x="54" y="148" type="curve" smooth="yes"/>
      <point x="54" y="267"/>
      <point x="150" y="297"/>
      <point x="254" y="297" type="curve" smooth="yes"/>
      <point x="428" y="297" type="line"/>
      <point x="428" y="395"/>
      <point x="390" y="477"/>
      <point x="282" y="477" type="curve" smooth="yes"/>
      <point x="230" y="477"/>
      <point x="176" y="463"/>
      <point x="152" y="414" type="curve"/>
      <point x="80" y="414" type="line"/>
      <point x="104" y="503"/>
      <point x="201" y="533"/>
      <point x="284" y="533" type="curve" smooth="yes"/>
      <point x="364" y="533"/>
      <point x="437" y="497"/>
      <point x="468" y="421" type="curve"/>
      <point x="509" y="497"/>
      <point x="592" y="533"/>
      <point x="676" y="533" type="curve" smooth="yes"/>
      <point x="842" y="533"/>
      <point x="906" y="389"/>
      <point x="901" y="242" type="curve"/>
      <point x="493" y="242" type="line"/>
      <point x="498" y="129"/>
      <point x="560" y="50"/>
      <point x="678" y="50" type="curve" smooth="yes"/>
      <point x="733" y="50"/>
      <point x="798" y="69"/>
      <point x="822" y="124" type="curve"/>
      <point x="891" y="124" type="line"/>
      <point x="861" y="30"/>
      <point x="766" y="-6"/>
      <point x="675" y="-6" type="curve" smooth="yes"/>
      <point x="593" y="-6"/>
      <point x="507" y="22"/>
      <point x="462" y="101" type="curve"/>
      <point x="417" y="22"/>
      <point x="338" y="-6"/>
    </contour>
    <contour>
      <point x="834" y="297" type="line"/>
      <point x="831" y="398"/>
      <point x="775" y="477"/>
      <point x="668" y="477" type="curve" smooth="yes"/>
      <point x="563" y="477"/>
      <point x="499" y="397"/>
      <point x="494" y="297" type="curve"/>
    </contour>
    <contour>
      <point x="288" y="242" type="line" smooth="yes"/>
      <point x="219" y="242"/>
      <point x="120" y="244"/>
      <point x="120" y="152" type="curve" smooth="yes"/>
      <point x="120" y="81"/>
      <point x="183" y="49"/>
      <point x="247" y="49" type="curve" smooth="yes"/>
      <point x="351" y="49"/>
      <point x="427" y="102"/>
      <point x="427" y="214" type="curve" smooth="yes"/>
      <point x="427" y="242" type="line"/>
    </contour>
  </outline>
</glyph>
<glyph name="ccedilla" format="2">
  <advance width="555"/>
  <unicode hex="00E7"/>
  <outline>
    <contour>
      <point x="294" y="-76" type="line"/>
      <point x="354" y="-64"/>
      <point x="403" y="-88"/>
      <point x="403" y="-153" type="curve" smooth="yes"/>
      <point x="403" y="-244"/>
      <point x="312" y="-269"/>
      <point x="238" y="-258" type="curve"/>
      <point x="238" y="-218" type="line"/>
      <point x="283" y="-223"/>
      <point x="352" y="-216"/>
      <point x="352" y="-157" type="curve" smooth="yes"/>
      <point x="352" y="-125"/>
      <point x="329" y="-113"/>
      <point x="301" y="-113" type="curve" smooth="yes"/>
      <point x="280" y="-113"/>
      <point x="257" y="-116"/>
      <point x="241" y="-120" type="curve"/>
      <point x="265" y="-4" type="line"/>
      <point x="121" y="9"/>
      <point x="49" y="117"/>
      <point x="49" y="262" type="curve" smooth="yes"/>
      <point x="49" y="421"/>
      <point x="136" y="533"/>
      <point x="301" y="533" type="curve" smooth="yes"/>
      <point x="397" y="533"/>
      <point x="476" y="487"/>
      <point x="501" y="391" type="curve"/>
      <point x="434" y="391" type="line"/>
      <point x="415" y="450"/>
      <point x="358" y="477"/>
      <point x="297" y="477" type="curve" smooth="yes"/>
      <point x="172" y="477"/>
      <point x="114" y="379"/>
      <point x="114" y="262" type="curve" smooth="yes"/>
      <point x="114" y="147"/>
      <point x="171" y="50"/>
      <point x="300" y="50" type="curve" smooth="yes"/>
      <point x="364" y="50"/>
      <point x="418" y="70"/>
      <point x="441" y="135" type="curve"/>
      <point x="509" y="135" type="line"/>
      <point x="483" y="41"/>
      <point x="397" y="-3"/>
      <point x="308" y="-6" type="curve"/>
    </contour>
  </outline>
</glyph>
<glyph name="eacute" format="2">
  <advance width="577"/>
  <unicode hex="00E9"/>
  <outline>
    <contour>
      <point x="117" y="242" type="line"/>
      <point x="122" y="131"/>
      <point x="183" y="50"/>
      <point x="302" y="50" type="curve" smooth="yes"/>
      <point x="357" y="50"/>
      <point x="422" y="69"/>
      <point x="446" y="124" type="curve"/>
      <point x="515" y="124" type="line"/>
      <point x="485" y="30"/>
      <point x="390" y="-6"/>
      <point x="299" y="-6" type="curve" smooth="yes"/>
      <point x="133" y="-6"/>
      <point x="52" y="106"/>
      <point x="52" y="263" type="curve" smooth="yes"/>
      <point x="52" y="424"/>
      <point x="139" y="533"/>
      <point x="300" y="533" type="curve" smooth="yes"/>
      <point x="467" y="533"/>
      <point x="530" y="389"/>
      <point x="525" y="242" type="curve"/>
    </contour>
    <contour>
      <point x="458" y="297" type="line"/>
      <point x="455" y="394"/>
      <point x="402" y="477"/>
      <point x="292" y="477" type="curve" smooth="yes"/>
      <point x="183" y="477"/>
      <point x="123" y="390"/>
      <point x="118" y="297" type="curve"/>
    </contour>
    <contour>
      <point x="333" y="769" type="line"/>
      <point x="401" y="769" type="line"/>
      <point x="302" y="628" type="line"/>
      <point x="247" y="628" type="line"/>
    </contour>
  </outline>
</glyph>
<glyph name="ecircumflex" format="2">
  <advance width="571"/>
  <unicode hex="00EA"/>
  <outline>
    <contour>
      <point x="113" y="242" type="line"/>
      <point x="118" y="131"/>
      <point x="179" y="50"/>
      <point x="298" y="50" type="curve" smooth="yes"/>
      <point x="353" y="50"/>
      <point x="418" y="69"/>
      <point x="442" y="124" type="curve"/>
      <point x="511" y="124" type="line"/>
      <point x="481" y="30"/>
      <point x="386" y="-6"/>
      <point x="295" y="-6" type="curve" smooth="yes"/>
      <point x="129" y="-6"/>
      <point x="48" y="106"/>
      <point x="48" y="263" type="curve" smooth="yes"/>
      <point x="48" y="424"/>
      <point x="135" y="533"/>
      <point x="296" y="533" type="curve" smooth="yes"/>
      <point x="463" y="533"/>
      <point x="526" y="389"/>
      <point x="521" y="242" type="curve"/>
    </contour>
    <contour>
      <point x="454" y="297" type="line"/>
      <point x="451" y="394"/>
      <point x="398" y="477"/>
      <point x="288" y="477" type="curve" smooth="yes"/>
      <point x="179" y="477"/>
      <point x="119" y="390"/>
      <point x="114" y="297" type="curve"/>
    </contour>
    <contour>
      <point x="291" y="720" type="line"/>
      <point x="213" y="623" type="line"/>
      <point x="148" y="623" type="line"/>
      <point x="271" y="769" type="line"/>
      <point x="312" y="769" type="line"/>
      <point x="435" y="623" type="line"/>
      <point x="373" y="623" type="line"/>
    </contour>
  </outline>
</glyph>
<glyph name="edieresis" format="2">
  <advance width="577"/>
  <unicode hex="00EB"/>
  <outline>
    <contour>
      <point x="117" y="242" type="line"/>
      <point x="122" y="131"/>
      <point x="183" y="50"/>
      <point x="302" y="50" type="curve" smooth="yes"/>
      <point x="357" y="50"/>
      <point x="422" y="69"/>
      <point x="446" y="124" type="curve"/>
      <point x="515" y="124" type="line"/>
      <point x="485" y="30"/>
      <point x="390" y="-6"/>
      <point x="299" y="-6" type="curve" smooth="yes"/>
      <point x="133" y="-6"/>
      <point x="52" y="106"/>
      <point x="52" y="263" type="curve" smooth="yes"/>
      <point x="52" y="424"/>
      <point x="139" y="533"/>
      <point x="300" y="533" type="curve" smooth="yes"/>
      <point x="467" y="533"/>
      <point x="530" y="389"/>
      <point x="525" y="242" type="curve"/>
    </contour>
    <contour>
      <point x="458" y="297" type="line"/>
      <point x="455" y="394"/>
      <point x="402" y="477"/>
      <point x="292" y="477" type="curve" smooth="yes"/>
      <point x="183" y="477"/>
      <point x="123" y="390"/>
      <point x="118" y="297" type="curve"/>
    </contour>
    <contour>
      <point x="186" y="717" type="curve" smooth="yes"/>
      <point x="213" y="717"/>
      <point x="236" y="697"/>
      <point x="236" y="669" type="curve" smooth="yes"/>
      <point x="236" y="641"/>
      <point x="213" y="621"/>
      <point x="186" y="621" type="curve" smooth="yes"/>
      <point x="159" y="621"/>
      <point x="137" y="642"/>
      <point x="137" y="669" type="curve" smooth="yes"/>
      <point x="137" y="696"/>
      <point x="159" y="717"/>
    </contour>
    <contour>
      <point x="412" y="717" type="curve" smooth="yes"/>
      <point x="439" y="717"/>
      <point x="462" y="697"/>
      <point x="462" y="669" type="curve" smooth="yes"/>
      <point x="462" y="641"/>
      <point x="439" y="621"/>
      <point x="412" y="621" type="curve" smooth="yes"/>
      <point x="385" y="621"/>
      <point x="364" y="642"/>
      <point x="364" y="669" type="curve" smooth="yes"/>
      <point x="364" y="696"/>
      <point x="385" y="717"/>
    </contour>
  </outline>
</glyph>
<glyph name="igrave" format="2">
  <advance width="210"/>
  <unicode hex="00EC"/>
  <outline>
    <contour>
      <point x="138" y="0" type="line"/>
      <point x="72" y="0" type="line"/>
      <point x="72" y="527" type="line"/>
      <point x="138" y="527" type="line"/>
    </contour>
    <contour>
      <point x="67" y="769" type="line"/>
      <point x="151" y="628" type="line"/>
      <point x="96" y="628" type="line"/>
      <point x="-1" y="769" type="line"/>
    </contour>
  </outline>
</glyph>
<glyph name="iacute" format="2">
  <advance width="210"/>
  <unicode hex="00ED"/>
  <outline>
    <contour>
      <point x="138" y="0" type="line"/>
      <point x="72" y="0" type="line"/>
      <point x="72" y="527" type="line"/>
      <point x="138" y="527" type="line"/>
    </contour>
    <contour>
      <point x="155" y="769" type="line"/>
      <point x="223" y="769" type="line"/>
      <point x="124" y="628" type="line"/>
      <point x="69" y="628" type="line"/>
    </contour>
  </outline>
</glyph>
<glyph name="icircumflex" format="2">
  <advance width="239"/>
  <unicode hex="00EE"/>
  <outline>
    <contour>
      <point x="82" y="527" type="line"/>
      <point x="148" y="527" type="line"/>
      <point x="148" y="0" type="line"/>
      <point x="82" y="0" type="line"/>
    </contour>
    <contour>
      <point x="114" y="737" type="line"/>
      <point x="36" y="640" type="line"/>
      <point x="-29" y="640" type="line"/>
      <point x="94" y="786" type="line"/>
      <point x="135" y="786" type="line"/>
      <point x="258" y="640" type="line"/>
      <point x="196" y="640" type="line"/>
    </contour>
  </outline>
</glyph>
<glyph name="idieresis" format="2">
  <advance width="210"/>
  <unicode hex="00EF"/>
  <outline>
    <contour>
      <point x="138" y="0" type="line"/>
      <point x="72" y="0" type="line"/>
      <point x="72" y="527" type="line"/>
      <point x="138" y="527" type="line"/>
    </contour>
    <contour>
      <point x="31" y="717" type="curve" smooth="yes"/>
      <point x="58" y="717"/>
      <point x="81" y="697"/>
      <point x="81" y="669" type="curve" smooth="yes"/>
      <point x="81" y="641"/>
      <point x="58" y="621"/>
      <point x="31" y="621" type="curve" smooth="yes"/>
      <point x="4" y="621"/>
      <point x="-18" y="642"/>
      <point x="-18" y="669" type="curve" smooth="yes"/>
      <point x="-18" y="696"/>
      <point x="4" y="717"/>
    </contour>
    <contour>
      <point x="177" y="717" type="curve" smooth="yes"/>
      <point x="204" y="717"/>
      <point x="227" y="697"/>
      <point x="227" y="669" type="curve" smooth="yes"/>
      <point x="227" y="641"/>
      <point x="204" y="621"/>
      <point x="177" y="621" type="curve" smooth="yes"/>
      <point x="150" y="621"/>
      <point x="129" y="642"/>
      <point x="129" y="669" type="curve" smooth="yes"/>
      <point x="129" y="696"/>
      <point x="150" y="717"/>
    </contour>
  </outline>
</glyph>
<glyph name="eth" format="2">
  <advance width="564"/>
  <unicode hex="00F0"/>
  <outline>
    <contour>
      <point x="281" y="51" type="curve" smooth="yes"/>
      <point x="381" y="51"/>
      <point x="441" y="132"/>
      <point x="441" y="226" type="curve" smooth="yes"/>
      <point x="441" y="329"/>
      <point x="386" y="412"/>
      <point x="274" y="412" type="curve" smooth="yes"/>
      <point x="174" y="412"/>
      <point x="118" y="329"/>
      <point x="118" y="236" type="curve" smooth="yes"/>
      <point x="118" y="137"/>
      <point x="176" y="51"/>
    </contour>
    <contour>
      <point x="478" y="703" type="line"/>
      <point x="380" y="640" type="line"/>
      <point x="484" y="544"/>
      <point x="512" y="425"/>
      <point x="512" y="287" type="curve" smooth="yes"/>
      <point x="512" y="128"/>
      <point x="459" y="-5"/>
      <point x="278" y="-5" type="curve" smooth="yes"/>
      <point x="130" y="-5"/>
      <point x="52" y="97"/>
      <point x="52" y="239" type="curve" smooth="yes"/>
      <point x="52" y="371"/>
      <point x="133" y="469"/>
      <point x="268" y="469" type="curve" smooth="yes"/>
      <point x="348" y="469"/>
      <point x="410" y="445"/>
      <point x="451" y="376" type="curve"/>
      <point x="443" y="453"/>
      <point x="403" y="552"/>
      <point x="331" y="608" type="curve"/>
      <point x="221" y="532" type="line"/>
      <point x="192" y="576" type="line"/>
      <point x="290" y="639" type="line"/>
      <point x="255" y="660"/>
      <point x="202" y="675"/>
      <point x="150" y="686" type="curve"/>
      <point x="161" y="735" type="line"/>
      <point x="224" y="723"/>
      <point x="293" y="701"/>
      <point x="336" y="670" type="curve"/>
      <point x="450" y="746" type="line"/>
    </contour>
  </outline>
</glyph>
<glyph name="ntilde" format="2">
  <advance width="598"/>
  <unicode hex="00F1"/>
  <outline>
    <contour>
      <point x="72" y="0" type="line"/>
      <point x="72" y="527" type="line"/>
      <point x="136" y="527" type="line"/>
      <point x="138" y="437" type="line"/>
      <point x="179" y="503"/>
      <point x="253" y="533"/>
      <point x="330" y="533" type="curve" smooth="yes"/>
      <point x="478" y="533"/>
      <point x="529" y="427"/>
      <point x="529" y="292" type="curve" smooth="yes"/>
      <point x="529" y="0" type="line"/>
      <point x="463" y="0" type="line"/>
      <point x="463" y="268" type="line" smooth="yes"/>
      <point x="463" y="371"/>
      <point x="443" y="477"/>
      <point x="318" y="477" type="curve" smooth="yes"/>
      <point x="198" y="477"/>
      <point x="138" y="374"/>
      <point x="138" y="265" type="curve" smooth="yes"/>
      <point x="138" y="0" type="line"/>
    </contour>
    <contour>
      <point x="474" y="740" type="line"/>
      <point x="474" y="676"/>
      <point x="450" y="619"/>
      <point x="376" y="619" type="curve" smooth="yes"/>
      <point x="310" y="619"/>
      <point x="281" y="694"/>
      <point x="243" y="694" type="curve" smooth="yes"/>
      <point x="207" y="694"/>
      <point x="203" y="649"/>
      <point x="203" y="622" type="curve"/>
      <point x="147" y="622" type="line"/>
      <point x="144" y="689"/>
      <point x="170" y="743"/>
      <point x="244" y="743" type="curve" smooth="yes"/>
      <point x="309" y="743"/>
      <point x="337" y="667"/>
      <point x="377" y="667" type="curve" smooth="yes"/>
      <point x="414" y="667"/>
      <point x="417" y="712"/>
      <point x="417" y="740" type="curve"/>
    </contour>
  </outline>
</glyph>
<glyph name="ograve" format="2">
  <advance width="603"/>
  <unicode hex="00F2"/>
  <outline>
    <contour>
      <point x="301" y="50" type="curve" smooth="yes"/>
      <point x="430" y="50"/>
      <point x="485" y="145"/>
      <point x="485" y="263" type="curve" smooth="yes"/>
      <point x="485" y="380"/>
      <point x="430" y="477"/>
      <point x="301" y="477" type="curve" smooth="yes"/>
      <point x="172" y="477"/>
      <point x="117" y="380"/>
      <point x="117" y="263" type="curve" smooth="yes"/>
      <point x="117" y="145"/>
      <point x="172" y="50"/>
    </contour>
    <contour>
      <point x="301" y="533" type="curve" smooth="yes"/>
      <point x="465" y="533"/>
      <point x="551" y="420"/>
      <point x="551" y="263" type="curve" smooth="yes"/>
      <point x="551" y="106"/>
      <point x="465" y="-6"/>
      <point x="301" y="-6" type="curve" smooth="yes"/>
      <point x="136" y="-6"/>
      <point x="52" y="106"/>
      <point x="52" y="263" type="curve" smooth="yes"/>
      <point x="52" y="420"/>
      <point x="136" y="533"/>
    </contour>
    <contour>
      <point x="272" y="769" type="line"/>
      <point x="356" y="628" type="line"/>
      <point x="301" y="628" type="line"/>
      <point x="204" y="769" type="line"/>
    </contour>
  </outline>
</glyph>
<glyph name="ocircumflex" format="2">
  <advance width="603"/>
  <unicode hex="00F4"/>
  <outline>
    <contour>
      <point x="301" y="50" type="curve" smooth="yes"/>
      <point x="430" y="50"/>
      <point x="485" y="145"/>
      <point x="485" y="263" type="curve" smooth="yes"/>
      <point x="485" y="380"/>
      <point x="430" y="477"/>
      <point x="301" y="477" type="curve" smooth="yes"/>
      <point x="172" y="477"/>
      <point x="117" y="380"/>
      <point x="117" y="263" type="curve" smooth="yes"/>
      <point x="117" y="145"/>
      <point x="172" y="50"/>
    </contour>
    <contour>
      <point x="301" y="533" type="curve" smooth="yes"/>
      <point x="465" y="533"/>
      <point x="551" y="420"/>
      <point x="551" y="263" type="curve" smooth="yes"/>
      <point x="551" y="106"/>
      <point x="465" y="-6"/>
      <point x="301" y="-6" type="curve" smooth="yes"/>
      <point x="136" y="-6"/>
      <point x="52" y="106"/>
      <point x="52" y="263" type="curve" smooth="yes"/>
      <point x="52" y="420"/>
      <point x="136" y="533"/>
    </contour>
    <contour>
      <point x="308" y="721" type="line"/>
      <point x="230" y="628" type="line"/>
      <point x="165" y="628" type="line"/>
      <point x="288" y="769" type="line"/>
      <point x="329" y="769" type="line"/>
      <point x="452" y="628" type="line"/>
      <point x="388" y="628" type="line"/>
    </contour>
  </outline>
</glyph>
<glyph name="otilde" format="2">
  <advance width="603"/>
  <unicode hex="00F5"/>
  <outline>
    <contour>
      <point x="301" y="50" type="curve" smooth="yes"/>
      <point x="430" y="50"/>
      <point x="485" y="145"/>
      <point x="485" y="263" type="curve" smooth="yes"/>
      <point x="485" y="380"/>
      <point x="430" y="477"/>
      <point x="301" y="477" type="curve" smooth="yes"/>
      <point x="172" y="477"/>
      <point x="117" y="380"/>
      <point x="117" y="263" type="curve" smooth="yes"/>
      <point x="117" y="145"/>
      <point x="172" y="50"/>
    </contour>
    <contour>
      <point x="301" y="533" type="curve" smooth="yes"/>
      <point x="465" y="533"/>
      <point x="551" y="420"/>
      <point x="551" y="263" type="curve" smooth="yes"/>
      <point x="551" y="106"/>
      <point x="465" y="-6"/>
      <point x="301" y="-6" type="curve" smooth="yes"/>
      <point x="136" y="-6"/>
      <point x="52" y="106"/>
      <point x="52" y="263" type="curve" smooth="yes"/>
      <point x="52" y="420"/>
      <point x="136" y="533"/>
    </contour>
    <contour>
      <point x="466" y="740" type="line"/>
      <point x="466" y="676"/>
      <point x="442" y="619"/>
      <point x="368" y="619" type="curve" smooth="yes"/>
      <point x="302" y="619"/>
      <point x="273" y="694"/>
      <point x="235" y="694" type="curve" smooth="yes"/>
      <point x="199" y="694"/>
      <point x="195" y="649"/>
      <point x="195" y="622" type="curve"/>
      <point x="139" y="622" type="line"/>
      <point x="136" y="689"/>
      <point x="162" y="743"/>
      <point x="236" y="743" type="curve" smooth="yes"/>
      <point x="301" y="743"/>
      <point x="329" y="667"/>
      <point x="369" y="667" type="curve" smooth="yes"/>
      <point x="406" y="667"/>
      <point x="409" y="712"/>
      <point x="409" y="740" type="curve"/>
    </contour>
  </outline>
</glyph>
<glyph name="odieresis" format="2">
  <advance width="595"/>
  <unicode hex="00F6"/>
  <outline>
    <contour>
      <point x="182" y="719" type="curve" smooth="yes"/>
      <point x="209" y="719"/>
      <point x="232" y="699"/>
      <point x="232" y="671" type="curve" smooth="yes"/>
      <point x="232" y="643"/>
      <point x="209" y="623"/>
      <point x="182" y="623" type="curve" smooth="yes"/>
      <point x="155" y="623"/>
      <point x="133" y="644"/>
      <point x="133" y="671" type="curve" smooth="yes"/>
      <point x="133" y="698"/>
      <point x="155" y="719"/>
    </contour>
    <contour>
      <point x="412" y="719" type="curve" smooth="yes"/>
      <point x="439" y="719"/>
      <point x="462" y="699"/>
      <point x="462" y="671" type="curve" smooth="yes"/>
      <point x="462" y="643"/>
      <point x="439" y="623"/>
      <point x="412" y="623" type="curve" smooth="yes"/>
      <point x="385" y="623"/>
      <point x="364" y="644"/>
      <point x="364" y="671" type="curve" smooth="yes"/>
      <point x="364" y="698"/>
      <point x="385" y="719"/>
    </contour>
    <contour>
      <point x="297" y="50" type="curve" smooth="yes"/>
      <point x="426" y="50"/>
      <point x="481" y="145"/>
      <point x="481" y="263" type="curve" smooth="yes"/>
      <point x="481" y="380"/>
      <point x="426" y="477"/>
      <point x="297" y="477" type="curve" smooth="yes"/>
      <point x="168" y="477"/>
      <point x="113" y="380"/>
      <point x="113" y="263" type="curve" smooth="yes"/>
      <point x="113" y="145"/>
      <point x="168" y="50"/>
    </contour>
    <contour>
      <point x="297" y="533" type="curve" smooth="yes"/>
      <point x="461" y="533"/>
      <point x="547" y="420"/>
      <point x="547" y="263" type="curve" smooth="yes"/>
      <point x="547" y="106"/>
      <point x="461" y="-6"/>
      <point x="297" y="-6" type="curve" smooth="yes"/>
      <point x="132" y="-6"/>
      <point x="48" y="106"/>
      <point x="48" y="263" type="curve" smooth="yes"/>
      <point x="48" y="420"/>
      <point x="132" y="533"/>
    </contour>
  </outline>
</glyph>
<glyph name="divide" format="2">
  <advance width="471"/>
  <unicode hex="00F7"/>
  <outline>
    <contour>
      <point x="235" y="232" type="curve" smooth="yes"/>
      <point x="266" y="232"/>
      <point x="286" y="210"/>
      <point x="286" y="181" type="curve" smooth="yes"/>
      <point x="286" y="152"/>
      <point x="267" y="129"/>
      <point x="235" y="129" type="curve" smooth="yes"/>
      <point x="204" y="129"/>
      <point x="185" y="152"/>
      <point x="185" y="181" type="curve" smooth="yes"/>
      <point x="185" y="210"/>
      <point x="204" y="232"/>
    </contour>
    <contour>
      <point x="235" y="587" type="curve" smooth="yes"/>
      <point x="266" y="587"/>
      <point x="286" y="566"/>
      <point x="286" y="537" type="curve" smooth="yes"/>
      <point x="286" y="508"/>
      <point x="267" y="485"/>
      <point x="235" y="485" type="curve" smooth="yes"/>
      <point x="204" y="485"/>
      <point x="185" y="508"/>
      <point x="185" y="537" type="curve" smooth="yes"/>
      <point x="185" y="566"/>
      <point x="204" y="587"/>
    </contour>
    <contour>
      <point x="407" y="328" type="line"/>
      <point x="64" y="328" type="line"/>
      <point x="64" y="388" type="line"/>
      <point x="407" y="388" type="line"/>
    </contour>
  </outline>
</glyph>
<glyph name="oslash" format="2">
  <advance width="603"/>
  <unicode hex="00F8"/>
  <outline>
    <contour>
      <point x="177" y="94" type="curve"/>
      <point x="372" y="465" type="line"/>
      <point x="351" y="473"/>
      <point x="327" y="477"/>
      <point x="301" y="477" type="curve" smooth="yes"/>
      <point x="172" y="477"/>
      <point x="117" y="380"/>
      <point x="117" y="263" type="curve" smooth="yes"/>
      <point x="117" y="203"/>
      <point x="130" y="137"/>
    </contour>
    <contour>
      <point x="425" y="431" type="curve"/>
      <point x="230" y="61" type="line"/>
      <point x="252" y="54"/>
      <point x="276" y="50"/>
      <point x="301" y="50" type="curve" smooth="yes"/>
      <point x="430" y="50"/>
      <point x="485" y="144"/>
      <point x="485" y="263" type="curve" smooth="yes"/>
      <point x="485" y="323"/>
      <point x="472" y="388"/>
    </contour>
    <contour>
      <point x="301" y="533" type="curve" smooth="yes"/>
      <point x="339" y="533"/>
      <point x="372" y="528"/>
      <point x="399" y="517" type="curve"/>
      <point x="453" y="618" type="line"/>
      <point x="524" y="618" type="line"/>
      <point x="455" y="487" type="line"/>
      <point x="524" y="435"/>
      <point x="551" y="348"/>
      <point x="551" y="263" type="curve" smooth="yes"/>
      <point x="551" y="106"/>
      <point x="465" y="-6"/>
      <point x="301" y="-6" type="curve" smooth="yes"/>
      <point x="264" y="-6"/>
      <point x="231" y="-1"/>
      <point x="203" y="10" type="curve"/>
      <point x="150" y="-91" type="line"/>
      <point x="79" y="-91" type="line"/>
      <point x="148" y="39" type="line"/>
      <point x="76" y="91"/>
      <point x="52" y="176"/>
      <point x="52" y="263" type="curve" smooth="yes"/>
      <point x="52" y="420"/>
      <point x="136" y="533"/>
    </contour>
  </outline>
</glyph>
<glyph name="ugrave" format="2">
  <advance width="578"/>
  <unicode hex="00F9"/>
  <outline>
    <contour>
      <point x="288" y="50" type="curve" smooth="yes"/>
      <point x="403" y="50"/>
      <point x="442" y="125"/>
      <point x="442" y="231" type="curve" smooth="yes"/>
      <point x="442" y="527" type="line"/>
      <point x="508" y="527" type="line"/>
      <point x="508" y="229" type="line" smooth="yes"/>
      <point x="508" y="80"/>
      <point x="443" y="-6"/>
      <point x="288" y="-6" type="curve" smooth="yes"/>
      <point x="137" y="-6"/>
      <point x="70" y="80"/>
      <point x="70" y="229" type="curve" smooth="yes"/>
      <point x="70" y="527" type="line"/>
      <point x="136" y="527" type="line"/>
      <point x="136" y="231" type="line" smooth="yes"/>
      <point x="136" y="130"/>
      <point x="176" y="50"/>
    </contour>
    <contour>
      <point x="257" y="769" type="line"/>
      <point x="341" y="628" type="line"/>
      <point x="286" y="628" type="line"/>
      <point x="189" y="769" type="line"/>
    </contour>
  </outline>
</glyph>
<glyph name="uacute" format="2">
  <advance width="578"/>
  <unicode hex="00FA"/>
  <outline>
    <contour>
      <point x="288" y="50" type="curve" smooth="yes"/>
      <point x="403" y="50"/>
      <point x="442" y="125"/>
      <point x="442" y="231" type="curve" smooth="yes"/>
      <point x="442" y="527" type="line"/>
      <point x="508" y="527" type="line"/>
      <point x="508" y="229" type="line" smooth="yes"/>
      <point x="508" y="80"/>
      <point x="443" y="-6"/>
      <point x="288" y="-6" type="curve" smooth="yes"/>
      <point x="137" y="-6"/>
      <point x="70" y="80"/>
      <point x="70" y="229" type="curve" smooth="yes"/>
      <point x="70" y="527" type="line"/>
      <point x="136" y="527" type="line"/>
      <point x="136" y="231" type="line" smooth="yes"/>
      <point x="136" y="130"/>
      <point x="176" y="50"/>
    </contour>
    <contour>
      <point x="324" y="769" type="line"/>
      <point x="392" y="769" type="line"/>
      <point x="293" y="628" type="line"/>
      <point x="238" y="628" type="line"/>
    </contour>
  </outline>
</glyph>
<glyph name="udieresis" format="2">
  <advance width="578"/>
  <unicode hex="00FC"/>
  <outline>
    <contour>
      <point x="176" y="719" type="curve" smooth="yes"/>
      <point x="203" y="719"/>
      <point x="226" y="699"/>
      <point x="226" y="671" type="curve" smooth="yes"/>
      <point x="226" y="643"/>
      <point x="203" y="623"/>
      <point x="176" y="623" type="curve" smooth="yes"/>
      <point x="149" y="623"/>
      <point x="127" y="644"/>
      <point x="127" y="671" type="curve" smooth="yes"/>
      <point x="127" y="698"/>
      <point x="149" y="719"/>
    </contour>
    <contour>
      <point x="406" y="719" type="curve" smooth="yes"/>
      <point x="433" y="719"/>
      <point x="456" y="699"/>
      <point x="456" y="671" type="curve" smooth="yes"/>
      <point x="456" y="643"/>
      <point x="433" y="623"/>
      <point x="406" y="623" type="curve" smooth="yes"/>
      <point x="379" y="623"/>
      <point x="358" y="644"/>
      <point x="358" y="671" type="curve" smooth="yes"/>
      <point x="358" y="698"/>
      <point x="379" y="719"/>
    </contour>
    <contour>
      <point x="288" y="50" type="curve" smooth="yes"/>
      <point x="403" y="50"/>
      <point x="442" y="125"/>
      <point x="442" y="231" type="curve" smooth="yes"/>
      <point x="442" y="527" type="line"/>
      <point x="508" y="527" type="line"/>
      <point x="508" y="229" type="line" smooth="yes"/>
      <point x="508" y="80"/>
      <point x="443" y="-6"/>
      <point x="288" y="-6" type="curve" smooth="yes"/>
      <point x="135" y="-6"/>
      <point x="70" y="80"/>
      <point x="70" y="229" type="curve" smooth="yes"/>
      <point x="70" y="527" type="line"/>
      <point x="136" y="527" type="line"/>
      <point x="136" y="231" type="line" smooth="yes"/>
      <point x="136" y="130"/>
      <point x="176" y="50"/>
    </contour>
  </outline>
</glyph>
<glyph name="thorn" format="2">
  <advance width="613"/>
  <unicode hex="00FE"/>
  <outline>
    <contour>
      <point x="319" y="50" type="curve" smooth="yes"/>
      <point x="443" y="50"/>
      <point x="494" y="146"/>
      <point x="494" y="258" type="curve" smooth="yes"/>
      <point x="494" y="373"/>
      <point x="446" y="477"/>
      <point x="317" y="477" type="curve" smooth="yes"/>
      <point x="198" y="477"/>
      <point x="137" y="370"/>
      <point x="137" y="261" type="curve" smooth="yes"/>
      <point x="137" y="147"/>
      <point x="195" y="50"/>
    </contour>
    <contour>
      <point x="138" y="-197" type="line"/>
      <point x="72" y="-197" type="line"/>
      <point x="72" y="707" type="line"/>
      <point x="138" y="707" type="line"/>
      <point x="138" y="441" type="line"/>
      <point x="181" y="509"/>
      <point x="252" y="536"/>
      <point x="331" y="536" type="curve" smooth="yes"/>
      <point x="496" y="536"/>
      <point x="560" y="403"/>
      <point x="560" y="253" type="curve" smooth="yes"/>
      <point x="560" y="103"/>
      <point x="480" y="-5"/>
      <point x="323" y="-5" type="curve" smooth="yes"/>
      <point x="254" y="-5"/>
      <point x="178" y="16"/>
      <point x="138" y="79" type="curve"/>
    </contour>
  </outline>
</glyph>
<glyph name="ydieresis" format="2">
  <advance width="604"/>
  <unicode hex="00FF"/>
  <outline>
    <contour>
      <point x="532" y="527" type="line"/>
      <point x="532" y="0" type="line" smooth="yes"/>
      <point x="532" y="-83"/>
      <point x="516" y="-138"/>
      <point x="475" y="-183" type="curve" smooth="yes"/>
      <point x="430" y="-232"/>
      <point x="361" y="-246"/>
      <point x="297" y="-246" type="curve" smooth="yes"/>
      <point x="225" y="-246"/>
      <point x="145" y="-226"/>
      <point x="89" y="-179" type="curve"/>
      <point x="118" y="-125" type="line"/>
      <point x="171" y="-165"/>
      <point x="233" y="-188"/>
      <point x="297" y="-188" type="curve" smooth="yes"/>
      <point x="420" y="-188"/>
      <point x="466" y="-117"/>
      <point x="466" y="1" type="curve" smooth="yes"/>
      <point x="466" y="80" type="line"/>
      <point x="425" y="15"/>
      <point x="348" y="-8"/>
      <point x="276" y="-8" type="curve" smooth="yes"/>
      <point x="204" y="-8"/>
      <point x="153" y="17"/>
      <point x="122" y="53" type="curve" smooth="yes"/>
      <point x="83" y="96"/>
      <point x="72" y="166"/>
      <point x="72" y="242" type="curve" smooth="yes"/>
      <point x="72" y="527" type="line"/>
      <point x="138" y="527" type="line"/>
      <point x="138" y="267" type="line" smooth="yes"/>
      <point x="138" y="207"/>
      <point x="140" y="146"/>
      <point x="167" y="106" type="curve" smooth="yes"/>
      <point x="190" y="71"/>
      <point x="230" y="50"/>
      <point x="291" y="50" type="curve" smooth="yes"/>
      <point x="365" y="50"/>
      <point x="414" y="86"/>
      <point x="441" y="141" type="curve" smooth="yes"/>
      <point x="460" y="180"/>
      <point x="466" y="226"/>
      <point x="466" y="274" type="curve" smooth="yes"/>
      <point x="466" y="527" type="line"/>
    </contour>
    <contour>
      <point x="190" y="717" type="curve" smooth="yes"/>
      <point x="217" y="717"/>
      <point x="240" y="697"/>
      <point x="240" y="669" type="curve" smooth="yes"/>
      <point x="240" y="641"/>
      <point x="217" y="621"/>
      <point x="190" y="621" type="curve" smooth="yes"/>
      <point x="163" y="621"/>
      <point x="141" y="642"/>
      <point x="141" y="669" type="curve" smooth="yes"/>
      <point x="141" y="696"/>
      <point x="163" y="717"/>
    </contour>
    <contour>
      <point x="416" y="717" type="curve" smooth="yes"/>
      <point x="443" y="717"/>
      <point x="466" y="697"/>
      <point x="466" y="669" type="curve" smooth="yes"/>
      <point x="466" y="641"/>
      <point x="443" y="621"/>
      <point x="416" y="621" type="curve" smooth="yes"/>
      <point x="389" y="621"/>
      <point x="368" y="642"/>
      <point x="368" y="669" type="curve" smooth="yes"/>
      <point x="368" y="696"/>
      <point x="389" y="717"/>
    </contour>
  </outline>
</glyph>
<glyph name="Amacron" format="2">
  <advance width="648"/>
  <unicode hex="0100"/>
  <outline>
    <contour>
      <point x="146" y="157" type="line"/>
      <point x="88" y="0" type="line"/>
      <point x="15" y="0" type="line"/>
      <point x="279" y="707" type="line"/>
      <point x="370" y="707" type="line"/>
      <point x="633" y="0" type="line"/>
      <point x="560" y="0" type="line"/>
      <point x="502" y="157" type="line"/>
    </contour>
    <contour>
      <point x="168" y="217" type="line"/>
      <point x="481" y="217" type="line"/>
      <point x="324" y="646" type="line"/>
    </contour>
    <contour>
      <point x="167" y="887" type="line"/>
      <point x="486" y="887" type="line"/>
      <point x="486" y="832" type="line"/>
      <point x="167" y="832" type="line"/>
    </contour>
  </outline>
</glyph>
<glyph name="Abreve" format="2">
  <advance width="648"/>
  <unicode hex="0102"/>
  <outline>
    <contour>
      <point x="326" y="855" type="curve" smooth="yes"/>
      <point x="372" y="855"/>
      <point x="425" y="867"/>
      <point x="433" y="927" type="curve"/>
      <point x="494" y="927" type="line"/>
      <point x="486" y="834"/>
      <point x="406" y="804"/>
      <point x="324" y="804" type="curve" smooth="yes"/>
      <point x="240" y="804"/>
      <point x="166" y="834"/>
      <point x="158" y="927" type="curve"/>
      <point x="219" y="927" type="line"/>
      <point x="227" y="867"/>
      <point x="280" y="855"/>
    </contour>
    <contour>
      <point x="146" y="157" type="line"/>
      <point x="88" y="0" type="line"/>
      <point x="15" y="0" type="line"/>
      <point x="279" y="707" type="line"/>
      <point x="370" y="707" type="line"/>
      <point x="633" y="0" type="line"/>
      <point x="560" y="0" type="line"/>
      <point x="502" y="157" type="line"/>
    </contour>
    <contour>
      <point x="168" y="217" type="line"/>
      <point x="481" y="217" type="line"/>
      <point x="324" y="646" type="line"/>
    </contour>
  </outline>
</glyph>
<glyph name="Aogonek" format="2">
  <advance width="648"/>
  <unicode hex="0104"/>
  <outline>
    <contour>
      <point x="168" y="217" type="line"/>
      <point x="481" y="217" type="line"/>
      <point x="324" y="646" type="line"/>
    </contour>
    <contour>
      <point x="653" y="-201" type="line"/>
      <point x="632" y="-212"/>
      <point x="612" y="-215"/>
      <point x="589" y="-215" type="curve" smooth="yes"/>
      <point x="522" y="-215"/>
      <point x="469" y="-182"/>
      <point x="469" y="-110" type="curve" smooth="yes"/>
      <point x="469" y="-54"/>
      <point x="509" y="-12"/>
      <point x="557" y="7" type="curve"/>
      <point x="502" y="157" type="line"/>
      <point x="146" y="157" type="line"/>
      <point x="88" y="0" type="line"/>
      <point x="15" y="0" type="line"/>
      <point x="279" y="707" type="line"/>
      <point x="370" y="707" type="line"/>
      <point x="633" y="0" type="line"/>
      <point x="599" y="0" type="line"/>
      <point x="563" y="-23"/>
      <point x="528" y="-58"/>
      <point x="528" y="-101" type="curve" smooth="yes"/>
      <point x="528" y="-144"/>
      <point x="558" y="-166"/>
      <point x="599" y="-167" type="curve" smooth="yes"/>
      <point x="614" y="-167"/>
      <point x="629" y="-165"/>
      <point x="642" y="-158" type="curve"/>
    </contour>
  </outline>
</glyph>
<glyph name="aogonek" format="2">
  <advance width="563"/>
  <unicode hex="0105"/>
  <outline>
    <contour>
      <point x="288" y="248" type="line" smooth="yes"/>
      <point x="219" y="248"/>
      <point x="120" y="244"/>
      <point x="120" y="152" type="curve" smooth="yes"/>
      <point x="120" y="81"/>
      <point x="181" y="49"/>
      <point x="245" y="49" type="curve" smooth="yes"/>
      <point x="350" y="49"/>
      <point x="427" y="103"/>
      <point x="427" y="212" type="curve" smooth="yes"/>
      <point x="427" y="248" type="line"/>
    </contour>
    <contour>
      <point x="534" y="-201" type="line"/>
      <point x="513" y="-212"/>
      <point x="493" y="-215"/>
      <point x="470" y="-215" type="curve" smooth="yes"/>
      <point x="403" y="-215"/>
      <point x="350" y="-182"/>
      <point x="350" y="-110" type="curve" smooth="yes"/>
      <point x="350" y="-56"/>
      <point x="388" y="-11"/>
      <point x="438" y="7" type="curve"/>
      <point x="430" y="76" type="line"/>
      <point x="379" y="15"/>
      <point x="314" y="-6"/>
      <point x="237" y="-6" type="curve" smooth="yes"/>
      <point x="145" y="-6"/>
      <point x="54" y="41"/>
      <point x="54" y="145" type="curve" smooth="yes"/>
      <point x="54" y="265"/>
      <point x="151" y="301"/>
      <point x="254" y="301" type="curve" smooth="yes"/>
      <point x="427" y="301" type="line"/>
      <point x="427" y="397"/>
      <point x="390" y="477"/>
      <point x="283" y="477" type="curve" smooth="yes"/>
      <point x="232" y="477"/>
      <point x="177" y="463"/>
      <point x="152" y="414" type="curve"/>
      <point x="82" y="414" type="line"/>
      <point x="106" y="502"/>
      <point x="200" y="533"/>
      <point x="285" y="533" type="curve" smooth="yes"/>
      <point x="441" y="533"/>
      <point x="493" y="424"/>
      <point x="493" y="286" type="curve" smooth="yes"/>
      <point x="493" y="0" type="line"/>
      <point x="480" y="0" type="line"/>
      <point x="444" y="-23"/>
      <point x="409" y="-58"/>
      <point x="409" y="-101" type="curve" smooth="yes"/>
      <point x="409" y="-144"/>
      <point x="439" y="-166"/>
      <point x="480" y="-167" type="curve" smooth="yes"/>
      <point x="495" y="-167"/>
      <point x="510" y="-165"/>
      <point x="523" y="-158" type="curve"/>
    </contour>
  </outline>
</glyph>
<glyph name="Cacute" format="2">
  <advance width="705"/>
  <unicode hex="0106"/>
  <outline>
    <contour>
      <point x="377" y="656" type="curve" smooth="yes"/>
      <point x="197" y="656"/>
      <point x="120" y="518"/>
      <point x="120" y="355" type="curve" smooth="yes"/>
      <point x="120" y="191"/>
      <point x="198" y="51"/>
      <point x="378" y="51" type="curve" smooth="yes"/>
      <point x="462" y="51"/>
      <point x="553" y="86"/>
      <point x="585" y="168" type="curve"/>
      <point x="658" y="168" type="line"/>
      <point x="618" y="43"/>
      <point x="500" y="-8"/>
      <point x="376" y="-8" type="curve" smooth="yes"/>
      <point x="155" y="-8"/>
      <point x="53" y="146"/>
      <point x="53" y="353" type="curve" smooth="yes"/>
      <point x="53" y="559"/>
      <point x="159" y="715"/>
      <point x="378" y="715" type="curve" smooth="yes"/>
      <point x="502" y="715"/>
      <point x="608" y="664"/>
      <point x="645" y="539" type="curve"/>
      <point x="579" y="539" type="line"/>
      <point x="547" y="622"/>
      <point x="460" y="656"/>
    </contour>
    <contour>
      <point x="414" y="949" type="line"/>
      <point x="482" y="949" type="line"/>
      <point x="383" y="808" type="line"/>
      <point x="328" y="808" type="line"/>
    </contour>
  </outline>
</glyph>
<glyph name="ccircumflex" format="2">
  <advance width="558"/>
  <unicode hex="0109"/>
  <outline>
    <contour>
      <point x="299" y="-6" type="curve" smooth="yes"/>
      <point x="135" y="-6"/>
      <point x="52" y="107"/>
      <point x="52" y="262" type="curve" smooth="yes"/>
      <point x="52" y="421"/>
      <point x="139" y="533"/>
      <point x="304" y="533" type="curve" smooth="yes"/>
      <point x="400" y="533"/>
      <point x="479" y="487"/>
      <point x="504" y="391" type="curve"/>
      <point x="437" y="391" type="line"/>
      <point x="418" y="450"/>
      <point x="361" y="477"/>
      <point x="300" y="477" type="curve" smooth="yes"/>
      <point x="175" y="477"/>
      <point x="117" y="379"/>
      <point x="117" y="262" type="curve" smooth="yes"/>
      <point x="117" y="147"/>
      <point x="174" y="50"/>
      <point x="303" y="50" type="curve" smooth="yes"/>
      <point x="367" y="50"/>
      <point x="421" y="70"/>
      <point x="444" y="135" type="curve"/>
      <point x="512" y="135" type="line"/>
      <point x="483" y="37"/>
      <point x="394" y="-6"/>
    </contour>
    <contour>
      <point x="301" y="721" type="line"/>
      <point x="223" y="628" type="line"/>
      <point x="158" y="628" type="line"/>
      <point x="281" y="769" type="line"/>
      <point x="322" y="769" type="line"/>
      <point x="445" y="628" type="line"/>
      <point x="381" y="628" type="line"/>
    </contour>
  </outline>
</glyph>
<glyph name="Cdotaccent" format="2">
  <advance width="705"/>
  <unicode hex="010A"/>
  <outline>
    <contour>
      <point x="377" y="656" type="curve" smooth="yes"/>
      <point x="197" y="656"/>
      <point x="120" y="518"/>
      <point x="120" y="355" type="curve" smooth="yes"/>
      <point x="120" y="191"/>
      <point x="198" y="51"/>
      <point x="378" y="51" type="curve" smooth="yes"/>
      <point x="462" y="51"/>
      <point x="553" y="86"/>
      <point x="585" y="168" type="curve"/>
      <point x="658" y="168" type="line"/>
      <point x="618" y="43"/>
      <point x="500" y="-8"/>
      <point x="376" y="-8" type="curve" smooth="yes"/>
      <point x="155" y="-8"/>
      <point x="53" y="146"/>
      <point x="53" y="353" type="curve" smooth="yes"/>
      <point x="53" y="559"/>
      <point x="159" y="715"/>
      <point x="378" y="715" type="curve" smooth="yes"/>
      <point x="502" y="715"/>
      <point x="608" y="664"/>
      <point x="645" y="539" type="curve"/>
      <point x="579" y="539" type="line"/>
      <point x="547" y="622"/>
      <point x="460" y="656"/>
    </contour>
    <contour>
      <point x="376" y="897" type="curve" smooth="yes"/>
      <point x="405" y="897"/>
      <point x="425" y="878"/>
      <point x="425" y="849" type="curve" smooth="yes"/>
      <point x="425" y="818"/>
      <point x="406" y="800"/>
      <point x="375" y="800" type="curve" smooth="yes"/>
      <point x="344" y="800"/>
      <point x="326" y="818"/>
      <point x="326" y="849" type="curve" smooth="yes"/>
      <point x="326" y="878"/>
      <point x="345" y="897"/>
    </contour>
  </outline>
</glyph>
<glyph name="cdotaccent" format="2">
  <advance width="558"/>
  <unicode hex="010B"/>
  <outline>
    <contour>
      <point x="299" y="-6" type="curve" smooth="yes"/>
      <point x="135" y="-6"/>
      <point x="52" y="107"/>
      <point x="52" y="262" type="curve" smooth="yes"/>
      <point x="52" y="421"/>
      <point x="139" y="533"/>
      <point x="304" y="533" type="curve" smooth="yes"/>
      <point x="400" y="533"/>
      <point x="479" y="487"/>
      <point x="504" y="391" type="curve"/>
      <point x="437" y="391" type="line"/>
      <point x="418" y="450"/>
      <point x="361" y="477"/>
      <point x="300" y="477" type="curve" smooth="yes"/>
      <point x="175" y="477"/>
      <point x="117" y="379"/>
      <point x="117" y="262" type="curve" smooth="yes"/>
      <point x="117" y="147"/>
      <point x="174" y="50"/>
      <point x="303" y="50" type="curve" smooth="yes"/>
      <point x="367" y="50"/>
      <point x="421" y="70"/>
      <point x="444" y="135" type="curve"/>
      <point x="512" y="135" type="line"/>
      <point x="483" y="37"/>
      <point x="394" y="-6"/>
    </contour>
    <contour>
      <point x="294" y="717" type="curve" smooth="yes"/>
      <point x="323" y="717"/>
      <point x="343" y="698"/>
      <point x="343" y="669" type="curve" smooth="yes"/>
      <point x="343" y="638"/>
      <point x="324" y="620"/>
      <point x="293" y="620" type="curve" smooth="yes"/>
      <point x="262" y="620"/>
      <point x="244" y="638"/>
      <point x="244" y="669" type="curve" smooth="yes"/>
      <point x="244" y="698"/>
      <point x="263" y="717"/>
    </contour>
  </outline>
</glyph>
<glyph name="ccaron" format="2">
  <advance width="558"/>
  <unicode hex="010D"/>
  <outline>
    <contour>
      <point x="299" y="-6" type="curve" smooth="yes"/>
      <point x="135" y="-6"/>
      <point x="52" y="107"/>
      <point x="52" y="262" type="curve" smooth="yes"/>
      <point x="52" y="421"/>
      <point x="139" y="533"/>
      <point x="304" y="533" type="curve" smooth="yes"/>
      <point x="400" y="533"/>
      <point x="479" y="487"/>
      <point x="504" y="391" type="curve"/>
      <point x="437" y="391" type="line"/>
      <point x="418" y="450"/>
      <point x="361" y="477"/>
      <point x="300" y="477" type="curve" smooth="yes"/>
      <point x="175" y="477"/>
      <point x="117" y="379"/>
      <point x="117" y="262" type="curve" smooth="yes"/>
      <point x="117" y="147"/>
      <point x="174" y="50"/>
      <point x="303" y="50" type="curve" smooth="yes"/>
      <point x="367" y="50"/>
      <point x="421" y="70"/>
      <point x="444" y="135" type="curve"/>
      <point x="512" y="135" type="line"/>
      <point x="483" y="37"/>
      <point x="394" y="-6"/>
    </contour>
    <contour>
      <point x="300" y="676" type="line"/>
      <point x="378" y="769" type="line"/>
      <point x="443" y="769" type="line"/>
      <point x="320" y="628" type="line"/>
      <point x="279" y="628" type="line"/>
      <point x="156" y="769" type="line"/>
      <point x="220" y="769" type="line"/>
    </contour>
  </outline>
</glyph>
<glyph name="Dcaron" format="2">
  <advance width="724"/>
  <unicode hex="010E"/>
  <outline>
    <contour>
      <point x="92" y="707" type="line"/>
      <point x="339" y="707" type="line" smooth="yes"/>
      <point x="558" y="707"/>
      <point x="670" y="565"/>
      <point x="670" y="353" type="curve" smooth="yes"/>
      <point x="670" y="145"/>
      <point x="555" y="0"/>
      <point x="339" y="0" type="curve" smooth="yes"/>
      <point x="92" y="0" type="line"/>
    </contour>
    <contour>
      <point x="157" y="648" type="line"/>
      <point x="157" y="59" type="line"/>
      <point x="332" y="59" type="line" smooth="yes"/>
      <point x="512" y="59"/>
      <point x="603" y="180"/>
      <point x="603" y="353" type="curve" smooth="yes"/>
      <point x="603" y="521"/>
      <point x="518" y="648"/>
      <point x="338" y="648" type="curve" smooth="yes"/>
    </contour>
    <contour>
      <point x="315" y="834" type="line"/>
      <point x="393" y="927" type="line"/>
      <point x="458" y="927" type="line"/>
      <point x="335" y="786" type="line"/>
      <point x="294" y="786" type="line"/>
      <point x="171" y="927" type="line"/>
      <point x="235" y="927" type="line"/>
    </contour>
  </outline>
</glyph>
<glyph name="dcaron" format="2">
  <advance width="674"/>
  <unicode hex="010F"/>
  <outline>
    <contour>
      <point x="475" y="707" type="line"/>
      <point x="541" y="707" type="line"/>
      <point x="541" y="0" type="line"/>
      <point x="475" y="0" type="line"/>
      <point x="475" y="83" type="line"/>
      <point x="431" y="23"/>
      <point x="362" y="-6"/>
      <point x="282" y="-6" type="curve" smooth="yes"/>
      <point x="117" y="-6"/>
      <point x="48" y="127"/>
      <point x="53" y="277" type="curve"/>
      <point x="56" y="423"/>
      <point x="143" y="533"/>
      <point x="295" y="533" type="curve" smooth="yes"/>
      <point x="365" y="533"/>
      <point x="435" y="510"/>
      <point x="475" y="449" type="curve"/>
    </contour>
    <contour>
      <point x="294" y="477" type="curve" smooth="yes"/>
      <point x="170" y="477"/>
      <point x="119" y="376"/>
      <point x="119" y="265" type="curve" smooth="yes"/>
      <point x="119" y="149"/>
      <point x="166" y="50"/>
      <point x="296" y="50" type="curve" smooth="yes"/>
      <point x="355" y="50"/>
      <point x="403" y="79"/>
      <point x="434" y="119" type="curve" smooth="yes"/>
      <point x="465" y="159"/>
      <point x="477" y="210"/>
      <point x="477" y="265" type="curve" smooth="yes"/>
      <point x="477" y="330"/>
      <point x="459" y="400"/>
      <point x="404" y="441" type="curve" smooth="yes"/>
      <point x="373" y="464"/>
      <point x="335" y="477"/>
    </contour>
    <contour>
      <point x="641" y="714" type="curve" smooth="yes"/>
      <point x="677" y="714"/>
      <point x="694" y="686"/>
      <point x="694" y="647" type="curve" smooth="yes"/>
      <point x="693" y="587"/>
      <point x="658" y="525"/>
      <point x="601" y="500" type="curve"/>
      <point x="585" y="526" type="line"/>
      <point x="614" y="546"/>
      <point x="634" y="573"/>
      <point x="641" y="612" type="curve"/>
      <point x="609" y="609"/>
      <point x="587" y="631"/>
      <point x="587" y="663" type="curve" smooth="yes"/>
      <point x="587" y="692"/>
      <point x="609" y="714"/>
    </contour>
  </outline>
</glyph>
<glyph name="dcroat" format="2">
  <advance width="613"/>
  <unicode hex="0111"/>
  <outline>
    <contour>
      <point x="294" y="477" type="curve" smooth="yes"/>
      <point x="170" y="477"/>
      <point x="119" y="376"/>
      <point x="119" y="265" type="curve" smooth="yes"/>
      <point x="119" y="149"/>
      <point x="166" y="50"/>
      <point x="296" y="50" type="curve" smooth="yes"/>
      <point x="355" y="50"/>
      <point x="403" y="79"/>
      <point x="434" y="119" type="curve" smooth="yes"/>
      <point x="465" y="159"/>
      <point x="477" y="210"/>
      <point x="477" y="265" type="curve" smooth="yes"/>
      <point x="477" y="330"/>
      <point x="459" y="400"/>
      <point x="404" y="441" type="curve" smooth="yes"/>
      <point x="373" y="464"/>
      <point x="335" y="477"/>
    </contour>
    <contour>
      <point x="372" y="632" type="line"/>
      <point x="475" y="632" type="line"/>
      <point x="475" y="707" type="line"/>
      <point x="541" y="707" type="line"/>
      <point x="541" y="632" type="line"/>
      <point x="629" y="632" type="line"/>
      <point x="629" y="572" type="line"/>
      <point x="541" y="572" type="line"/>
      <point x="541" y="0" type="line"/>
      <point x="475" y="0" type="line"/>
      <point x="475" y="83" type="line"/>
      <point x="431" y="23"/>
      <point x="362" y="-6"/>
      <point x="282" y="-6" type="curve" smooth="yes"/>
      <point x="117" y="-6"/>
      <point x="48" y="127"/>
      <point x="53" y="277" type="curve"/>
      <point x="56" y="423"/>
      <point x="143" y="533"/>
      <point x="295" y="533" type="curve" smooth="yes"/>
      <point x="365" y="533"/>
      <point x="435" y="510"/>
      <point x="475" y="449" type="curve"/>
      <point x="475" y="572" type="line"/>
      <point x="372" y="572" type="line"/>
    </contour>
  </outline>
</glyph>
<glyph name="Emacron" format="2">
  <advance width="610"/>
  <unicode hex="0112"/>
  <outline>
    <contour>
      <point x="92" y="707" type="line"/>
      <point x="557" y="707" type="line"/>
      <point x="557" y="647" type="line"/>
      <point x="157" y="647" type="line"/>
      <point x="157" y="381" type="line"/>
      <point x="517" y="381" type="line"/>
      <point x="517" y="321" type="line"/>
      <point x="157" y="321" type="line"/>
      <point x="157" y="60" type="line"/>
      <point x="557" y="60" type="line"/>
      <point x="557" y="0" type="line"/>
      <point x="92" y="0" type="line"/>
    </contour>
    <contour>
      <point x="177" y="887" type="line"/>
      <point x="496" y="887" type="line"/>
      <point x="496" y="832" type="line"/>
      <point x="177" y="832" type="line"/>
    </contour>
  </outline>
</glyph>
